Playfair_5pt SemiCondensed Light.ufo
<glyph name="numbersign" format="2">
  <advance width="662"/>
  <unicode hex="0023"/>
  <outline>
    <contour>
      <point x="337" y="3" type="line"/>
      <point x="417" y="25" type="line"/>
      <point x="540" y="665" type="line"/>
      <point x="460" y="643" type="line"/>
    </contour>
    <contour>
      <point x="20" y="35" type="line"/>
      <point x="570" y="188" type="line"/>
      <point x="584" y="262" type="line"/>
      <point x="34" y="109" type="line"/>
    </contour>
    <contour>
      <point x="123" y="-57" type="line"/>
      <point x="203" y="-35" type="line"/>
      <point x="326" y="606" type="line"/>
      <point x="246" y="583" type="line"/>
    </contour>
    <contour>
      <point x="78" y="338" type="line"/>
      <point x="628" y="491" type="line"/>
      <point x="642" y="565" type="line"/>
      <point x="92" y="412" type="line"/>
    </contour>
  </outline>
</glyph>
<glyph name="percent" format="2">
  <advance width="830"/>
  <unicode hex="0025"/>
  <outline>
    <contour>
      <point x="212" y="-14" type="line"/>
      <point x="659" y="499" type="line"/>
      <point x="623" y="529" type="line"/>
      <point x="176" y="16" type="line"/>
    </contour>
    <contour>
      <point x="583" y="-14" type="curve" smooth="yes"/>
      <point x="673" y="-14"/>
      <point x="735" y="38"/>
      <point x="735" y="115" type="curve" smooth="yes"/>
      <point x="735" y="189"/>
      <point x="677" y="237"/>
      <point x="589" y="237" type="curve" smooth="yes"/>
      <point x="499" y="237"/>
      <point x="437" y="185"/>
      <point x="437" y="108" type="curve" smooth="yes"/>
      <point x="437" y="34"/>
      <point x="495" y="-14"/>
    </contour>
    <contour>
      <point x="588" y="34" type="curve" smooth="yes"/>
      <point x="536" y="34"/>
      <point x="507" y="62"/>
      <point x="507" y="113" type="curve" smooth="yes"/>
      <point x="507" y="162"/>
      <point x="534" y="189"/>
      <point x="584" y="189" type="curve" smooth="yes"/>
      <point x="636" y="189"/>
      <point x="665" y="161"/>
      <point x="665" y="112" type="curve" smooth="yes"/>
      <point x="665" y="61"/>
      <point x="639" y="34"/>
    </contour>
    <contour>
      <point x="241" y="278" type="curve" smooth="yes"/>
      <point x="331" y="278"/>
      <point x="393" y="330"/>
      <point x="393" y="406" type="curve" smooth="yes"/>
      <point x="393" y="480"/>
      <point x="335" y="529"/>
      <point x="247" y="529" type="curve" smooth="yes"/>
      <point x="157" y="529"/>
      <point x="95" y="477"/>
      <point x="95" y="400" type="curve" smooth="yes"/>
      <point x="95" y="326"/>
      <point x="153" y="278"/>
    </contour>
    <contour>
      <point x="246" y="326" type="curve" smooth="yes"/>
      <point x="193" y="326"/>
      <point x="165" y="353"/>
      <point x="165" y="404" type="curve" smooth="yes"/>
      <point x="165" y="454"/>
      <point x="192" y="481"/>
      <point x="242" y="481" type="curve" smooth="yes"/>
      <point x="294" y="481"/>
      <point x="323" y="453"/>
      <point x="323" y="404" type="curve" smooth="yes"/>
      <point x="323" y="353"/>
      <point x="297" y="326"/>
    </contour>
    <contour>
      <point x="477" y="443" type="curve" smooth="yes"/>
      <point x="524" y="443"/>
      <point x="564" y="461"/>
      <point x="609" y="503" type="curve"/>
      <point x="623" y="529" type="line"/>
      <point x="586" y="505"/>
      <point x="533" y="491"/>
      <point x="479" y="491" type="curve" smooth="yes"/>
      <point x="425" y="491"/>
      <point x="356" y="502"/>
      <point x="313" y="518" type="curve"/>
      <point x="336" y="496" type="line"/>
      <point x="387" y="459"/>
      <point x="430" y="443"/>
    </contour>
  </outline>
</glyph>
<glyph name="ampersand" format="2">
  <advance width="1118"/>
  <unicode hex="0026"/>
  <outline>
    <contour>
      <point x="369" y="-14" type="curve" smooth="yes"/>
      <point x="586" y="-14"/>
      <point x="730" y="104"/>
      <point x="785" y="327" type="curve"/>
      <point x="719" y="339" type="line"/>
      <point x="676" y="157"/>
      <point x="567" y="65"/>
      <point x="392" y="65" type="curve" smooth="yes"/>
      <point x="232" y="65"/>
      <point x="135" y="143"/>
      <point x="135" y="272" type="curve" smooth="yes"/>
      <point x="135" y="374"/>
      <point x="195" y="461"/>
      <point x="265" y="461" type="curve" smooth="yes"/>
      <point x="295" y="461"/>
      <point x="311" y="446"/>
      <point x="311" y="417" type="curve" smooth="yes"/>
      <point x="311" y="366"/>
      <point x="260" y="312"/>
      <point x="192" y="290" type="curve"/>
      <point x="219" y="224" type="line"/>
      <point x="474" y="340"/>
      <point x="650" y="503"/>
      <point x="650" y="623" type="curve" smooth="yes"/>
      <point x="650" y="674"/>
      <point x="615" y="712"/>
      <point x="569" y="712" type="curve" smooth="yes"/>
      <point x="532" y="712"/>
      <point x="504" y="686"/>
      <point x="504" y="652" type="curve" smooth="yes"/>
      <point x="504" y="615"/>
      <point x="537" y="593"/>
      <point x="537" y="555" type="curve" smooth="yes"/>
      <point x="537" y="500"/>
      <point x="467" y="432"/>
      <point x="309" y="333" type="curve"/>
      <point x="333" y="329" type="line"/>
      <point x="373" y="375"/>
      <point x="390" y="409"/>
      <point x="390" y="443" type="curve" smooth="yes"/>
      <point x="390" y="496"/>
      <point x="349" y="528"/>
      <point x="281" y="528" type="curve" smooth="yes"/>
      <point x="150" y="528"/>
      <point x="47" y="408"/>
      <point x="47" y="254" type="curve" smooth="yes"/>
      <point x="47" y="87"/>
      <point x="168" y="-14"/>
    </contour>
    <contour>
      <point x="544" y="153" type="curve" smooth="yes"/>
      <point x="577" y="153"/>
      <point x="599" y="173"/>
      <point x="599" y="202" type="curve" smooth="yes"/>
      <point x="599" y="231"/>
      <point x="576" y="249"/>
      <point x="576" y="278" type="curve" smooth="yes"/>
      <point x="576" y="310"/>
      <point x="606" y="328"/>
      <point x="660" y="328" type="curve" smooth="yes"/>
      <point x="719" y="328"/>
      <point x="830" y="307"/>
      <point x="902" y="307" type="curve" smooth="yes"/>
      <point x="1002" y="307"/>
      <point x="1068" y="348"/>
      <point x="1068" y="410" type="curve" smooth="yes"/>
      <point x="1068" y="445"/>
      <point x="1048" y="466"/>
      <point x="1015" y="466" type="curve" smooth="yes"/>
      <point x="947" y="466"/>
      <point x="973" y="375"/>
      <point x="894" y="375" type="curve" smooth="yes"/>
      <point x="848" y="375"/>
      <point x="774" y="406"/>
      <point x="687" y="406" type="curve" smooth="yes"/>
      <point x="560" y="406"/>
      <point x="477" y="341"/>
      <point x="477" y="241" type="curve" smooth="yes"/>
      <point x="477" y="186"/>
      <point x="502" y="153"/>
    </contour>
  </outline>
</glyph>
<glyph name="quotesingle" format="2">
  <advance width="188"/>
  <unicode hex="0027"/>
  <outline>
    <contour>
      <point x="67" y="428" type="curve"/>
      <point x="121" y="428" type="line"/>
      <point x="121" y="535"/>
      <point x="148" y="611"/>
      <point x="148" y="689" type="curve" smooth="yes"/>
      <point x="148" y="734"/>
      <point x="129" y="760"/>
      <point x="94" y="760" type="curve" smooth="yes"/>
      <point x="59" y="760"/>
      <point x="40" y="734"/>
      <point x="40" y="688" type="curve" smooth="yes"/>
      <point x="40" y="614"/>
      <point x="63" y="536"/>
    </contour>
  </outline>
</glyph>
<glyph name="parenleft" format="2">
  <advance width="444"/>
  <unicode hex="0028"/>
  <outline>
    <contour>
      <point x="391" y="-191" type="curve"/>
      <point x="423" y="-144" type="line"/>
      <point x="286" y="-39"/>
      <point x="203" y="96"/>
      <point x="203" y="303" type="curve" smooth="yes"/>
      <point x="203" y="503"/>
      <point x="286" y="634"/>
      <point x="423" y="735" type="curve"/>
      <point x="391" y="782" type="line"/>
      <point x="221" y="687"/>
      <point x="121" y="526"/>
      <point x="121" y="301" type="curve" smooth="yes"/>
      <point x="121" y="73"/>
      <point x="222" y="-93"/>
    </contour>
  </outline>
</glyph>
<glyph name="asterisk" format="2">
  <advance width="493"/>
  <unicode hex="002A"/>
  <outline>
    <contour>
      <point x="430" y="623" type="curve" smooth="yes"/>
      <point x="418" y="643"/>
      <point x="394" y="657"/>
      <point x="359" y="637" type="curve" smooth="yes"/>
      <point x="326" y="618"/>
      <point x="290" y="585"/>
      <point x="238" y="533" type="curve"/>
      <point x="255" y="504" type="line"/>
      <point x="330" y="524"/>
      <point x="373" y="537"/>
      <point x="406" y="556" type="curve" smooth="yes"/>
      <point x="440" y="576"/>
      <point x="441" y="603"/>
    </contour>
    <contour>
      <point x="429" y="412" type="curve" smooth="yes"/>
      <point x="441" y="432"/>
      <point x="441" y="460"/>
      <point x="406" y="480" type="curve" smooth="yes"/>
      <point x="373" y="499"/>
      <point x="326" y="514"/>
      <point x="255" y="533" type="curve"/>
      <point x="239" y="504" type="line"/>
      <point x="293" y="449"/>
      <point x="326" y="418"/>
      <point x="359" y="399" type="curve" smooth="yes"/>
      <point x="394" y="380"/>
      <point x="417" y="392"/>
    </contour>
    <contour>
      <point x="246" y="307" type="curve" smooth="yes"/>
      <point x="269" y="307"/>
      <point x="294" y="321"/>
      <point x="293" y="361" type="curve" smooth="yes"/>
      <point x="293" y="399"/>
      <point x="283" y="447"/>
      <point x="264" y="518" type="curve"/>
      <point x="231" y="518" type="line"/>
      <point x="210" y="443"/>
      <point x="200" y="399"/>
      <point x="200" y="361" type="curve" smooth="yes"/>
      <point x="201" y="321"/>
      <point x="223" y="308"/>
    </contour>
    <contour>
      <point x="64" y="413" type="curve" smooth="yes"/>
      <point x="75" y="393"/>
      <point x="100" y="379"/>
      <point x="134" y="399" type="curve" smooth="yes"/>
      <point x="167" y="418"/>
      <point x="203" y="451"/>
      <point x="255" y="503" type="curve"/>
      <point x="239" y="532" type="line"/>
      <point x="163" y="512"/>
      <point x="120" y="499"/>
      <point x="87" y="480" type="curve" smooth="yes"/>
      <point x="53" y="459"/>
      <point x="53" y="434"/>
    </contour>
    <contour>
      <point x="64" y="624" type="curve" smooth="yes"/>
      <point x="53" y="604"/>
      <point x="53" y="576"/>
      <point x="87" y="556" type="curve" smooth="yes"/>
      <point x="120" y="537"/>
      <point x="167" y="522"/>
      <point x="238" y="503" type="curve"/>
      <point x="255" y="532" type="line"/>
      <point x="200" y="588"/>
      <point x="167" y="618"/>
      <point x="134" y="637" type="curve" smooth="yes"/>
      <point x="99" y="656"/>
      <point x="77" y="644"/>
    </contour>
    <contour>
      <point x="247" y="729" type="curve" smooth="yes"/>
      <point x="224" y="729"/>
      <point x="200" y="715"/>
      <point x="200" y="675" type="curve" smooth="yes"/>
      <point x="200" y="637"/>
      <point x="210" y="589"/>
      <point x="230" y="518" type="curve"/>
      <point x="263" y="518" type="line"/>
      <point x="283" y="593"/>
      <point x="293" y="637"/>
      <point x="293" y="675" type="curve" smooth="yes"/>
      <point x="293" y="715"/>
      <point x="270" y="729"/>
    </contour>
  </outline>
</glyph>
<glyph name="plus" format="2">
  <advance width="647"/>
  <unicode hex="002B"/>
  <outline>
    <contour>
      <point x="281" y="15" type="line"/>
      <point x="367" y="15" type="line"/>
      <point x="367" y="225" type="line"/>
      <point x="574" y="225" type="line"/>
      <point x="574" y="305" type="line"/>
      <point x="367" y="305" type="line"/>
      <point x="367" y="516" type="line"/>
      <point x="281" y="516" type="line"/>
      <point x="281" y="305" type="line"/>
      <point x="73" y="305" type="line"/>
      <point x="73" y="225" type="line"/>
      <point x="281" y="225" type="line"/>
    </contour>
  </outline>
</glyph>
<glyph name="comma" format="2">
  <advance width="327"/>
  <unicode hex="002C"/>
  <outline>
    <contour>
      <point x="107" y="-185" type="line"/>
      <point x="211" y="-147"/>
      <point x="265" y="-76"/>
      <point x="265" y="21" type="curve" smooth="yes"/>
      <point x="265" y="104"/>
      <point x="225" y="156"/>
      <point x="162" y="156" type="curve" smooth="yes"/>
      <point x="109" y="156"/>
      <point x="72" y="120"/>
      <point x="72" y="70" type="curve" smooth="yes"/>
      <point x="72" y="26"/>
      <point x="100" y="-5"/>
      <point x="141" y="-5" type="curve" smooth="yes"/>
      <point x="159" y="-5"/>
      <point x="170" y="1"/>
      <point x="179" y="1" type="curve" smooth="yes"/>
      <point x="189" y="1"/>
      <point x="193" y="-5"/>
      <point x="193" y="-21" type="curve" smooth="yes"/>
      <point x="193" y="-67"/>
      <point x="156" y="-105"/>
      <point x="84" y="-134" type="curve"/>
    </contour>
  </outline>
</glyph>
<glyph name="hyphen" format="2">
  <advance width="499"/>
  <unicode hex="002D"/>
  <outline>
    <contour>
      <point x="69" y="244" type="line"/>
      <point x="430" y="244" type="line"/>
      <point x="430" y="314" type="line"/>
      <point x="69" y="314" type="line"/>
    </contour>
  </outline>
</glyph>
<glyph name="period" format="2">
  <advance width="314"/>
  <unicode hex="002E"/>
  <anchor x="0" y="0" name="^entry"/>
  <anchor x="429" y="0" name="^exit"/>
  <anchor x="157" y="0" name="_Ldot"/>
  <anchor x="157" y="142" name="_ascender"/>
  <anchor x="157" y="0" name="_baseline"/>
  <anchor x="157" y="0" name="_center"/>
  <anchor x="157" y="0" name="center"/>
  <outline>
    <contour>
      <point x="157" y="-14" type="curve" smooth="yes"/>
      <point x="206" y="-14"/>
      <point x="242" y="22"/>
      <point x="242" y="71" type="curve" smooth="yes"/>
      <point x="242" y="120"/>
      <point x="206" y="156"/>
      <point x="157" y="156" type="curve" smooth="yes"/>
      <point x="108" y="156"/>
      <point x="72" y="120"/>
      <point x="72" y="71" type="curve" smooth="yes"/>
      <point x="72" y="22"/>
      <point x="108" y="-14"/>
    </contour>
  </outline>
</glyph>
<glyph name="slash" format="2">
  <advance width="421"/>
  <unicode hex="002F"/>
  <anchor x="96" y="708" name="ascender"/>
  <anchor x="325" y="0" name="baseline"/>
  <outline>
    <contour>
      <point x="33" y="-14" type="line"/>
      <point x="116" y="-14" type="line"/>
      <point x="388" y="722" type="line"/>
      <point x="305" y="722" type="line"/>
    </contour>
  </outline>
</glyph>
<glyph name="zero" format="2">
  <advance width="647"/>
  <unicode hex="0030"/>
  <anchor x="323" y="260" name="center"/>
  <outline>
    <contour>
      <point x="318" y="-14" type="curve" smooth="yes"/>
      <point x="466" y="-14"/>
      <point x="571" y="102"/>
      <point x="571" y="266" type="curve" smooth="yes"/>
      <point x="571" y="422"/>
      <point x="473" y="529"/>
      <point x="329" y="529" type="curve" smooth="yes"/>
      <point x="181" y="529"/>
      <point x="76" y="413"/>
      <point x="76" y="250" type="curve" smooth="yes"/>
      <point x="76" y="94"/>
      <point x="175" y="-14"/>
    </contour>
    <contour>
      <point x="322" y="56" type="curve" smooth="yes"/>
      <point x="230" y="56"/>
      <point x="173" y="131"/>
      <point x="173" y="253" type="curve" smooth="yes"/>
      <point x="173" y="380"/>
      <point x="231" y="459"/>
      <point x="324" y="459" type="curve" smooth="yes"/>
      <point x="417" y="459"/>
      <point x="474" y="384"/>
      <point x="474" y="262" type="curve" smooth="yes"/>
      <point x="474" y="135"/>
      <point x="416" y="56"/>
    </contour>
  </outline>
</glyph>
<glyph name="one" format="2">
  <advance width="460"/>
  <unicode hex="0031"/>
  <outline>
    <contour>
      <point x="67" y="0" type="line"/>
      <point x="102" y="1"/>
      <point x="181" y="4"/>
      <point x="248" y="4" type="curve" smooth="yes"/>
      <point x="315" y="4"/>
      <point x="394" y="1"/>
      <point x="429" y="0" type="curve"/>
      <point x="429" y="71" type="line"/>
      <point x="328" y="71"/>
      <point x="293" y="89"/>
      <point x="293" y="143" type="curve" smooth="yes"/>
      <point x="293" y="536" type="line"/>
      <point x="237" y="501"/>
      <point x="172" y="487"/>
      <point x="57" y="485" type="curve"/>
      <point x="57" y="414" type="line"/>
      <point x="178" y="414"/>
      <point x="203" y="396"/>
      <point x="203" y="305" type="curve" smooth="yes"/>
      <point x="203" y="143" type="line" smooth="yes"/>
      <point x="203" y="89"/>
      <point x="168" y="71"/>
      <point x="67" y="71" type="curve"/>
    </contour>
  </outline>
</glyph>
<glyph name="two" format="2">
  <advance width="527"/>
  <unicode hex="0032"/>
  <outline>
    <contour>
      <point x="490" y="-5" type="curve"/>
      <point x="487" y="35"/>
      <point x="486" y="76"/>
      <point x="486" y="168" type="curve"/>
      <point x="419" y="168" type="line"/>
      <point x="414" y="100"/>
      <point x="407" y="77"/>
      <point x="352" y="77" type="curve" smooth="yes"/>
      <point x="189" y="77" type="line"/>
      <point x="189" y="87" type="line"/>
      <point x="407" y="252"/>
      <point x="440" y="322"/>
      <point x="440" y="388" type="curve" smooth="yes"/>
      <point x="440" y="480"/>
      <point x="371" y="529"/>
      <point x="271" y="529" type="curve" smooth="yes"/>
      <point x="154" y="529"/>
      <point x="63" y="466"/>
      <point x="63" y="378" type="curve" smooth="yes"/>
      <point x="63" y="326"/>
      <point x="92" y="301"/>
      <point x="132" y="301" type="curve" smooth="yes"/>
      <point x="166" y="301"/>
      <point x="188" y="319"/>
      <point x="188" y="351" type="curve" smooth="yes"/>
      <point x="188" y="381"/>
      <point x="168" y="398"/>
      <point x="168" y="419" type="curve" smooth="yes"/>
      <point x="168" y="440"/>
      <point x="193" y="457"/>
      <point x="251" y="457" type="curve" smooth="yes"/>
      <point x="313" y="457"/>
      <point x="343" y="431"/>
      <point x="343" y="376" type="curve" smooth="yes"/>
      <point x="343" y="301"/>
      <point x="286" y="220"/>
      <point x="67" y="67" type="curve"/>
      <point x="67" y="0" type="line"/>
      <point x="401" y="0" type="line" smooth="yes"/>
      <point x="440" y="0"/>
      <point x="480" y="-1"/>
    </contour>
  </outline>
</glyph>
<glyph name="three" format="2">
  <advance width="515"/>
  <unicode hex="0033"/>
  <outline>
    <contour>
      <point x="233" y="-150" type="curve" smooth="yes"/>
      <point x="362" y="-150"/>
      <point x="453" y="-75"/>
      <point x="453" y="33" type="curve" smooth="yes"/>
      <point x="453" y="104"/>
      <point x="409" y="167"/>
      <point x="337" y="198" type="curve"/>
      <point x="400" y="246"/>
      <point x="434" y="305"/>
      <point x="434" y="371" type="curve" smooth="yes"/>
      <point x="434" y="467"/>
      <point x="364" y="529"/>
      <point x="255" y="529" type="curve" smooth="yes"/>
      <point x="142" y="529"/>
      <point x="48" y="465"/>
      <point x="48" y="387" type="curve" smooth="yes"/>
      <point x="48" y="345"/>
      <point x="76" y="317"/>
      <point x="118" y="317" type="curve" smooth="yes"/>
      <point x="152" y="317"/>
      <point x="173" y="336"/>
      <point x="173" y="365" type="curve" smooth="yes"/>
      <point x="173" y="391"/>
      <point x="155" y="402"/>
      <point x="155" y="419" type="curve" smooth="yes"/>
      <point x="155" y="442"/>
      <point x="186" y="457"/>
      <point x="234" y="457" type="curve" smooth="yes"/>
      <point x="304" y="457"/>
      <point x="337" y="424"/>
      <point x="337" y="356" type="curve" smooth="yes"/>
      <point x="337" y="296"/>
      <point x="312" y="253"/>
      <point x="262" y="225" type="curve"/>
      <point x="245" y="227"/>
      <point x="229" y="231"/>
      <point x="217" y="231" type="curve" smooth="yes"/>
      <point x="191" y="231"/>
      <point x="172" y="214"/>
      <point x="172" y="190" type="curve" smooth="yes"/>
      <point x="172" y="167"/>
      <point x="190" y="149"/>
      <point x="213" y="149" type="curve" smooth="yes"/>
      <point x="227" y="149"/>
      <point x="238" y="154"/>
      <point x="264" y="162" type="curve"/>
      <point x="323" y="143"/>
      <point x="356" y="100"/>
      <point x="356" y="43" type="curve" smooth="yes"/>
      <point x="356" y="-31"/>
      <point x="307" y="-78"/>
      <point x="230" y="-78" type="curve" smooth="yes"/>
      <point x="180" y="-78"/>
      <point x="145" y="-62"/>
      <point x="145" y="-39" type="curve" smooth="yes"/>
      <point x="145" y="-22"/>
      <point x="163" y="-13"/>
      <point x="163" y="14" type="curve" smooth="yes"/>
      <point x="163" y="44"/>
      <point x="142" y="62"/>
      <point x="107" y="62" type="curve" smooth="yes"/>
      <point x="65" y="62"/>
      <point x="38" y="33"/>
      <point x="38" y="-14" type="curve" smooth="yes"/>
      <point x="38" y="-94"/>
      <point x="118" y="-150"/>
    </contour>
  </outline>
</glyph>
<glyph name="four" format="2">
  <advance width="515"/>
  <unicode hex="0034"/>
  <outline>
    <contour>
      <point x="17" y="34" type="line"/>
      <point x="484" y="34" type="line"/>
      <point x="484" y="116" type="line"/>
      <point x="64" y="116" type="line"/>
      <point x="85" y="85" type="line"/>
      <point x="360" y="468" type="line"/>
      <point x="307" y="514" type="line"/>
      <point x="17" y="110" type="line"/>
    </contour>
    <contour>
      <point x="293" y="-141" type="line"/>
      <point x="378" y="-141" type="line"/>
      <point x="378" y="514" type="line"/>
      <point x="307" y="514" type="line"/>
      <point x="293" y="408" type="line"/>
    </contour>
  </outline>
</glyph>
<glyph name="five" format="2">
  <advance width="491"/>
  <unicode hex="0035"/>
  <outline>
    <contour>
      <point x="220" y="-150" type="curve" smooth="yes"/>
      <point x="354" y="-150"/>
      <point x="447" y="-61"/>
      <point x="447" y="68" type="curve" smooth="yes"/>
      <point x="447" y="194"/>
      <point x="377" y="276"/>
      <point x="246" y="276" type="curve" smooth="yes"/>
      <point x="212" y="276"/>
      <point x="191" y="273"/>
      <point x="167" y="269" type="curve"/>
      <point x="188" y="418" type="line"/>
      <point x="215" y="416"/>
      <point x="244" y="414"/>
      <point x="266" y="414" type="curve" smooth="yes"/>
      <point x="346" y="414"/>
      <point x="400" y="446"/>
      <point x="427" y="509" type="curve"/>
      <point x="389" y="538" type="line"/>
      <point x="361" y="514"/>
      <point x="327" y="504"/>
      <point x="273" y="504" type="curve" smooth="yes"/>
      <point x="228" y="504"/>
      <point x="183" y="509"/>
      <point x="133" y="519" type="curve"/>
      <point x="87" y="190" type="line"/>
      <point x="102" y="189" type="line"/>
      <point x="130" y="197"/>
      <point x="168" y="205"/>
      <point x="209" y="205" type="curve" smooth="yes"/>
      <point x="296" y="205"/>
      <point x="350" y="161"/>
      <point x="350" y="66" type="curve" smooth="yes"/>
      <point x="350" y="-25"/>
      <point x="303" y="-79"/>
      <point x="223" y="-79" type="curve" smooth="yes"/>
      <point x="178" y="-79"/>
      <point x="145" y="-63"/>
      <point x="145" y="-40" type="curve" smooth="yes"/>
      <point x="145" y="-22"/>
      <point x="163" y="-13"/>
      <point x="163" y="14" type="curve" smooth="yes"/>
      <point x="163" y="44"/>
      <point x="142" y="62"/>
      <point x="107" y="62" type="curve" smooth="yes"/>
      <point x="65" y="62"/>
      <point x="38" y="33"/>
      <point x="38" y="-14" type="curve" smooth="yes"/>
      <point x="38" y="-93"/>
      <point x="114" y="-150"/>
    </contour>
    <contour>
      <point x="104" y="156" type="curve" smooth="yes"/>
      <point x="142" y="156"/>
      <point x="166" y="188"/>
      <point x="168" y="240" type="curve"/>
      <point x="159" y="272" type="line"/>
      <point x="103" y="263"/>
      <point x="67" y="231"/>
      <point x="67" y="194" type="curve" smooth="yes"/>
      <point x="67" y="170"/>
      <point x="81" y="156"/>
    </contour>
  </outline>
</glyph>
<glyph name="six" format="2">
  <advance width="576"/>
  <unicode hex="0036"/>
  <outline>
    <contour>
      <point x="293" y="-14" type="curve" smooth="yes"/>
      <point x="418" y="-14"/>
      <point x="500" y="80"/>
      <point x="500" y="225" type="curve" smooth="yes"/>
      <point x="500" y="359"/>
      <point x="430" y="448"/>
      <point x="326" y="448" type="curve" smooth="yes"/>
      <point x="248" y="448"/>
      <point x="178" y="399"/>
      <point x="161" y="313" type="curve"/>
      <point x="173" y="239" type="line"/>
      <point x="188" y="323"/>
      <point x="241" y="378"/>
      <point x="308" y="378" type="curve" smooth="yes"/>
      <point x="370" y="378"/>
      <point x="403" y="325"/>
      <point x="403" y="224" type="curve" smooth="yes"/>
      <point x="403" y="117"/>
      <point x="365" y="56"/>
      <point x="300" y="56" type="curve" smooth="yes"/>
      <point x="216" y="56"/>
      <point x="173" y="150"/>
      <point x="173" y="335" type="curve" smooth="yes"/>
      <point x="173" y="548"/>
      <point x="224" y="655"/>
      <point x="326" y="655" type="curve" smooth="yes"/>
      <point x="359" y="655"/>
      <point x="379" y="645"/>
      <point x="379" y="628" type="curve" smooth="yes"/>
      <point x="379" y="609"/>
      <point x="361" y="599"/>
      <point x="361" y="573" type="curve" smooth="yes"/>
      <point x="361" y="544"/>
      <point x="382" y="525"/>
      <point x="416" y="525" type="curve" smooth="yes"/>
      <point x="458" y="525"/>
      <point x="486" y="553"/>
      <point x="486" y="597" type="curve" smooth="yes"/>
      <point x="486" y="670"/>
      <point x="413" y="722"/>
      <point x="324" y="722" type="curve" smooth="yes"/>
      <point x="174" y="722"/>
      <point x="76" y="562"/>
      <point x="76" y="318" type="curve" smooth="yes"/>
      <point x="76" y="103"/>
      <point x="153" y="-14"/>
    </contour>
  </outline>
</glyph>
<glyph name="seven" format="2">
  <advance width="464"/>
  <unicode hex="0037"/>
  <outline>
    <contour>
      <point x="212" y="-148" type="curve" smooth="yes"/>
      <point x="240" y="-148"/>
      <point x="259" y="-127"/>
      <point x="259" y="-97" type="curve" smooth="yes"/>
      <point x="259" y="-76"/>
      <point x="255" y="-50"/>
      <point x="255" y="-18" type="curve" smooth="yes"/>
      <point x="255" y="189"/>
      <point x="361" y="320"/>
      <point x="428" y="443" type="curve"/>
      <point x="428" y="514" type="line"/>
      <point x="146" y="514" type="line" smooth="yes"/>
      <point x="102" y="514"/>
      <point x="50" y="515"/>
      <point x="37" y="519" type="curve"/>
      <point x="40" y="478"/>
      <point x="42" y="428"/>
      <point x="41" y="336" type="curve"/>
      <point x="114" y="336" type="line"/>
      <point x="120" y="413"/>
      <point x="139" y="437"/>
      <point x="211" y="437" type="curve" smooth="yes"/>
      <point x="354" y="437" type="line"/>
      <point x="354" y="427" type="line"/>
      <point x="235" y="282"/>
      <point x="167" y="93"/>
      <point x="167" y="-92" type="curve" smooth="yes"/>
      <point x="167" y="-121"/>
      <point x="181" y="-148"/>
    </contour>
  </outline>
</glyph>
<glyph name="eight" format="2">
  <advance width="541"/>
  <unicode hex="0038"/>
  <outline>
    <contour>
      <point x="261" y="-14" type="curve" smooth="yes"/>
      <point x="400" y="-14"/>
      <point x="479" y="70"/>
      <point x="479" y="191" type="curve" smooth="yes"/>
      <point x="479" y="415"/>
      <point x="181" y="391"/>
      <point x="181" y="558" type="curve" smooth="yes"/>
      <point x="181" y="616"/>
      <point x="217" y="652"/>
      <point x="273" y="652" type="curve" smooth="yes"/>
      <point x="333" y="652"/>
      <point x="370" y="612"/>
      <point x="370" y="546" type="curve" smooth="yes"/>
      <point x="370" y="494"/>
      <point x="348" y="452"/>
      <point x="296" y="402" type="curve"/>
      <point x="346" y="366" type="line"/>
      <point x="416" y="427"/>
      <point x="448" y="487"/>
      <point x="448" y="556" type="curve" smooth="yes"/>
      <point x="448" y="663"/>
      <point x="380" y="722"/>
      <point x="276" y="722" type="curve" smooth="yes"/>
      <point x="167" y="722"/>
      <point x="93" y="651"/>
      <point x="93" y="547" type="curve" smooth="yes"/>
      <point x="93" y="338"/>
      <point x="390" y="355"/>
      <point x="390" y="175" type="curve" smooth="yes"/>
      <point x="390" y="103"/>
      <point x="342" y="56"/>
      <point x="270" y="56" type="curve" smooth="yes"/>
      <point x="196" y="56"/>
      <point x="149" y="108"/>
      <point x="149" y="190" type="curve" smooth="yes"/>
      <point x="149" y="255"/>
      <point x="179" y="306"/>
      <point x="253" y="365" type="curve"/>
      <point x="209" y="405" type="line"/>
      <point x="110" y="334"/>
      <point x="62" y="258"/>
      <point x="62" y="171" type="curve" smooth="yes"/>
      <point x="62" y="59"/>
      <point x="140" y="-14"/>
    </contour>
  </outline>
</glyph>
<glyph name="nine" format="2">
  <advance width="576"/>
  <unicode hex="0039"/>
  <outline>
    <contour>
      <point x="255" y="-150" type="curve" smooth="yes"/>
      <point x="406" y="-150"/>
      <point x="500" y="-11"/>
      <point x="500" y="210" type="curve" smooth="yes"/>
      <point x="500" y="414"/>
      <point x="420" y="529"/>
      <point x="278" y="529" type="curve" smooth="yes"/>
      <point x="156" y="529"/>
      <point x="76" y="445"/>
      <point x="76" y="316" type="curve" smooth="yes"/>
      <point x="76" y="199"/>
      <point x="147" y="117"/>
      <point x="250" y="117" type="curve" smooth="yes"/>
      <point x="333" y="117"/>
      <point x="399" y="171"/>
      <point x="415" y="252" type="curve"/>
      <point x="403" y="326" type="line"/>
      <point x="388" y="242"/>
      <point x="335" y="187"/>
      <point x="268" y="187" type="curve" smooth="yes"/>
      <point x="207" y="187"/>
      <point x="173" y="234"/>
      <point x="173" y="318" type="curve" smooth="yes"/>
      <point x="173" y="406"/>
      <point x="210" y="459"/>
      <point x="273" y="459" type="curve" smooth="yes"/>
      <point x="359" y="459"/>
      <point x="403" y="368"/>
      <point x="403" y="191" type="curve" smooth="yes"/>
      <point x="403" y="5"/>
      <point x="354" y="-83"/>
      <point x="252" y="-83" type="curve" smooth="yes"/>
      <point x="217" y="-83"/>
      <point x="197" y="-73"/>
      <point x="197" y="-55" type="curve" smooth="yes"/>
      <point x="197" y="-38"/>
      <point x="215" y="-27"/>
      <point x="215" y="-1" type="curve" smooth="yes"/>
      <point x="215" y="28"/>
      <point x="194" y="47"/>
      <point x="160" y="47" type="curve" smooth="yes"/>
      <point x="118" y="47"/>
      <point x="90" y="19"/>
      <point x="90" y="-25" type="curve" smooth="yes"/>
      <point x="90" y="-96"/>
      <point x="161" y="-150"/>
    </contour>
  </outline>
</glyph>
<glyph name="less" format="2">
  <advance width="608"/>
  <unicode hex="003C"/>
  <outline>
    <contour>
      <point x="517" y="39" type="line"/>
      <point x="555" y="120" type="line"/>
      <point x="244" y="266" type="line"/>
      <point x="555" y="413" type="line"/>
      <point x="517" y="493" type="line"/>
      <point x="30" y="266" type="line"/>
    </contour>
  </outline>
</glyph>
<glyph name="equal" format="2">
  <advance width="647"/>
  <unicode hex="003D"/>
  <outline>
    <contour>
      <point x="73" y="296" type="line"/>
      <point x="574" y="296" type="line"/>
      <point x="574" y="376" type="line"/>
      <point x="73" y="376" type="line"/>
    </contour>
    <contour>
      <point x="73" y="156" type="line"/>
      <point x="574" y="156" type="line"/>
      <point x="574" y="236" type="line"/>
      <point x="73" y="236" type="line"/>
    </contour>
  </outline>
</glyph>
<glyph name="at" format="2">
  <advance width="926"/>
  <unicode hex="0040"/>
  <outline>
    <contour>
      <point x="362" y="-161" type="curve" smooth="yes"/>
      <point x="449" y="-161"/>
      <point x="533" y="-137"/>
      <point x="583" y="-107" type="curve"/>
      <point x="561" y="-59" type="line"/>
      <point x="500" y="-89"/>
      <point x="436" y="-103"/>
      <point x="365" y="-103" type="curve" smooth="yes"/>
      <point x="214" y="-103"/>
      <point x="133" y="-23"/>
      <point x="133" y="128" type="curve" smooth="yes"/>
      <point x="133" y="383"/>
      <point x="346" y="610"/>
      <point x="585" y="610" type="curve" smooth="yes"/>
      <point x="719" y="610"/>
      <point x="802" y="534"/>
      <point x="802" y="411" type="curve" smooth="yes"/>
      <point x="802" y="233"/>
      <point x="680" y="101"/>
      <point x="615" y="101" type="curve" smooth="yes"/>
      <point x="585" y="101"/>
      <point x="578" y="115"/>
      <point x="587" y="147" type="curve" smooth="yes"/>
      <point x="629" y="299" type="line" smooth="yes"/>
      <point x="647" y="364"/>
      <point x="661" y="391"/>
      <point x="706" y="425" type="curve"/>
      <point x="667" y="478" type="line"/>
      <point x="629" y="448"/>
      <point x="601" y="428"/>
      <point x="575" y="414" type="curve"/>
      <point x="506" y="166" type="line" smooth="yes"/>
      <point x="479" y="70"/>
      <point x="502" y="26"/>
      <point x="566" y="26" type="curve" smooth="yes"/>
      <point x="720" y="26"/>
      <point x="872" y="206"/>
      <point x="872" y="408" type="curve" smooth="yes"/>
      <point x="872" y="569"/>
      <point x="764" y="668"/>
      <point x="589" y="668" type="curve" smooth="yes"/>
      <point x="309" y="668"/>
      <point x="63" y="415"/>
      <point x="63" y="126" type="curve" smooth="yes"/>
      <point x="63" y="-61"/>
      <point x="167" y="-161"/>
    </contour>
    <contour>
      <point x="376" y="26" type="curve" smooth="yes"/>
      <point x="437" y="26"/>
      <point x="485" y="62"/>
      <point x="512" y="127" type="curve"/>
      <point x="516" y="182" type="line"/>
      <point x="486" y="128"/>
      <point x="456" y="106"/>
      <point x="415" y="106" type="curve" smooth="yes"/>
      <point x="367" y="106"/>
      <point x="344" y="136"/>
      <point x="345" y="198" type="curve" smooth="yes"/>
      <point x="346" y="308"/>
      <point x="415" y="408"/>
      <point x="490" y="408" type="curve" smooth="yes"/>
      <point x="522" y="408"/>
      <point x="550" y="384"/>
      <point x="567" y="343" type="curve"/>
      <point x="632" y="394" type="line"/>
      <point x="587" y="449"/>
      <point x="537" y="478"/>
      <point x="489" y="478" type="curve" smooth="yes"/>
      <point x="374" y="478"/>
      <point x="258" y="330"/>
      <point x="255" y="180" type="curve" smooth="yes"/>
      <point x="253" y="83"/>
      <point x="298" y="26"/>
    </contour>
  </outline>
</glyph>
<glyph name="A" format="2">
  <advance width="803"/>
  <unicode hex="0041"/>
  <anchor x="391" y="0" name="bottom"/>
  <anchor x="390" y="354" name="center"/>
  <anchor x="650" y="0" name="ogonek"/>
  <anchor x="390" y="708" name="top"/>
  <anchor x="390" y="688" name="top_low_1"/>
  <anchor x="390" y="668" name="top_low_2"/>
  <anchor x="390" y="648" name="top_low_3"/>
  <outline>
    <contour>
      <point x="245" y="209" type="curve"/>
      <point x="396" y="609" type="line"/>
      <point x="369" y="594" type="line"/>
      <point x="536" y="157" type="line"/>
      <point x="557" y="100"/>
      <point x="543" y="80"/>
      <point x="480" y="74" type="curve"/>
      <point x="441" y="70" type="line"/>
      <point x="441" y="0" type="line"/>
      <point x="483" y="1"/>
      <point x="577" y="3"/>
      <point x="644" y="3" type="curve"/>
      <point x="645" y="3" type="line"/>
      <point x="645" y="3" type="line"/>
      <point x="676" y="3"/>
      <point x="723" y="2"/>
      <point x="770" y="0" type="curve"/>
      <point x="770" y="70" type="line"/>
      <point x="716" y="75" type="line"/>
      <point x="671" y="79"/>
      <point x="658" y="96"/>
      <point x="634" y="158" type="curve"/>
      <point x="425" y="708" type="line"/>
      <point x="359" y="708" type="line"/>
      <point x="164" y="199" type="line"/>
      <point x="129" y="105"/>
      <point x="100" y="80"/>
      <point x="20" y="72" type="curve"/>
      <point x="1" y="70" type="line"/>
      <point x="1" y="0" type="line"/>
      <point x="48" y="2"/>
      <point x="102" y="3"/>
      <point x="156" y="3" type="curve"/>
      <point x="209" y="3"/>
      <point x="271" y="2"/>
      <point x="334" y="0" type="curve"/>
      <point x="334" y="70" type="line"/>
      <point x="307" y="73" type="line"/>
      <point x="232" y="81"/>
      <point x="213" y="123"/>
    </contour>
    <contour>
      <point x="205" y="223" type="line"/>
      <point x="566" y="223" type="line"/>
      <point x="541" y="293" type="line"/>
      <point x="233" y="293" type="line"/>
    </contour>
  </outline>
</glyph>
<glyph name="B" format="2">
  <advance width="731"/>
  <unicode hex="0042"/>
  <anchor x="370" y="0" name="bottom"/>
  <anchor x="258" y="367" name="center"/>
  <anchor x="379" y="0" name="currency"/>
  <anchor x="400" y="708" name="top"/>
  <anchor x="400" y="688" name="top_low_1"/>
  <anchor x="400" y="668" name="top_low_2"/>
  <anchor x="400" y="648" name="top_low_3"/>
  <outline>
    <contour>
      <point x="386" y="0" type="curve"/>
      <point x="425" y="0" type="line" smooth="yes"/>
      <point x="573" y="0"/>
      <point x="666" y="78"/>
      <point x="666" y="202" type="curve" smooth="yes"/>
      <point x="666" y="297"/>
      <point x="611" y="361"/>
      <point x="512" y="381" type="curve"/>
      <point x="512" y="383" type="line"/>
      <point x="577" y="409"/>
      <point x="614" y="466"/>
      <point x="614" y="539" type="curve" smooth="yes"/>
      <point x="614" y="645"/>
      <point x="535" y="708"/>
      <point x="403" y="708" type="curve" smooth="yes"/>
      <point x="386" y="708" type="line"/>
      <point x="360" y="708"/>
      <point x="301" y="705"/>
      <point x="258" y="705" type="curve"/>
      <point x="195" y="705"/>
      <point x="108" y="707"/>
      <point x="70" y="708" type="curve"/>
      <point x="70" y="638" type="line"/>
      <point x="125" y="633" type="line"/>
      <point x="196" y="627"/>
      <point x="211" y="608"/>
      <point x="211" y="552" type="curve"/>
      <point x="211" y="156" type="line"/>
      <point x="211" y="100"/>
      <point x="196" y="81"/>
      <point x="125" y="75" type="curve"/>
      <point x="70" y="70" type="line"/>
      <point x="70" y="0" type="line"/>
      <point x="108" y="1"/>
      <point x="195" y="3"/>
      <point x="258" y="3" type="curve"/>
      <point x="301" y="3"/>
      <point x="360" y="0"/>
    </contour>
    <contour>
      <point x="381" y="73" type="curve" smooth="yes"/>
      <point x="316" y="73"/>
      <point x="304" y="86"/>
      <point x="304" y="156" type="curve" smooth="yes"/>
      <point x="304" y="638" type="line"/>
      <point x="380" y="638" type="line" smooth="yes"/>
      <point x="475" y="638"/>
      <point x="518" y="603"/>
      <point x="518" y="526" type="curve" smooth="yes"/>
      <point x="518" y="444"/>
      <point x="468" y="402"/>
      <point x="371" y="402" type="curve" smooth="yes"/>
      <point x="285" y="402" type="line"/>
      <point x="285" y="333" type="line"/>
      <point x="388" y="333" type="line" smooth="yes"/>
      <point x="508" y="333"/>
      <point x="566" y="292"/>
      <point x="566" y="208" type="curve" smooth="yes"/>
      <point x="566" y="118"/>
      <point x="504" y="73"/>
    </contour>
  </outline>
</glyph>
<glyph name="C" format="2">
  <advance width="773"/>
  <unicode hex="0043"/>
  <anchor x="394" y="0" name="bottom"/>
  <anchor x="378" y="354" name="center"/>
  <anchor x="386" y="0" name="currency"/>
  <anchor x="182" y="354" name="middlestroke"/>
  <anchor x="370" y="708" name="top"/>
  <anchor x="370" y="688" name="top_low_1"/>
  <anchor x="370" y="668" name="top_low_2"/>
  <anchor x="370" y="648" name="top_low_3"/>
  <outline>
    <contour>
      <point x="369" y="-14" type="curve" smooth="yes"/>
      <point x="492" y="-14"/>
      <point x="537" y="59"/>
      <point x="566" y="59" type="curve" smooth="yes"/>
      <point x="579" y="59"/>
      <point x="586" y="41"/>
      <point x="590" y="-4" type="curve"/>
      <point x="663" y="-4" type="line"/>
      <point x="660" y="50"/>
      <point x="659" y="119"/>
      <point x="659" y="260" type="curve"/>
      <point x="586" y="260" type="line"/>
      <point x="570" y="139"/>
      <point x="485" y="54"/>
      <point x="382" y="54" type="curve" smooth="yes"/>
      <point x="260" y="54"/>
      <point x="183" y="171"/>
      <point x="183" y="355" type="curve" smooth="yes"/>
      <point x="183" y="539"/>
      <point x="260" y="654"/>
      <point x="383" y="654" type="curve" smooth="yes"/>
      <point x="488" y="654"/>
      <point x="568" y="573"/>
      <point x="586" y="448" type="curve"/>
      <point x="659" y="448" type="line"/>
      <point x="659" y="591"/>
      <point x="660" y="657"/>
      <point x="663" y="712" type="curve"/>
      <point x="590" y="712" type="line"/>
      <point x="586" y="669"/>
      <point x="578" y="648"/>
      <point x="566" y="648" type="curve" smooth="yes"/>
      <point x="542" y="648"/>
      <point x="500" y="722"/>
      <point x="378" y="722" type="curve" smooth="yes"/>
      <point x="203" y="722"/>
      <point x="83" y="569"/>
      <point x="83" y="346" type="curve" smooth="yes"/>
      <point x="83" y="129"/>
      <point x="196" y="-14"/>
    </contour>
  </outline>
</glyph>
<glyph name="D" format="2">
  <advance width="839"/>
  <unicode hex="0044"/>
  <anchor x="391" y="0" name="bottom"/>
  <anchor x="258" y="356" name="center"/>
  <anchor x="446" y="708" name="top"/>
  <anchor x="446" y="688" name="top_low_1"/>
  <anchor x="446" y="668" name="top_low_2"/>
  <anchor x="446" y="648" name="top_low_3"/>
  <outline>
    <contour>
      <point x="386" y="0" type="curve"/>
      <point x="394" y="0" type="line" smooth="yes"/>
      <point x="621" y="0"/>
      <point x="756" y="137"/>
      <point x="756" y="369" type="curve" smooth="yes"/>
      <point x="756" y="591"/>
      <point x="633" y="708"/>
      <point x="398" y="708" type="curve" smooth="yes"/>
      <point x="386" y="708" type="line"/>
      <point x="360" y="708"/>
      <point x="301" y="705"/>
      <point x="258" y="705" type="curve"/>
      <point x="195" y="705"/>
      <point x="108" y="707"/>
      <point x="70" y="708" type="curve"/>
      <point x="70" y="638" type="line"/>
      <point x="125" y="633" type="line"/>
      <point x="196" y="627"/>
      <point x="211" y="608"/>
      <point x="211" y="552" type="curve"/>
      <point x="211" y="156" type="line"/>
      <point x="211" y="100"/>
      <point x="196" y="81"/>
      <point x="125" y="75" type="curve"/>
      <point x="70" y="70" type="line"/>
      <point x="70" y="0" type="line"/>
      <point x="108" y="1"/>
      <point x="195" y="3"/>
      <point x="258" y="3" type="curve"/>
      <point x="301" y="3"/>
      <point x="360" y="0"/>
    </contour>
    <contour>
      <point x="383" y="68" type="curve" smooth="yes"/>
      <point x="316" y="68"/>
      <point x="304" y="81"/>
      <point x="304" y="154" type="curve" smooth="yes"/>
      <point x="304" y="640" type="line"/>
      <point x="384" y="640" type="line" smooth="yes"/>
      <point x="576" y="640"/>
      <point x="656" y="555"/>
      <point x="656" y="354" type="curve" smooth="yes"/>
      <point x="656" y="158"/>
      <point x="570" y="68"/>
    </contour>
  </outline>
</glyph>
<glyph name="E" format="2">
  <advance width="756"/>
  <unicode hex="0045"/>
  <anchor x="375" y="0" name="bottom"/>
  <anchor x="344" y="354" name="center"/>
  <anchor x="608" y="0" name="ogonek"/>
  <anchor x="343" y="708" name="top"/>
  <anchor x="343" y="688" name="top_low_1"/>
  <anchor x="343" y="668" name="top_low_2"/>
  <anchor x="343" y="648" name="top_low_3"/>
  <outline>
    <contour>
      <point x="246" y="3" type="curve"/>
      <point x="258" y="3" type="line"/>
      <point x="419" y="3" type="line"/>
      <point x="519" y="3"/>
      <point x="593" y="2"/>
      <point x="648" y="0" type="curve"/>
      <point x="649" y="92"/>
      <point x="654" y="174"/>
      <point x="664" y="250" type="curve"/>
      <point x="591" y="250" type="line"/>
      <point x="553" y="104"/>
      <point x="521" y="73"/>
      <point x="407" y="73" type="curve"/>
      <point x="385" y="73" type="line"/>
      <point x="318" y="73"/>
      <point x="303" y="88"/>
      <point x="303" y="154" type="curve"/>
      <point x="303" y="635" type="line"/>
      <point x="375" y="635" type="line"/>
      <point x="485" y="635"/>
      <point x="516" y="613"/>
      <point x="545" y="508" type="curve"/>
      <point x="618" y="508" type="line"/>
      <point x="612" y="569"/>
      <point x="609" y="634"/>
      <point x="608" y="708" type="curve"/>
      <point x="564" y="706"/>
      <point x="505" y="705"/>
      <point x="426" y="705" type="curve"/>
      <point x="258" y="705" type="line"/>
      <point x="246" y="705" type="line"/>
      <point x="186" y="705"/>
      <point x="106" y="707"/>
      <point x="70" y="708" type="curve"/>
      <point x="70" y="638" type="line"/>
      <point x="115" y="634" type="line"/>
      <point x="191" y="627"/>
      <point x="210" y="611"/>
      <point x="210" y="552" type="curve"/>
      <point x="210" y="156" type="line"/>
      <point x="210" y="97"/>
      <point x="191" y="81"/>
      <point x="115" y="74" type="curve"/>
      <point x="70" y="70" type="line"/>
      <point x="70" y="0" type="line"/>
      <point x="106" y="1"/>
      <point x="186" y="3"/>
    </contour>
    <contour>
      <point x="275" y="321" type="line"/>
      <point x="445" y="321" type="line"/>
      <point x="445" y="391" type="line"/>
      <point x="275" y="391" type="line"/>
    </contour>
    <contour>
      <point x="431" y="214" type="curve"/>
      <point x="501" y="214" type="line"/>
      <point x="496" y="290"/>
      <point x="496" y="323"/>
      <point x="496" y="356" type="curve" smooth="yes"/>
      <point x="496" y="389"/>
      <point x="496" y="422"/>
      <point x="501" y="498" type="curve"/>
      <point x="431" y="498" type="line"/>
      <point x="425" y="433"/>
      <point x="408" y="391"/>
      <point x="350" y="391" type="curve"/>
      <point x="350" y="321" type="line"/>
      <point x="408" y="321"/>
      <point x="425" y="279"/>
    </contour>
  </outline>
</glyph>
<glyph name="G" format="2">
  <advance width="702"/>
  <unicode hex="0047"/>
  <anchor x="376" y="0" name="bottom"/>
  <anchor x="350" y="708" name="top"/>
  <anchor x="350" y="688" name="top_low_1"/>
  <anchor x="350" y="668" name="top_low_2"/>
  <anchor x="350" y="648" name="top_low_3"/>
  <outline>
    <contour>
      <point x="348" y="-14" type="curve" smooth="yes"/>
      <point x="453" y="-14"/>
      <point x="499" y="37"/>
      <point x="523" y="37" type="curve" smooth="yes"/>
      <point x="536" y="37"/>
      <point x="542" y="28"/>
      <point x="547" y="0" type="curve"/>
      <point x="617" y="0" type="line"/>
      <point x="617" y="168" type="line" smooth="yes"/>
      <point x="617" y="235"/>
      <point x="633" y="251"/>
      <point x="698" y="254" type="curve"/>
      <point x="698" y="324" type="line"/>
      <point x="663" y="322"/>
      <point x="620" y="321"/>
      <point x="560" y="321" type="curve" smooth="yes"/>
      <point x="483" y="321"/>
      <point x="427" y="322"/>
      <point x="403" y="324" type="curve"/>
      <point x="403" y="254" type="line"/>
      <point x="497" y="252"/>
      <point x="524" y="240"/>
      <point x="524" y="200" type="curve" smooth="yes"/>
      <point x="524" y="174" type="line" smooth="yes"/>
      <point x="524" y="103"/>
      <point x="456" y="54"/>
      <point x="356" y="54" type="curve" smooth="yes"/>
      <point x="229" y="54"/>
      <point x="153" y="163"/>
      <point x="153" y="345" type="curve" smooth="yes"/>
      <point x="153" y="531"/>
      <point x="232" y="654"/>
      <point x="351" y="654" type="curve" smooth="yes"/>
      <point x="455" y="654"/>
      <point x="536" y="569"/>
      <point x="546" y="448" type="curve"/>
      <point x="619" y="448" type="line"/>
      <point x="619" y="592"/>
      <point x="620" y="657"/>
      <point x="623" y="708" type="curve"/>
      <point x="550" y="708" type="line"/>
      <point x="546" y="668"/>
      <point x="538" y="647"/>
      <point x="526" y="647" type="curve" smooth="yes"/>
      <point x="504" y="647"/>
      <point x="466" y="722"/>
      <point x="346" y="722" type="curve" smooth="yes"/>
      <point x="173" y="722"/>
      <point x="53" y="566"/>
      <point x="53" y="341" type="curve" smooth="yes"/>
      <point x="53" y="120"/>
      <point x="164" y="-14"/>
    </contour>
  </outline>
</glyph>
<glyph name="I" format="2">
  <advance width="513"/>
  <unicode hex="0049"/>
  <anchor x="69" y="0" name="#entry"/>
  <anchor x="444" y="0" name="^exit"/>
  <anchor x="257" y="0" name="bottom"/>
  <anchor x="257" y="354" name="center"/>
  <anchor x="390" y="0" name="ogonek"/>
  <anchor x="256" y="708" name="top"/>
  <anchor x="256" y="688" name="top_low_1"/>
  <anchor x="256" y="668" name="top_low_2"/>
  <anchor x="256" y="648" name="top_low_3"/>
  <outline>
    <contour>
      <point x="246" y="3" type="curve"/>
      <point x="257" y="3" type="line"/>
      <point x="267" y="3" type="line"/>
      <point x="327" y="3"/>
      <point x="407" y="1"/>
      <point x="443" y="0" type="curve"/>
      <point x="443" y="70" type="line"/>
      <point x="398" y="74" type="line"/>
      <point x="322" y="81"/>
      <point x="303" y="97"/>
      <point x="303" y="156" type="curve"/>
      <point x="303" y="552" type="line"/>
      <point x="303" y="611"/>
      <point x="322" y="627"/>
      <point x="398" y="634" type="curve"/>
      <point x="443" y="638" type="line"/>
      <point x="443" y="708" type="line"/>
      <point x="407" y="707"/>
      <point x="327" y="705"/>
      <point x="267" y="705" type="curve"/>
      <point x="257" y="705" type="line"/>
      <point x="246" y="705" type="line"/>
      <point x="186" y="705"/>
      <point x="106" y="707"/>
      <point x="70" y="708" type="curve"/>
      <point x="70" y="638" type="line"/>
      <point x="115" y="634" type="line"/>
      <point x="191" y="627"/>
      <point x="210" y="611"/>
      <point x="210" y="552" type="curve"/>
      <point x="210" y="156" type="line"/>
      <point x="210" y="97"/>
      <point x="191" y="81"/>
      <point x="115" y="74" type="curve"/>
      <point x="70" y="70" type="line"/>
      <point x="70" y="0" type="line"/>
      <point x="106" y="1"/>
      <point x="186" y="3"/>
    </contour>
  </outline>
</glyph>
<glyph name="K" format="2">
  <advance width="842"/>
  <unicode hex="004B"/>
  <anchor x="449" y="0" name="bottom"/>
  <anchor x="464" y="356" name="center"/>
  <anchor x="256" y="520" name="stroke"/>
  <anchor x="422" y="708" name="top"/>
  <anchor x="422" y="688" name="top_low_1"/>
  <anchor x="422" y="668" name="top_low_2"/>
  <anchor x="422" y="648" name="top_low_3"/>
  <outline>
    <contour>
      <point x="620" y="0" type="curve"/>
      <point x="661" y="2"/>
      <point x="682" y="3"/>
      <point x="706" y="3" type="curve" smooth="yes"/>
      <point x="735" y="3"/>
      <point x="756" y="2"/>
      <point x="813" y="0" type="curve"/>
      <point x="813" y="70" type="line"/>
      <point x="736" y="74"/>
      <point x="709" y="90"/>
      <point x="676" y="147" type="curve" smooth="yes"/>
      <point x="602" y="277" type="line" smooth="yes"/>
      <point x="559" y="353"/>
      <point x="528" y="377"/>
      <point x="459" y="391" type="curve"/>
      <point x="475" y="351" type="line"/>
      <point x="644" y="553" type="line" smooth="yes"/>
      <point x="693" y="611"/>
      <point x="725" y="629"/>
      <point x="792" y="638" type="curve"/>
      <point x="792" y="708" type="line"/>
      <point x="761" y="706"/>
      <point x="713" y="705"/>
      <point x="657" y="705" type="curve" smooth="yes"/>
      <point x="587" y="705"/>
      <point x="546" y="706"/>
      <point x="472" y="708" type="curve"/>
      <point x="472" y="638" type="line"/>
      <point x="569" y="636"/>
      <point x="595" y="604"/>
      <point x="554" y="555" type="curve" smooth="yes"/>
      <point x="463" y="446" type="line" smooth="yes"/>
      <point x="426" y="402"/>
      <point x="404" y="391"/>
      <point x="355" y="391" type="curve" smooth="yes"/>
      <point x="269" y="391" type="line"/>
      <point x="269" y="321" type="line"/>
      <point x="355" y="321" type="line" smooth="yes"/>
      <point x="450" y="321"/>
      <point x="483" y="304"/>
      <point x="524" y="231" type="curve" smooth="yes"/>
      <point x="593" y="108" type="line" smooth="yes"/>
      <point x="614" y="71"/>
      <point x="622" y="36"/>
    </contour>
    <contour>
      <point x="246" y="3" type="curve"/>
      <point x="256" y="3" type="line"/>
      <point x="267" y="3" type="line"/>
      <point x="327" y="3"/>
      <point x="407" y="1"/>
      <point x="443" y="0" type="curve"/>
      <point x="443" y="70" type="line"/>
      <point x="398" y="74" type="line"/>
      <point x="322" y="81"/>
      <point x="303" y="97"/>
      <point x="303" y="156" type="curve"/>
      <point x="303" y="708" type="line"/>
      <point x="287" y="706"/>
      <point x="272" y="705"/>
      <point x="256" y="705" type="curve"/>
      <point x="246" y="705" type="line"/>
      <point x="186" y="705"/>
      <point x="106" y="707"/>
      <point x="70" y="708" type="curve"/>
      <point x="70" y="638" type="line"/>
      <point x="115" y="634" type="line"/>
      <point x="191" y="627"/>
      <point x="210" y="611"/>
      <point x="210" y="552" type="curve"/>
      <point x="210" y="156" type="line"/>
      <point x="210" y="97"/>
      <point x="191" y="81"/>
      <point x="115" y="74" type="curve"/>
      <point x="70" y="70" type="line"/>
      <point x="70" y="0" type="line"/>
      <point x="106" y="1"/>
      <point x="186" y="3"/>
    </contour>
  </outline>
</glyph>
<glyph name="M" format="2">
  <advance width="1046"/>
  <unicode hex="004D"/>
  <anchor x="524" y="0" name="bottom"/>
  <anchor x="524" y="708" name="top"/>
  <anchor x="524" y="688" name="top_low_1"/>
  <anchor x="524" y="668" name="top_low_2"/>
  <anchor x="524" y="648" name="top_low_3"/>
  <outline>
    <contour>
      <point x="486" y="0" type="line"/>
      <point x="552" y="0" type="line"/>
      <point x="712" y="625" type="line"/>
      <point x="743" y="625" type="line"/>
      <point x="743" y="156" type="line"/>
      <point x="743" y="97"/>
      <point x="731" y="82"/>
      <point x="680" y="73" type="curve"/>
      <point x="659" y="70" type="line"/>
      <point x="659" y="0" type="line"/>
      <point x="685" y="1"/>
      <point x="745" y="3"/>
      <point x="788" y="3" type="curve"/>
      <point x="790" y="3" type="line"/>
      <point x="800" y="3" type="line"/>
      <point x="860" y="3"/>
      <point x="940" y="1"/>
      <point x="976" y="0" type="curve"/>
      <point x="976" y="70" type="line"/>
      <point x="931" y="74" type="line"/>
      <point x="855" y="81"/>
      <point x="836" y="97"/>
      <point x="836" y="156" type="curve"/>
      <point x="836" y="552" type="line"/>
      <point x="836" y="611"/>
      <point x="855" y="627"/>
      <point x="931" y="634" type="curve"/>
      <point x="976" y="638" type="line"/>
      <point x="976" y="708" type="line"/>
      <point x="940" y="707"/>
      <point x="860" y="705"/>
      <point x="800" y="705" type="curve"/>
      <point x="789" y="705" type="line"/>
      <point x="750" y="705"/>
      <point x="715" y="705"/>
      <point x="661" y="708" type="curve"/>
      <point x="501" y="85" type="line"/>
      <point x="556" y="86" type="line"/>
      <point x="387" y="708" type="line"/>
      <point x="362" y="706"/>
      <point x="317" y="705"/>
      <point x="263" y="705" type="curve"/>
      <point x="247" y="705" type="line"/>
      <point x="187" y="705"/>
      <point x="107" y="707"/>
      <point x="71" y="708" type="curve"/>
      <point x="71" y="638" type="line"/>
      <point x="116" y="634" type="line"/>
      <point x="192" y="627"/>
      <point x="211" y="611"/>
      <point x="211" y="552" type="curve"/>
      <point x="211" y="156" type="line"/>
      <point x="211" y="100"/>
      <point x="196" y="81"/>
      <point x="125" y="75" type="curve"/>
      <point x="70" y="70" type="line"/>
      <point x="70" y="0" type="line"/>
      <point x="106" y="1"/>
      <point x="188" y="3"/>
      <point x="248" y="3" type="curve"/>
      <point x="291" y="3"/>
      <point x="349" y="1"/>
      <point x="375" y="0" type="curve"/>
      <point x="375" y="70" type="line"/>
      <point x="350" y="72" type="line"/>
      <point x="291" y="77"/>
      <point x="284" y="100"/>
      <point x="284" y="156" type="curve"/>
      <point x="284" y="628" type="line"/>
      <point x="315" y="628" type="line"/>
    </contour>
  </outline>
</glyph>
<glyph name="O" format="2">
  <advance width="801"/>
  <unicode hex="004F"/>
  <anchor x="402" y="0" name="bottom"/>
  <anchor x="401" y="354" name="center"/>
  <anchor x="503" y="0" name="ogonek"/>
  <anchor x="400" y="708" name="top"/>
  <anchor x="400" y="688" name="top_low_1"/>
  <anchor x="400" y="668" name="top_low_2"/>
  <anchor x="400" y="648" name="top_low_3"/>
  <anchor x="50" y="708" name="topleft"/>
  <anchor x="751" y="708" name="topright"/>
  <outline>
    <contour>
      <point x="400" y="-14" type="curve" smooth="yes"/>
      <point x="586" y="-14"/>
      <point x="718" y="136"/>
      <point x="718" y="360" type="curve" smooth="yes"/>
      <point x="718" y="589"/>
      <point x="591" y="722"/>
      <point x="401" y="722" type="curve" smooth="yes"/>
      <point x="215" y="722"/>
      <point x="83" y="572"/>
      <point x="83" y="348" type="curve" smooth="yes"/>
      <point x="83" y="119"/>
      <point x="210" y="-14"/>
    </contour>
    <contour>
      <point x="404" y="54" type="curve" smooth="yes"/>
      <point x="281" y="54"/>
      <point x="183" y="170"/>
      <point x="183" y="352" type="curve" smooth="yes"/>
      <point x="183" y="530"/>
      <point x="267" y="654"/>
      <point x="397" y="654" type="curve" smooth="yes"/>
      <point x="520" y="654"/>
      <point x="618" y="538"/>
      <point x="618" y="356" type="curve" smooth="yes"/>
      <point x="618" y="178"/>
      <point x="534" y="54"/>
    </contour>
  </outline>
</glyph>
<glyph name="R" format="2">
  <advance width="745"/>
  <unicode hex="0052"/>
  <anchor x="210" y="0" name="baseline_left"/>
  <anchor x="424" y="0" name="bottom"/>
  <anchor x="257" y="346" name="center"/>
  <anchor x="210" y="180" name="stem"/>
  <anchor x="383" y="708" name="top"/>
  <outline>
    <contour>
      <point x="210" y="180" type="line"/>
      <point x="303" y="180" type="line"/>
      <point x="303" y="638" type="line"/>
      <point x="377" y="638" type="line" smooth="yes"/>
      <point x="490" y="638"/>
      <point x="543" y="597"/>
      <point x="543" y="510" type="curve" smooth="yes"/>
      <point x="543" y="422"/>
      <point x="492" y="381"/>
      <point x="380" y="381" type="curve" smooth="yes"/>
      <point x="264" y="381" type="line"/>
      <point x="264" y="326" type="line"/>
      <point x="380" y="326" type="line" smooth="yes"/>
      <point x="536" y="326"/>
      <point x="643" y="405"/>
      <point x="643" y="521" type="curve" smooth="yes"/>
      <point x="643" y="637"/>
      <point x="551" y="708"/>
      <point x="402" y="708" type="curve" smooth="yes"/>
      <point x="379" y="708"/>
      <point x="317" y="705"/>
      <point x="256" y="705" type="curve"/>
      <point x="246" y="705" type="line"/>
      <point x="186" y="705"/>
      <point x="106" y="707"/>
      <point x="70" y="708" type="curve"/>
      <point x="70" y="638" type="line"/>
      <point x="115" y="634" type="line"/>
      <point x="191" y="627"/>
      <point x="210" y="611"/>
      <point x="210" y="552" type="curve"/>
    </contour>
    <contour>
      <point x="640" y="-14" type="curve" smooth="yes"/>
      <point x="685" y="-14"/>
      <point x="721" y="7"/>
      <point x="747" y="50" type="curve"/>
      <point x="708" y="94" type="line"/>
      <point x="691" y="78"/>
      <point x="681" y="73"/>
      <point x="666" y="73" type="curve" smooth="yes"/>
      <point x="643" y="73"/>
      <point x="628" y="90"/>
      <point x="620" y="126" type="curve" smooth="yes"/>
      <point x="608" y="182" type="line" smooth="yes"/>
      <point x="578" y="322"/>
      <point x="529" y="358"/>
      <point x="369" y="358" type="curve" smooth="yes"/>
      <point x="260" y="358" type="line"/>
      <point x="260" y="311" type="line"/>
      <point x="388" y="311" type="line" smooth="yes"/>
      <point x="457" y="311"/>
      <point x="494" y="277"/>
      <point x="511" y="196" type="curve" smooth="yes"/>
      <point x="533" y="94" type="line" smooth="yes"/>
      <point x="549" y="19"/>
      <point x="582" y="-14"/>
    </contour>
    <contour>
      <point x="246" y="3" type="curve"/>
      <point x="257" y="3" type="line"/>
      <point x="256" y="3" type="line"/>
      <point x="295" y="3"/>
      <point x="349" y="1"/>
      <point x="373" y="0" type="curve"/>
      <point x="373" y="70" type="line"/>
      <point x="358" y="73" type="line"/>
      <point x="313" y="82"/>
      <point x="303" y="97"/>
      <point x="303" y="156" type="curve"/>
      <point x="303" y="180" type="line"/>
      <point x="210" y="180" type="line"/>
      <point x="210" y="156" type="line"/>
      <point x="210" y="97"/>
      <point x="191" y="81"/>
      <point x="115" y="74" type="curve"/>
      <point x="70" y="70" type="line"/>
      <point x="70" y="0" type="line"/>
      <point x="106" y="1"/>
      <point x="186" y="3"/>
    </contour>
  </outline>
</glyph>
<glyph name="S" format="2">
  <advance width="633"/>
  <unicode hex="0053"/>
  <anchor x="342" y="0" name="bottom"/>
  <anchor x="316" y="354" name="center"/>
  <anchor x="319" y="0" name="currency"/>
  <anchor x="326" y="708" name="top"/>
  <anchor x="326" y="688" name="top_low_1"/>
  <anchor x="326" y="668" name="top_low_2"/>
  <anchor x="326" y="648" name="top_low_3"/>
  <outline>
    <contour>
      <point x="348" y="-14" type="curve" smooth="yes"/>
      <point x="482" y="-14"/>
      <point x="573" y="68"/>
      <point x="573" y="187" type="curve" smooth="yes"/>
      <point x="573" y="297"/>
      <point x="494" y="373"/>
      <point x="352" y="401" type="curve" smooth="yes"/>
      <point x="228" y="425"/>
      <point x="172" y="469"/>
      <point x="172" y="543" type="curve" smooth="yes"/>
      <point x="172" y="611"/>
      <point x="217" y="653"/>
      <point x="291" y="653" type="curve" smooth="yes"/>
      <point x="386" y="653"/>
      <point x="460" y="584"/>
      <point x="465" y="491" type="curve"/>
      <point x="538" y="491" type="line"/>
      <point x="538" y="627"/>
      <point x="539" y="671"/>
      <point x="543" y="712" type="curve"/>
      <point x="470" y="712" type="line"/>
      <point x="466" y="684"/>
      <point x="458" y="671"/>
      <point x="446" y="671" type="curve" smooth="yes"/>
      <point x="423" y="671"/>
      <point x="369" y="722"/>
      <point x="272" y="722" type="curve" smooth="yes"/>
      <point x="153" y="722"/>
      <point x="72" y="645"/>
      <point x="72" y="530" type="curve" smooth="yes"/>
      <point x="72" y="422"/>
      <point x="145" y="351"/>
      <point x="285" y="323" type="curve" smooth="yes"/>
      <point x="412" y="297"/>
      <point x="468" y="253"/>
      <point x="468" y="179" type="curve" smooth="yes"/>
      <point x="468" y="104"/>
      <point x="414" y="56"/>
      <point x="330" y="56" type="curve" smooth="yes"/>
      <point x="219" y="56"/>
      <point x="138" y="137"/>
      <point x="133" y="253" type="curve"/>
      <point x="60" y="253" type="line"/>
      <point x="60" y="102"/>
      <point x="59" y="38"/>
      <point x="56" y="-4" type="curve"/>
      <point x="129" y="-4" type="line"/>
      <point x="132" y="22"/>
      <point x="140" y="37"/>
      <point x="152" y="37" type="curve" smooth="yes"/>
      <point x="173" y="37"/>
      <point x="243" y="-14"/>
    </contour>
  </outline>
</glyph>
<glyph name="T" format="2">
  <advance width="621"/>
  <unicode hex="0054"/>
  <anchor x="357" y="0" name="#exit"/>
  <anchor x="357" y="0" name="%exit"/>
  <anchor x="311" y="0" name="bottom"/>
  <anchor x="311" y="354" name="center"/>
  <anchor x="311" y="285" name="center_lowered"/>
  <outline>
    <contour>
      <point x="308" y="3" type="curve"/>
      <point x="310" y="3" type="line"/>
      <point x="313" y="3" type="line"/>
      <point x="385" y="3"/>
      <point x="477" y="1"/>
      <point x="525" y="0" type="curve"/>
      <point x="525" y="70" type="line"/>
      <point x="443" y="77" type="line"/>
      <point x="373" y="83"/>
      <point x="357" y="97"/>
      <point x="357" y="156" type="curve"/>
      <point x="357" y="250" type="line"/>
      <point x="264" y="250" type="line"/>
      <point x="264" y="156" type="line"/>
      <point x="264" y="97"/>
      <point x="248" y="83"/>
      <point x="178" y="77" type="curve"/>
      <point x="96" y="70" type="line"/>
      <point x="96" y="0" type="line"/>
      <point x="144" y="1"/>
      <point x="236" y="3"/>
    </contour>
    <component base="_UC-T-upper"/>
  </outline>
</glyph>
<glyph name="V" format="2">
  <advance width="803"/>
  <unicode hex="0056"/>
  <anchor x="411" y="0" name="bottom"/>
  <anchor x="411" y="708" name="top"/>
  <anchor x="411" y="688" name="top_low_1"/>
  <anchor x="411" y="668" name="top_low_2"/>
  <anchor x="411" y="648" name="top_low_3"/>
  <outline>
    <contour>
      <point x="378" y="0" type="line"/>
      <point x="444" y="0" type="line"/>
      <point x="639" y="509" type="line"/>
      <point x="674" y="603"/>
      <point x="703" y="628"/>
      <point x="783" y="636" type="curve"/>
      <point x="802" y="638" type="line"/>
      <point x="802" y="708" type="line"/>
      <point x="755" y="706"/>
      <point x="701" y="705"/>
      <point x="647" y="705" type="curve"/>
      <point x="594" y="705"/>
      <point x="532" y="706"/>
      <point x="469" y="708" type="curve"/>
      <point x="469" y="638" type="line"/>
      <point x="496" y="635" type="line"/>
      <point x="571" y="627"/>
      <point x="590" y="585"/>
      <point x="558" y="499" type="curve"/>
      <point x="407" y="99" type="line"/>
      <point x="434" y="114" type="line"/>
      <point x="267" y="551" type="line"/>
      <point x="246" y="607"/>
      <point x="264" y="627"/>
      <point x="335" y="633" type="curve"/>
      <point x="390" y="638" type="line"/>
      <point x="390" y="708" type="line"/>
      <point x="343" y="707"/>
      <point x="236" y="705"/>
      <point x="159" y="705" type="curve"/>
      <point x="158" y="705" type="line"/>
      <point x="158" y="705" type="line"/>
      <point x="127" y="705"/>
      <point x="80" y="706"/>
      <point x="33" y="708" type="curve"/>
      <point x="33" y="638" type="line"/>
      <point x="87" y="633" type="line"/>
      <point x="132" y="629"/>
      <point x="145" y="612"/>
      <point x="169" y="550" type="curve"/>
    </contour>
  </outline>
</glyph>
<glyph name="W" format="2">
  <advance width="1087"/>
  <unicode hex="0057"/>
  <anchor x="558" y="0" name="bottom"/>
  <anchor x="559" y="356" name="currency"/>
  <anchor x="563" y="708" name="top"/>
  <anchor x="563" y="688" name="top_low_1"/>
  <anchor x="563" y="668" name="top_low_2"/>
  <anchor x="563" y="648" name="top_low_3"/>
  <outline>
    <contour>
      <point x="697" y="0" type="line"/>
      <point x="763" y="0" type="line"/>
      <point x="922" y="504" type="line"/>
      <point x="952" y="601"/>
      <point x="974" y="628"/>
      <point x="1054" y="636" type="curve"/>
      <point x="1073" y="638" type="line"/>
      <point x="1073" y="708" type="line"/>
      <point x="1026" y="706"/>
      <point x="972" y="705"/>
      <point x="918" y="705" type="curve"/>
      <point x="865" y="705"/>
      <point x="803" y="706"/>
      <point x="740" y="708" type="curve"/>
      <point x="740" y="638" type="line"/>
      <point x="767" y="635" type="line"/>
      <point x="842" y="627"/>
      <point x="868" y="582"/>
      <point x="841" y="495" type="curve"/>
      <point x="732" y="136" type="line"/>
      <point x="751" y="128" type="line"/>
      <point x="612" y="549" type="line"/>
      <point x="594" y="606"/>
      <point x="608" y="630"/>
      <point x="657" y="636" type="curve"/>
      <point x="672" y="638" type="line"/>
      <point x="672" y="708" type="line"/>
      <point x="639" y="707"/>
      <point x="565" y="705"/>
      <point x="511" y="705" type="curve"/>
      <point x="513" y="705" type="line"/>
      <point x="515" y="705" type="line"/>
      <point x="483" y="705"/>
      <point x="437" y="706"/>
      <point x="401" y="708" type="curve"/>
      <point x="401" y="638" type="line"/>
      <point x="442" y="634" type="line"/>
      <point x="487" y="630"/>
      <point x="498" y="610"/>
      <point x="518" y="548" type="curve"/>
    </contour>
    <contour>
      <point x="348" y="0" type="line"/>
      <point x="414" y="0" type="line"/>
      <point x="575" y="499" type="line"/>
      <point x="535" y="603" type="line"/>
      <point x="376" y="111" type="line"/>
      <point x="409" y="106" type="line"/>
      <point x="263" y="549" type="line"/>
      <point x="245" y="606"/>
      <point x="259" y="630"/>
      <point x="308" y="636" type="curve"/>
      <point x="323" y="638" type="line"/>
      <point x="323" y="708" type="line"/>
      <point x="290" y="707"/>
      <point x="216" y="705"/>
      <point x="162" y="705" type="curve"/>
      <point x="163" y="705" type="line"/>
      <point x="164" y="705" type="line"/>
      <point x="133" y="705"/>
      <point x="86" y="706"/>
      <point x="39" y="708" type="curve"/>
      <point x="39" y="638" type="line"/>
      <point x="93" y="633" type="line"/>
      <point x="138" y="629"/>
      <point x="147" y="610"/>
      <point x="168" y="548" type="curve"/>
    </contour>
  </outline>
</glyph>
<glyph name="X" format="2">
  <advance width="804"/>
  <unicode hex="0058"/>
  <anchor x="397" y="0" name="bottom"/>
  <anchor x="776" y="0" name="bottomright"/>
  <anchor x="397" y="708" name="top"/>
  <anchor x="397" y="688" name="top_low_1"/>
  <anchor x="397" y="668" name="top_low_2"/>
  <anchor x="397" y="648" name="top_low_3"/>
  <outline>
    <contour>
      <point x="662" y="3" type="curve"/>
      <point x="671" y="3" type="line"/>
      <point x="680" y="3" type="line"/>
      <point x="711" y="3"/>
      <point x="758" y="2"/>
      <point x="805" y="1" type="curve"/>
      <point x="804" y="71" type="line"/>
      <point x="750" y="75" type="line"/>
      <point x="705" y="79"/>
      <point x="667" y="82"/>
      <point x="628" y="135" type="curve"/>
      <point x="299" y="573" type="line"/>
      <point x="263" y="622"/>
      <point x="255" y="627"/>
      <point x="326" y="633" type="curve"/>
      <point x="381" y="638" type="line"/>
      <point x="381" y="708" type="line"/>
      <point x="334" y="707"/>
      <point x="227" y="705"/>
      <point x="150" y="705" type="curve"/>
      <point x="141" y="705" type="line"/>
      <point x="132" y="705" type="line"/>
      <point x="101" y="705"/>
      <point x="54" y="706"/>
      <point x="7" y="707" type="curve"/>
      <point x="8" y="637" type="line"/>
      <point x="62" y="633" type="line"/>
      <point x="107" y="629"/>
      <point x="145" y="626"/>
      <point x="184" y="573" type="curve"/>
      <point x="513" y="135" type="line"/>
      <point x="549" y="86"/>
      <point x="557" y="81"/>
      <point x="486" y="75" type="curve"/>
      <point x="431" y="70" type="line"/>
      <point x="431" y="0" type="line"/>
      <point x="478" y="1"/>
      <point x="585" y="3"/>
    </contour>
    <contour>
      <point x="288" y="180" type="curve"/>
      <point x="414" y="334" type="line"/>
      <point x="364" y="383" type="line"/>
      <point x="206" y="171" type="line"/>
      <point x="146" y="90"/>
      <point x="90" y="80"/>
      <point x="10" y="72" type="curve"/>
      <point x="-9" y="70" type="line"/>
      <point x="-9" y="0" type="line"/>
      <point x="38" y="2"/>
      <point x="92" y="3"/>
      <point x="146" y="3" type="curve"/>
      <point x="199" y="3"/>
      <point x="261" y="2"/>
      <point x="324" y="0" type="curve"/>
      <point x="324" y="70" type="line"/>
      <point x="297" y="73" type="line"/>
      <point x="222" y="81"/>
      <point x="234" y="105"/>
    </contour>
    <contour>
      <point x="437" y="346" type="line"/>
      <point x="575" y="536" type="line"/>
      <point x="634" y="617"/>
      <point x="689" y="628"/>
      <point x="769" y="636" type="curve"/>
      <point x="788" y="638" type="line"/>
      <point x="788" y="708" type="line"/>
      <point x="741" y="706"/>
      <point x="687" y="705"/>
      <point x="633" y="705" type="curve"/>
      <point x="580" y="705"/>
      <point x="518" y="706"/>
      <point x="455" y="708" type="curve"/>
      <point x="455" y="638" type="line"/>
      <point x="482" y="635" type="line"/>
      <point x="557" y="627"/>
      <point x="545" y="602"/>
      <point x="492" y="527" type="curve"/>
      <point x="380" y="387" type="line"/>
    </contour>
  </outline>
</glyph>
<glyph name="Y" format="2">
  <advance width="818"/>
  <unicode hex="0059"/>
  <anchor x="422" y="0" name="bottom"/>
  <anchor x="423" y="255" name="center"/>
  <anchor x="421" y="708" name="top"/>
  <anchor x="421" y="688" name="top_low_1"/>
  <anchor x="421" y="668" name="top_low_2"/>
  <anchor x="421" y="648" name="top_low_3"/>
  <outline>
    <contour>
      <point x="407" y="199" type="line"/>
      <point x="439" y="199" type="line"/>
      <point x="610" y="520" type="line"/>
      <point x="654" y="609"/>
      <point x="694" y="627"/>
      <point x="765" y="636" type="curve"/>
      <point x="782" y="638" type="line"/>
      <point x="782" y="708" type="line"/>
      <point x="739" y="706"/>
      <point x="689" y="705"/>
      <point x="639" y="705" type="curve"/>
      <point x="591" y="705"/>
      <point x="534" y="706"/>
      <point x="477" y="708" type="curve"/>
      <point x="477" y="638" type="line"/>
      <point x="504" y="635" type="line"/>
      <point x="569" y="628"/>
      <point x="575" y="599"/>
      <point x="528" y="511" type="curve"/>
      <point x="405" y="284" type="line"/>
      <point x="454" y="300" type="line"/>
      <point x="293" y="564" type="line"/>
      <point x="262" y="616"/>
      <point x="261" y="627"/>
      <point x="332" y="632" type="curve"/>
      <point x="388" y="637" type="line"/>
      <point x="388" y="707" type="line"/>
      <point x="341" y="706"/>
      <point x="234" y="705"/>
      <point x="157" y="705" type="curve"/>
      <point x="151" y="705" type="line"/>
      <point x="145" y="705" type="line"/>
      <point x="114" y="705"/>
      <point x="67" y="706"/>
      <point x="25" y="708" type="curve"/>
      <point x="26" y="638" type="line"/>
      <point x="74" y="633" type="line"/>
      <point x="119" y="630"/>
      <point x="150" y="620"/>
      <point x="184" y="564" type="curve"/>
    </contour>
    <contour>
      <point x="420" y="3" type="curve"/>
      <point x="422" y="3" type="line"/>
      <point x="425" y="3" type="line"/>
      <point x="497" y="3"/>
      <point x="589" y="1"/>
      <point x="637" y="0" type="curve"/>
      <point x="637" y="70" type="line"/>
      <point x="555" y="77" type="line"/>
      <point x="485" y="83"/>
      <point x="469" y="97"/>
      <point x="469" y="156" type="curve"/>
      <point x="469" y="304" type="line"/>
      <point x="430" y="249" type="line"/>
      <point x="376" y="311" type="line"/>
      <point x="376" y="156" type="line"/>
      <point x="376" y="97"/>
      <point x="360" y="83"/>
      <point x="290" y="77" type="curve"/>
      <point x="208" y="70" type="line"/>
      <point x="208" y="0" type="line"/>
      <point x="256" y="1"/>
      <point x="348" y="3"/>
    </contour>
  </outline>
</glyph>
<glyph name="Z" format="2">
  <advance width="634"/>
  <unicode hex="005A"/>
  <anchor x="299" y="0" name="bottom"/>
  <anchor x="297" y="354" name="center"/>
  <anchor x="295" y="708" name="top"/>
  <anchor x="295" y="688" name="top_low_1"/>
  <anchor x="295" y="668" name="top_low_2"/>
  <anchor x="295" y="648" name="top_low_3"/>
  <outline>
    <contour>
      <point x="42" y="0" type="line"/>
      <point x="112" y="3"/>
      <point x="196" y="3"/>
      <point x="269" y="3" type="curve" smooth="yes"/>
      <point x="309" y="3" type="line"/>
      <point x="409" y="3"/>
      <point x="483" y="2"/>
      <point x="538" y="0" type="curve"/>
      <point x="539" y="92"/>
      <point x="544" y="174"/>
      <point x="554" y="250" type="curve"/>
      <point x="481" y="250" type="line"/>
      <point x="443" y="104"/>
      <point x="411" y="73"/>
      <point x="297" y="73" type="curve"/>
      <point x="153" y="73" type="line"/>
      <point x="545" y="638" type="line"/>
      <point x="545" y="708" type="line"/>
      <point x="484" y="705"/>
      <point x="405" y="705"/>
      <point x="342" y="705" type="curve" smooth="yes"/>
      <point x="228" y="705" type="line"/>
      <point x="159" y="705"/>
      <point x="108" y="706"/>
      <point x="70" y="708" type="curve"/>
      <point x="69" y="634"/>
      <point x="66" y="569"/>
      <point x="60" y="508" type="curve"/>
      <point x="133" y="508" type="line"/>
      <point x="170" y="613"/>
      <point x="201" y="635"/>
      <point x="311" y="635" type="curve"/>
      <point x="434" y="635" type="line"/>
      <point x="42" y="70" type="line"/>
    </contour>
  </outline>
</glyph>
<glyph name="bracketleft" format="2">
  <advance width="298"/>
  <unicode hex="005B"/>
  <outline>
    <contour>
      <point x="92" y="-181" type="line"/>
      <point x="263" y="-181" type="line"/>
      <point x="263" y="-112" type="line"/>
      <point x="182" y="-112" type="line"/>
      <point x="182" y="703" type="line"/>
      <point x="263" y="703" type="line"/>
      <point x="263" y="772" type="line"/>
      <point x="92" y="772" type="line"/>
    </contour>
  </outline>
</glyph>
<glyph name="asciicircum" format="2">
  <advance width="536"/>
  <unicode hex="005E"/>
  <outline>
    <contour>
      <point x="100" y="299" type="line"/>
      <point x="269" y="408" type="line"/>
      <point x="450" y="300" type="line"/>
      <point x="485" y="358" type="line"/>
      <point x="305" y="514" type="line"/>
      <point x="247" y="514" type="line"/>
      <point x="67" y="348" type="line"/>
    </contour>
  </outline>
</glyph>
<glyph name="a" format="2">
  <advance width="623"/>
  <unicode hex="0061"/>
  <anchor x="-165" y="256" name="#entry"/>
  <anchor x="310" y="0" name="bottom"/>
  <anchor x="289" y="257" name="center"/>
  <anchor x="528" y="0" name="ogonek"/>
  <anchor x="289" y="512" name="top"/>
  <anchor x="289" y="492" name="top_low_1"/>
  <anchor x="289" y="472" name="top_low_2"/>
  <anchor x="289" y="452" name="top_low_3"/>
  <outline>
    <contour>
      <point x="471" y="116" type="curve"/>
      <point x="471" y="351" type="line" smooth="yes"/>
      <point x="471" y="474"/>
      <point x="417" y="529"/>
      <point x="295" y="529" type="curve" smooth="yes"/>
      <point x="176" y="529"/>
      <point x="93" y="475"/>
      <point x="93" y="396" type="curve" smooth="yes"/>
      <point x="93" y="352"/>
      <point x="119" y="323"/>
      <point x="158" y="323" type="curve" smooth="yes"/>
      <point x="188" y="323"/>
      <point x="208" y="340"/>
      <point x="208" y="367" type="curve" smooth="yes"/>
      <point x="208" y="393"/>
      <point x="188" y="411"/>
      <point x="188" y="427" type="curve" smooth="yes"/>
      <point x="188" y="446"/>
      <point x="222" y="459"/>
      <point x="272" y="459" type="curve" smooth="yes"/>
      <point x="345" y="459"/>
      <point x="381" y="432"/>
      <point x="381" y="378" type="curve" smooth="yes"/>
      <point x="381" y="81" type="line"/>
      <point x="381" y="15"/>
      <point x="410" y="-14"/>
      <point x="476" y="-14" type="curve"/>
      <point x="528" y="-14"/>
      <point x="570" y="4"/>
      <point x="608" y="43" type="curve"/>
      <point x="573" y="100" type="line"/>
      <point x="549" y="80"/>
      <point x="525" y="69"/>
      <point x="504" y="69" type="curve"/>
      <point x="481" y="69"/>
      <point x="471" y="83"/>
    </contour>
    <contour>
      <point x="231" y="-14" type="curve" smooth="yes"/>
      <point x="303" y="-14"/>
      <point x="356" y="22"/>
      <point x="394" y="98" type="curve"/>
      <point x="395" y="173" type="line"/>
      <point x="353" y="106"/>
      <point x="301" y="69"/>
      <point x="249" y="69" type="curve" smooth="yes"/>
      <point x="205" y="69"/>
      <point x="177" y="95"/>
      <point x="177" y="135" type="curve" smooth="yes"/>
      <point x="177" y="239"/>
      <point x="361" y="222"/>
      <point x="388" y="270" type="curve"/>
      <point x="382" y="351" type="line"/>
      <point x="381" y="266"/>
      <point x="80" y="318"/>
      <point x="80" y="127" type="curve" smooth="yes"/>
      <point x="80" y="42"/>
      <point x="140" y="-14"/>
    </contour>
  </outline>
</glyph>
<glyph name="b" format="2">
  <advance width="692"/>
  <unicode hex="0062"/>
  <anchor x="266" y="256" name="#entry"/>
  <anchor x="266" y="256" name="#exit"/>
  <anchor x="348" y="0" name="bottom"/>
  <anchor x="381" y="255" name="center"/>
  <anchor x="348" y="773" name="top"/>
  <anchor x="176" y="512" name="top-left"/>
  <outline>
    <contour>
      <point x="419" y="526" type="curve" smooth="yes"/>
      <point x="324" y="526"/>
      <point x="252" y="465"/>
      <point x="238" y="375" type="curve"/>
      <point x="259" y="336" type="line"/>
      <point x="273" y="402"/>
      <point x="326" y="446"/>
      <point x="392" y="446" type="curve" smooth="yes"/>
      <point x="473" y="446"/>
      <point x="515" y="382"/>
      <point x="515" y="258" type="curve" smooth="yes"/>
      <point x="515" y="127"/>
      <point x="465" y="56"/>
      <point x="375" y="56" type="curve" smooth="yes"/>
      <point x="322" y="56"/>
      <point x="282" y="85"/>
      <point x="265" y="136" type="curve"/>
      <point x="242" y="66" type="line"/>
      <point x="270" y="12"/>
      <point x="321" y="-17"/>
      <point x="389" y="-17" type="curve" smooth="yes"/>
      <point x="525" y="-17"/>
      <point x="612" y="92"/>
      <point x="612" y="264" type="curve" smooth="yes"/>
      <point x="612" y="422"/>
      <point x="535" y="526"/>
    </contour>
    <component base="_LC-ascender-left-inserif"/>
    <component base="_LC-baseline-left-instroke" xOffset="8"/>
  </outline>
</glyph>
<glyph name="c" format="2">
  <advance width="566"/>
  <unicode hex="0063"/>
  <anchor x="302" y="0" name="bottom"/>
  <anchor x="299" y="257" name="center"/>
  <anchor x="303" y="0" name="currency"/>
  <anchor x="414" y="514" name="hook"/>
  <anchor x="297" y="512" name="top"/>
  <outline>
    <contour>
      <point x="306" y="-14" type="curve" smooth="yes"/>
      <point x="407" y="-14"/>
      <point x="485" y="38"/>
      <point x="514" y="125" type="curve"/>
      <point x="448" y="158" type="line"/>
      <point x="418" y="98"/>
      <point x="376" y="71"/>
      <point x="317" y="71" type="curve" smooth="yes"/>
      <point x="224" y="71"/>
      <point x="177" y="137"/>
      <point x="177" y="266" type="curve" smooth="yes"/>
      <point x="177" y="397"/>
      <point x="226" y="461"/>
      <point x="328" y="461" type="curve" smooth="yes"/>
      <point x="368" y="461"/>
      <point x="393" y="451"/>
      <point x="393" y="434" type="curve" smooth="yes"/>
      <point x="393" y="415"/>
      <point x="363" y="396"/>
      <point x="363" y="360" type="curve" smooth="yes"/>
      <point x="363" y="326"/>
      <point x="389" y="302"/>
      <point x="428" y="302" type="curve" smooth="yes"/>
      <point x="475" y="302"/>
      <point x="508" y="337"/>
      <point x="508" y="389" type="curve" smooth="yes"/>
      <point x="508" y="471"/>
      <point x="426" y="529"/>
      <point x="310" y="529" type="curve" smooth="yes"/>
      <point x="163" y="529"/>
      <point x="80" y="431"/>
      <point x="80" y="258" type="curve" smooth="yes"/>
      <point x="80" y="86"/>
      <point x="163" y="-14"/>
    </contour>
  </outline>
</glyph>
<glyph name="d" format="2">
  <advance width="682"/>
  <unicode hex="0064"/>
  <anchor x="426" y="256" name="#entry"/>
  <anchor x="426" y="256" name="#exit"/>
  <anchor x="88" y="0" name="%entry"/>
  <anchor x="250" y="0" name="^entry"/>
  <anchor x="602" y="0" name="^exit"/>
  <anchor x="363" y="0" name="bottom"/>
  <anchor x="516" y="0" name="bottom-right"/>
  <anchor x="311" y="257" name="center"/>
  <anchor x="426" y="256" name="stem"/>
  <outline>
    <contour>
      <point x="273" y="-14" type="curve" smooth="yes"/>
      <point x="368" y="-14"/>
      <point x="440" y="47"/>
      <point x="454" y="137" type="curve"/>
      <point x="433" y="176" type="line"/>
      <point x="419" y="110"/>
      <point x="366" y="66"/>
      <point x="300" y="66" type="curve" smooth="yes"/>
      <point x="219" y="66"/>
      <point x="177" y="130"/>
      <point x="177" y="252" type="curve" smooth="yes"/>
      <point x="177" y="384"/>
      <point x="226" y="456"/>
      <point x="315" y="456" type="curve" smooth="yes"/>
      <point x="372" y="456"/>
      <point x="414" y="426"/>
      <point x="432" y="375" type="curve"/>
      <point x="458" y="420" type="line"/>
      <point x="423" y="495"/>
      <point x="373" y="529"/>
      <point x="300" y="529" type="curve" smooth="yes"/>
      <point x="168" y="529"/>
      <point x="80" y="417"/>
      <point x="80" y="248" type="curve" smooth="yes"/>
      <point x="80" y="90"/>
      <point x="157" y="-14"/>
    </contour>
    <contour>
      <point x="426" y="0" type="line"/>
      <point x="426" y="-12" type="line"/>
      <point x="466" y="-3"/>
      <point x="517" y="2"/>
      <point x="584" y="2" type="curve"/>
      <point x="609" y="2"/>
      <point x="634" y="1"/>
      <point x="652" y="0" type="curve"/>
      <point x="652" y="70" type="line"/>
      <point x="597" y="75" type="line"/>
      <point x="538" y="80"/>
      <point x="516" y="101"/>
      <point x="516" y="162" type="curve"/>
      <point x="516" y="256" type="line"/>
      <point x="426" y="256" type="line"/>
    </contour>
    <component base="_LC-ascender-right-inserif" xOffset="260"/>
  </outline>
</glyph>
<glyph name="e" format="2">
  <advance width="605"/>
  <unicode hex="0065"/>
  <anchor x="318" y="0" name="bottom"/>
  <anchor x="309" y="257" name="center"/>
  <anchor x="386" y="0" name="ogonek"/>
  <anchor x="299" y="512" name="top"/>
  <anchor x="299" y="492" name="top_low_1"/>
  <anchor x="299" y="472" name="top_low_2"/>
  <anchor x="299" y="452" name="top_low_3"/>
  <outline>
    <contour>
      <point x="306" y="-14" type="curve" smooth="yes"/>
      <point x="407" y="-14"/>
      <point x="485" y="38"/>
      <point x="514" y="125" type="curve"/>
      <point x="448" y="158" type="line"/>
      <point x="418" y="98"/>
      <point x="376" y="71"/>
      <point x="317" y="71" type="curve" smooth="yes"/>
      <point x="224" y="71"/>
      <point x="177" y="137"/>
      <point x="177" y="265" type="curve" smooth="yes"/>
      <point x="177" y="281"/>
      <point x="178" y="294"/>
      <point x="179" y="304" type="curve"/>
      <point x="176" y="308" type="line"/>
      <point x="185" y="416"/>
      <point x="243" y="460"/>
      <point x="306" y="460" type="curve" smooth="yes"/>
      <point x="390" y="460"/>
      <point x="422" y="401"/>
      <point x="419" y="325" type="curve"/>
      <point x="139" y="325" type="line"/>
      <point x="140" y="256" type="line"/>
      <point x="515" y="256" type="line"/>
      <point x="523" y="462"/>
      <point x="434" y="529"/>
      <point x="310" y="529" type="curve" smooth="yes"/>
      <point x="163" y="529"/>
      <point x="80" y="431"/>
      <point x="80" y="258" type="curve" smooth="yes"/>
      <point x="80" y="86"/>
      <point x="163" y="-14"/>
    </contour>
  </outline>
</glyph>
<glyph name="g" format="2">
  <advance width="605"/>
  <unicode hex="0067"/>
  <anchor x="289" y="-231" name="bottom"/>
  <anchor x="296" y="0" name="center"/>
  <anchor x="269" y="512" name="top"/>
  <outline>
    <contour>
      <point x="251" y="-239" type="curve" smooth="yes"/>
      <point x="406" y="-239"/>
      <point x="520" y="-154"/>
      <point x="520" y="-37" type="curve" smooth="yes"/>
      <point x="520" y="45"/>
      <point x="464" y="90"/>
      <point x="363" y="90" type="curve" smooth="yes"/>
      <point x="278" y="90" type="line" smooth="yes"/>
      <point x="239" y="90"/>
      <point x="220" y="101"/>
      <point x="220" y="123" type="curve" smooth="yes"/>
      <point x="220" y="143"/>
      <point x="232" y="159"/>
      <point x="254" y="172" type="curve"/>
      <point x="192" y="181" type="line"/>
      <point x="151" y="156"/>
      <point x="131" y="127"/>
      <point x="131" y="93" type="curve" smooth="yes"/>
      <point x="131" y="40"/>
      <point x="182" y="6"/>
      <point x="261" y="6" type="curve" smooth="yes"/>
      <point x="355" y="6" type="line" smooth="yes"/>
      <point x="400" y="6"/>
      <point x="421" y="-13"/>
      <point x="421" y="-52" type="curve" smooth="yes"/>
      <point x="421" y="-122"/>
      <point x="354" y="-172"/>
      <point x="259" y="-172" type="curve" smooth="yes"/>
      <point x="185" y="-172"/>
      <point x="141" y="-141"/>
      <point x="141" y="-89" type="curve" smooth="yes"/>
      <point x="141" y="-45"/>
      <point x="171" y="-4"/>
      <point x="215" y="15" type="curve"/>
      <point x="169" y="51" type="line"/>
      <point x="89" y="14"/>
      <point x="49" y="-38"/>
      <point x="49" y="-103" type="curve" smooth="yes"/>
      <point x="49" y="-187"/>
      <point x="126" y="-239"/>
    </contour>
    <contour>
      <point x="263" y="163" type="curve" smooth="yes"/>
      <point x="382" y="163"/>
      <point x="453" y="231"/>
      <point x="453" y="346" type="curve" smooth="yes"/>
      <point x="453" y="461"/>
      <point x="382" y="529"/>
      <point x="263" y="529" type="curve" smooth="yes"/>
      <point x="144" y="529"/>
      <point x="73" y="461"/>
      <point x="73" y="346" type="curve" smooth="yes"/>
      <point x="73" y="231"/>
      <point x="144" y="163"/>
    </contour>
    <contour>
      <point x="263" y="231" type="curve" smooth="yes"/>
      <point x="197" y="231"/>
      <point x="167" y="267"/>
      <point x="167" y="346" type="curve" smooth="yes"/>
      <point x="167" y="425"/>
      <point x="197" y="461"/>
      <point x="263" y="461" type="curve" smooth="yes"/>
      <point x="329" y="461"/>
      <point x="359" y="425"/>
      <point x="359" y="346" type="curve" smooth="yes"/>
      <point x="359" y="267"/>
      <point x="329" y="231"/>
    </contour>
    <contour>
      <point x="375" y="444" type="line"/>
      <point x="557" y="444" type="line"/>
      <point x="557" y="514" type="line"/>
      <point x="285" y="514" type="line"/>
    </contour>
  </outline>
</glyph>
<glyph name="k" format="2">
  <advance width="732"/>
  <unicode hex="006B"/>
  <anchor x="353" y="0" name="bottom"/>
  <anchor x="344" y="758" name="top"/>
  <outline>
    <contour>
      <point x="32" y="0" type="line"/>
      <point x="67" y="1"/>
      <point x="146" y="4"/>
      <point x="212" y="4" type="curve" smooth="yes"/>
      <point x="284" y="4"/>
      <point x="360" y="1"/>
      <point x="394" y="0" type="curve"/>
      <point x="394" y="71" type="line"/>
      <point x="292" y="71"/>
      <point x="258" y="89"/>
      <point x="258" y="143" type="curve" smooth="yes"/>
      <point x="258" y="784" type="line"/>
      <point x="223" y="775"/>
      <point x="181" y="770"/>
      <point x="134" y="770" type="curve" smooth="yes"/>
      <point x="101" y="770"/>
      <point x="66" y="771"/>
      <point x="32" y="773" type="curve"/>
      <point x="32" y="702" type="line"/>
      <point x="131" y="702"/>
      <point x="168" y="678"/>
      <point x="168" y="614" type="curve" smooth="yes"/>
      <point x="168" y="143" type="line" smooth="yes"/>
      <point x="168" y="89"/>
      <point x="135" y="71"/>
      <point x="32" y="71" type="curve"/>
    </contour>
    <contour>
      <point x="485" y="0" type="curve"/>
      <point x="518" y="2"/>
      <point x="542" y="3"/>
      <point x="571" y="3" type="curve" smooth="yes"/>
      <point x="608" y="3"/>
      <point x="634" y="2"/>
      <point x="707" y="0" type="curve"/>
      <point x="707" y="71" type="line"/>
      <point x="604" y="75"/>
      <point x="571" y="90"/>
      <point x="545" y="145" type="curve" smooth="yes"/>
      <point x="513" y="213" type="line" smooth="yes"/>
      <point x="485" y="273"/>
      <point x="456" y="294"/>
      <point x="403" y="296" type="curve"/>
      <point x="412" y="261" type="line"/>
      <point x="498" y="363" type="line" smooth="yes"/>
      <point x="536" y="408"/>
      <point x="572" y="435"/>
      <point x="649" y="443" type="curve"/>
      <point x="649" y="514" type="line"/>
      <point x="622" y="512"/>
      <point x="577" y="511"/>
      <point x="514" y="511" type="curve" smooth="yes"/>
      <point x="469" y="511"/>
      <point x="427" y="512"/>
      <point x="387" y="514" type="curve"/>
      <point x="387" y="443" type="line"/>
      <point x="451" y="439"/>
      <point x="457" y="417"/>
      <point x="417" y="371" type="curve" smooth="yes"/>
      <point x="398" y="349" type="line" smooth="yes"/>
      <point x="374" y="321"/>
      <point x="361" y="313"/>
      <point x="317" y="313" type="curve" smooth="yes"/>
      <point x="232" y="313" type="line"/>
      <point x="232" y="242" type="line"/>
      <point x="342" y="242" type="line" smooth="yes"/>
      <point x="385" y="242"/>
      <point x="408" y="228"/>
      <point x="426" y="189" type="curve" smooth="yes"/>
      <point x="464" y="108" type="line" smooth="yes"/>
      <point x="480" y="75"/>
      <point x="487" y="38"/>
    </contour>
    <component base="_LC-baseline-normal-narrow"/>
    <component base="_LC-ascender-left-inserif" xOffset="6"/>
    <component base="_LC-k-legs" xOffset="259"/>
  </outline>
</glyph>
<glyph name="l" format="2">
  <advance width="432"/>
  <unicode hex="006C"/>
  <anchor x="176" y="256" name="#entry"/>
  <anchor x="266" y="256" name="#exit"/>
  <anchor x="-162" y="0" name="%entry"/>
  <anchor x="176" y="0" name="%exit"/>
  <anchor x="0" y="0" name="^entry"/>
  <anchor x="352" y="0" name="^exit"/>
  <anchor x="221" y="0" name="bottom"/>
  <anchor x="221" y="354" name="center"/>
  <anchor x="316" y="512" name="right"/>
  <anchor x="176" y="256" name="stem"/>
  <anchor x="221" y="773" name="top"/>
  <anchor x="316" y="773" name="topright"/>
  <outline>
    <contour>
      <point x="221" y="3" type="curve"/>
      <point x="221" y="3" type="line"/>
      <point x="221" y="3" type="line"/>
      <point x="301" y="3"/>
      <point x="349" y="1"/>
      <point x="402" y="0" type="curve"/>
      <point x="402" y="70" type="line"/>
      <point x="347" y="75" type="line"/>
      <point x="288" y="80"/>
      <point x="266" y="101"/>
      <point x="266" y="162" type="curve"/>
      <point x="266" y="256" type="line"/>
      <point x="176" y="256" type="line"/>
      <point x="176" y="162" type="line"/>
      <point x="176" y="101"/>
      <point x="154" y="80"/>
      <point x="95" y="75" type="curve"/>
      <point x="40" y="70" type="line"/>
      <point x="40" y="0" type="line"/>
      <point x="93" y="1"/>
      <point x="141" y="3"/>
    </contour>
    <component base="_LC-ascender-left-inserif"/>
  </outline>
</glyph>
<glyph name="o" format="2">
  <advance width="614"/>
  <unicode hex="006F"/>
  <anchor x="-168" y="256" name="#entry"/>
  <anchor x="307" y="0" name="bottom"/>
  <anchor x="307" y="257" name="center"/>
  <anchor x="390" y="0" name="ogonek"/>
  <anchor x="307" y="512" name="top"/>
  <anchor x="307" y="492" name="top_low_1"/>
  <anchor x="307" y="472" name="top_low_2"/>
  <anchor x="307" y="452" name="top_low_3"/>
  <anchor x="307" y="432" name="top_low_4"/>
  <anchor x="534" y="512" name="topright"/>
  <outline>
    <contour>
      <point x="307" y="-14" type="curve" smooth="yes"/>
      <point x="434" y="-14"/>
      <point x="534" y="65"/>
      <point x="534" y="257" type="curve" smooth="yes"/>
      <point x="534" y="449"/>
      <point x="434" y="529"/>
      <point x="307" y="529" type="curve" smooth="yes"/>
      <point x="180" y="529"/>
      <point x="80" y="449"/>
      <point x="80" y="257" type="curve" smooth="yes"/>
      <point x="80" y="65"/>
      <point x="180" y="-14"/>
    </contour>
    <contour>
      <point x="307" y="56" type="curve" smooth="yes"/>
      <point x="231" y="56"/>
      <point x="177" y="114"/>
      <point x="177" y="257" type="curve" smooth="yes"/>
      <point x="177" y="400"/>
      <point x="231" y="459"/>
      <point x="307" y="459" type="curve" smooth="yes"/>
      <point x="383" y="459"/>
      <point x="437" y="400"/>
      <point x="437" y="257" type="curve" smooth="yes"/>
      <point x="437" y="114"/>
      <point x="383" y="56"/>
    </contour>
  </outline>
</glyph>
<glyph name="p" format="2">
  <advance width="692"/>
  <unicode hex="0070"/>
  <anchor x="266" y="256" name="#entry"/>
  <anchor x="266" y="256" name="#exit"/>
  <anchor x="385" y="-231" name="bottom"/>
  <anchor x="381" y="255" name="center"/>
  <anchor x="176" y="0" name="lower-left"/>
  <anchor x="329" y="512" name="top"/>
  <anchor x="176" y="512" name="top-left"/>
  <outline>
    <contour>
      <point x="221" y="-228" type="curve"/>
      <point x="221" y="-228" type="line"/>
      <point x="221" y="-228" type="line"/>
      <point x="310" y="-228"/>
      <point x="363" y="-230"/>
      <point x="422" y="-231" type="curve"/>
      <point x="422" y="-161" type="line"/>
      <point x="367" y="-156" type="line"/>
      <point x="294" y="-150"/>
      <point x="266" y="-130"/>
      <point x="266" y="-69" type="curve"/>
      <point x="266" y="256" type="line"/>
      <point x="176" y="256" type="line"/>
      <point x="176" y="-69" type="line"/>
      <point x="176" y="-130"/>
      <point x="154" y="-151"/>
      <point x="95" y="-156" type="curve"/>
      <point x="40" y="-161" type="line"/>
      <point x="40" y="-231" type="line"/>
      <point x="93" y="-230"/>
      <point x="141" y="-228"/>
    </contour>
    <contour>
      <point x="419" y="526" type="curve" smooth="yes"/>
      <point x="324" y="526"/>
      <point x="252" y="465"/>
      <point x="238" y="375" type="curve"/>
      <point x="259" y="336" type="line"/>
      <point x="273" y="402"/>
      <point x="326" y="446"/>
      <point x="392" y="446" type="curve" smooth="yes"/>
      <point x="473" y="446"/>
      <point x="515" y="382"/>
      <point x="515" y="260" type="curve" smooth="yes"/>
      <point x="515" y="128"/>
      <point x="466" y="56"/>
      <point x="377" y="56" type="curve" smooth="yes"/>
      <point x="320" y="56"/>
      <point x="278" y="86"/>
      <point x="260" y="137" type="curve"/>
      <point x="234" y="92" type="line"/>
      <point x="269" y="17"/>
      <point x="319" y="-17"/>
      <point x="392" y="-17" type="curve" smooth="yes"/>
      <point x="524" y="-17"/>
      <point x="612" y="95"/>
      <point x="612" y="264" type="curve" smooth="yes"/>
      <point x="612" y="422"/>
      <point x="535" y="526"/>
    </contour>
    <component base="_n-1st-stroke-hook"/>
  </outline>
</glyph>
<glyph name="q" format="2">
  <advance width="692"/>
  <unicode hex="0071"/>
  <anchor x="426" y="256" name="#entry"/>
  <anchor x="426" y="256" name="#exit"/>
  <anchor x="363" y="0" name="bottom"/>
  <anchor x="516" y="0" name="bottom-right"/>
  <anchor x="311" y="257" name="center"/>
  <anchor x="516" y="0" name="lower-right"/>
  <outline>
    <contour>
      <point x="281" y="-14" type="curve" smooth="yes"/>
      <point x="375" y="-14"/>
      <point x="431" y="41"/>
      <point x="442" y="94" type="curve"/>
      <point x="432" y="208" type="line"/>
      <point x="419" y="117"/>
      <point x="375" y="66"/>
      <point x="308" y="66" type="curve" smooth="yes"/>
      <point x="223" y="66"/>
      <point x="177" y="133"/>
      <point x="177" y="256" type="curve" smooth="yes"/>
      <point x="177" y="385"/>
      <point x="227" y="456"/>
      <point x="317" y="456" type="curve" smooth="yes"/>
      <point x="370" y="456"/>
      <point x="410" y="427"/>
      <point x="427" y="376" type="curve"/>
      <point x="450" y="446" type="line"/>
      <point x="422" y="500"/>
      <point x="371" y="529"/>
      <point x="303" y="529" type="curve" smooth="yes"/>
      <point x="167" y="529"/>
      <point x="80" y="420"/>
      <point x="80" y="248" type="curve" smooth="yes"/>
      <point x="80" y="84"/>
      <point x="155" y="-14"/>
    </contour>
    <contour>
      <point x="471" y="-228" type="line"/>
      <point x="551" y="-228"/>
      <point x="599" y="-230"/>
      <point x="652" y="-231" type="curve"/>
      <point x="652" y="-161" type="line"/>
      <point x="597" y="-156" type="line"/>
      <point x="538" y="-151"/>
      <point x="516" y="-130"/>
      <point x="516" y="-69" type="curve"/>
      <point x="516" y="256" type="line"/>
      <point x="426" y="256" type="line"/>
      <point x="426" y="-69" type="line"/>
      <point x="426" y="-130"/>
      <point x="398" y="-150"/>
      <point x="325" y="-156" type="curve"/>
      <point x="270" y="-161" type="line"/>
      <point x="270" y="-231" type="line"/>
      <point x="329" y="-230"/>
      <point x="382" y="-228"/>
      <point x="471" y="-228" type="curve"/>
      <point x="471" y="-228" type="line"/>
    </contour>
    <component base="_LC-xheight-right-instroke" xOffset="226"/>
  </outline>
</glyph>
<glyph name="r" format="2">
  <advance width="556"/>
  <unicode hex="0072"/>
  <anchor x="278" y="0" name="bottom"/>
  <anchor x="278" y="512" name="top"/>
  <outline>
    <contour>
      <point x="221" y="3" type="curve"/>
      <point x="221" y="3" type="line"/>
      <point x="221" y="3" type="line"/>
      <point x="306" y="3"/>
      <point x="357" y="1"/>
      <point x="414" y="0" type="curve"/>
      <point x="414" y="70" type="line"/>
      <point x="359" y="75" type="line"/>
      <point x="292" y="81"/>
      <point x="266" y="101"/>
      <point x="266" y="162" type="curve"/>
      <point x="266" y="256" type="line"/>
      <point x="176" y="256" type="line"/>
      <point x="176" y="162" type="line"/>
      <point x="176" y="101"/>
      <point x="154" y="80"/>
      <point x="95" y="75" type="curve"/>
      <point x="40" y="70" type="line"/>
      <point x="40" y="0" type="line"/>
      <point x="93" y="1"/>
      <point x="141" y="3"/>
    </contour>
    <contour>
      <point x="176" y="256" type="line"/>
      <point x="266" y="256" type="line"/>
      <point x="266" y="514" type="line"/>
      <point x="266" y="526" type="line"/>
      <point x="226" y="517"/>
      <point x="175" y="512"/>
      <point x="108" y="512" type="curve"/>
      <point x="83" y="512"/>
      <point x="58" y="513"/>
      <point x="40" y="514" type="curve"/>
      <point x="40" y="444" type="line"/>
      <point x="95" y="439" type="line"/>
      <point x="154" y="434"/>
      <point x="176" y="413"/>
      <point x="176" y="352" type="curve"/>
    </contour>
    <component base="_LC-r-arm" xOffset="226"/>
  </outline>
</glyph>
<glyph name="s" format="2">
  <advance width="565"/>
  <unicode hex="0073"/>
  <anchor x="467" y="0" name="^exit"/>
  <anchor x="288" y="0" name="bottom"/>
  <anchor x="286" y="257" name="center"/>
  <anchor x="272" y="512" name="top"/>
  <anchor x="272" y="492" name="top_low_1"/>
  <anchor x="272" y="472" name="top_low_2"/>
  <anchor x="272" y="452" name="top_low_3"/>
  <anchor x="272" y="432" name="top_low_4"/>
  <outline>
    <contour>
      <point x="314" y="-14" type="curve" smooth="yes"/>
      <point x="416" y="-14"/>
      <point x="480" y="44"/>
      <point x="480" y="135" type="curve" smooth="yes"/>
      <point x="480" y="217"/>
      <point x="431" y="262"/>
      <point x="315" y="291" type="curve" smooth="yes"/>
      <point x="219" y="315"/>
      <point x="181" y="345"/>
      <point x="181" y="395" type="curve" smooth="yes"/>
      <point x="181" y="437"/>
      <point x="207" y="460"/>
      <point x="255" y="460" type="curve" smooth="yes"/>
      <point x="324" y="460"/>
      <point x="383" y="416"/>
      <point x="393" y="348" type="curve"/>
      <point x="463" y="348" type="line"/>
      <point x="463" y="471"/>
      <point x="464" y="495"/>
      <point x="467" y="518" type="curve"/>
      <point x="397" y="518" type="line"/>
      <point x="391" y="496"/>
      <point x="386" y="489"/>
      <point x="375" y="489" type="curve" smooth="yes"/>
      <point x="349" y="489"/>
      <point x="311" y="529"/>
      <point x="237" y="529" type="curve" smooth="yes"/>
      <point x="149" y="529"/>
      <point x="90" y="473"/>
      <point x="90" y="388" type="curve" smooth="yes"/>
      <point x="90" y="305"/>
      <point x="148" y="249"/>
      <point x="263" y="222" type="curve" smooth="yes"/>
      <point x="357" y="199"/>
      <point x="389" y="175"/>
      <point x="389" y="128" type="curve" smooth="yes"/>
      <point x="389" y="82"/>
      <point x="357" y="56"/>
      <point x="300" y="56" type="curve" smooth="yes"/>
      <point x="219" y="56"/>
      <point x="162" y="104"/>
      <point x="149" y="183" type="curve"/>
      <point x="80" y="183" type="line"/>
      <point x="80" y="74"/>
      <point x="79" y="26"/>
      <point x="75" y="-4" type="curve"/>
      <point x="145" y="-4" type="line"/>
      <point x="151" y="17"/>
      <point x="160" y="25"/>
      <point x="169" y="25" type="curve" smooth="yes"/>
      <point x="191" y="25"/>
      <point x="231" y="-14"/>
    </contour>
  </outline>
</glyph>
<glyph name="u" format="2">
  <advance width="743"/>
  <unicode hex="0075"/>
  <anchor x="176" y="256" name="#entry"/>
  <anchor x="266" y="256" name="#exit"/>
  <anchor x="149" y="0" name="%entry"/>
  <anchor x="604" y="512" name="%exit"/>
  <anchor x="15" y="512" name="^entry"/>
  <anchor x="442" y="512" name="^exit"/>
  <anchor x="406" y="0" name="bottom"/>
  <anchor x="367" y="275" name="center"/>
  <anchor x="487" y="256" name="reversedExit"/>
  <anchor x="266" y="256" name="stem"/>
  <anchor x="344" y="512" name="top"/>
  <anchor x="344" y="492" name="top_low_1"/>
  <anchor x="344" y="472" name="top_low_2"/>
  <anchor x="344" y="452" name="top_low_3"/>
  <anchor x="577" y="512" name="topright"/>
  <outline>
    <contour>
      <point x="266" y="512" type="line"/>
      <point x="266" y="524" type="line"/>
      <point x="226" y="515"/>
      <point x="175" y="510"/>
      <point x="108" y="510" type="curve"/>
      <point x="83" y="510"/>
      <point x="58" y="511"/>
      <point x="40" y="512" type="curve"/>
      <point x="40" y="442" type="line"/>
      <point x="95" y="437" type="line"/>
      <point x="154" y="432"/>
      <point x="176" y="411"/>
      <point x="176" y="350" type="curve"/>
      <point x="176" y="256" type="line"/>
      <point x="266" y="256" type="line"/>
    </contour>
    <contour>
      <point x="266" y="256" type="line"/>
      <point x="176" y="256" type="line"/>
      <point x="176" y="150" type="line" smooth="yes"/>
      <point x="176" y="46"/>
      <point x="235" y="-17"/>
      <point x="331" y="-17" type="curve" smooth="yes"/>
      <point x="417" y="-17"/>
      <point x="487" y="44"/>
      <point x="525" y="166" type="curve"/>
      <point x="514" y="204" type="line"/>
      <point x="477" y="110"/>
      <point x="424" y="65"/>
      <point x="357" y="65" type="curve" smooth="yes"/>
      <point x="299" y="65"/>
      <point x="266" y="98"/>
      <point x="266" y="158" type="curve" smooth="yes"/>
    </contour>
    <contour>
      <point x="487" y="0" type="line"/>
      <point x="487" y="-12" type="line"/>
      <point x="527" y="-3"/>
      <point x="578" y="2"/>
      <point x="645" y="2" type="curve"/>
      <point x="670" y="2"/>
      <point x="695" y="1"/>
      <point x="713" y="0" type="curve"/>
      <point x="713" y="70" type="line"/>
      <point x="658" y="75" type="line"/>
      <point x="599" y="80"/>
      <point x="577" y="101"/>
      <point x="577" y="162" type="curve"/>
      <point x="577" y="256" type="line"/>
      <point x="487" y="256" type="line"/>
    </contour>
    <contour>
      <point x="577" y="512" type="line"/>
      <point x="577" y="524" type="line"/>
      <point x="542" y="514"/>
      <point x="502" y="510"/>
      <point x="447" y="510" type="curve"/>
      <point x="428" y="510"/>
      <point x="411" y="511"/>
      <point x="395" y="512" type="curve"/>
      <point x="395" y="442" type="line"/>
      <point x="420" y="439" type="line"/>
      <point x="472" y="430"/>
      <point x="487" y="412"/>
      <point x="487" y="350" type="curve"/>
      <point x="487" y="256" type="line"/>
      <point x="577" y="256" type="line"/>
    </contour>
  </outline>
</glyph>
<glyph name="v" format="2">
  <advance width="661"/>
  <unicode hex="0076"/>
  <anchor x="338" y="0" name="bottom"/>
  <anchor x="338" y="512" name="top"/>
  <outline>
    <contour>
      <point x="308" y="-5" type="line"/>
      <point x="375" y="-5" type="line"/>
      <point x="492" y="312" type="line"/>
      <point x="531" y="406"/>
      <point x="556" y="432"/>
      <point x="620" y="439" type="curve"/>
      <point x="641" y="442" type="line"/>
      <point x="641" y="512" type="line"/>
      <point x="596" y="510"/>
      <point x="544" y="509"/>
      <point x="492" y="509" type="curve"/>
      <point x="455" y="509"/>
      <point x="412" y="510"/>
      <point x="368" y="512" type="curve"/>
      <point x="368" y="442" type="line"/>
      <point x="383" y="440" type="line"/>
      <point x="437" y="434"/>
      <point x="454" y="406"/>
      <point x="412" y="303" type="curve"/>
      <point x="341" y="102" type="line"/>
      <point x="358" y="97" type="line"/>
      <point x="233" y="406" type="line"/>
      <point x="219" y="439"/>
      <point x="208" y="474"/>
      <point x="210" y="512" type="curve"/>
      <point x="188" y="510"/>
      <point x="165" y="509"/>
      <point x="133" y="509" type="curve"/>
      <point x="84" y="509"/>
      <point x="53" y="511"/>
      <point x="20" y="512" type="curve"/>
      <point x="20" y="441" type="line"/>
      <point x="88" y="442"/>
      <point x="134" y="421"/>
      <point x="155" y="370" type="curve"/>
    </contour>
  </outline>
</glyph>
<glyph name="w" format="2">
  <advance width="934"/>
  <unicode hex="0077"/>
  <anchor x="469" y="0" name="bottom"/>
  <anchor x="482" y="512" name="top"/>
  <outline>
    <contour>
      <point x="283" y="-5" type="line"/>
      <point x="350" y="-5" type="line"/>
      <point x="506" y="466" type="line"/>
      <point x="447" y="512" type="line"/>
      <point x="312" y="107" type="line"/>
      <point x="330" y="112" type="line"/>
      <point x="228" y="404" type="line"/>
      <point x="216" y="438"/>
      <point x="208" y="474"/>
      <point x="210" y="512" type="curve"/>
      <point x="188" y="510"/>
      <point x="165" y="509"/>
      <point x="133" y="509" type="curve"/>
      <point x="84" y="509"/>
      <point x="53" y="511"/>
      <point x="20" y="512" type="curve"/>
      <point x="20" y="441" type="line"/>
      <point x="88" y="442"/>
      <point x="130" y="420"/>
      <point x="149" y="368" type="curve"/>
    </contour>
    <contour>
      <point x="601" y="-5" type="line"/>
      <point x="668" y="-5" type="line"/>
      <point x="781" y="354" type="line"/>
      <point x="802" y="421"/>
      <point x="834" y="440"/>
      <point x="914" y="440" type="curve"/>
      <point x="914" y="511" type="line"/>
      <point x="858" y="509"/>
      <point x="832" y="508"/>
      <point x="802" y="508" type="curve"/>
      <point x="774" y="508"/>
      <point x="754" y="509"/>
      <point x="728" y="511" type="curve"/>
      <point x="735" y="471"/>
      <point x="724" y="418"/>
      <point x="706" y="360" type="curve"/>
      <point x="626" y="100" type="line"/>
      <point x="653" y="108" type="line"/>
      <point x="520" y="512" type="line"/>
      <point x="447" y="512" type="line"/>
      <point x="467" y="403" type="line"/>
    </contour>
  </outline>
</glyph>
<glyph name="x" format="2">
  <advance width="682"/>
  <unicode hex="0078"/>
  <anchor x="349" y="0" name="bottom"/>
  <anchor x="657" y="0" name="bottomright"/>
  <anchor x="349" y="512" name="top"/>
  <outline>
    <contour>
      <point x="468" y="0" type="curve"/>
      <point x="501" y="2"/>
      <point x="525" y="3"/>
      <point x="554" y="3" type="curve" smooth="yes"/>
      <point x="593" y="3"/>
      <point x="618" y="2"/>
      <point x="657" y="0" type="curve"/>
      <point x="657" y="71" type="line"/>
      <point x="585" y="70"/>
      <point x="533" y="89"/>
      <point x="488" y="144" type="curve" smooth="yes"/>
      <point x="275" y="407" type="line" smooth="yes"/>
      <point x="236" y="455"/>
      <point x="224" y="483"/>
      <point x="224" y="514" type="curve"/>
      <point x="191" y="512"/>
      <point x="167" y="511"/>
      <point x="138" y="511" type="curve" smooth="yes"/>
      <point x="99" y="511"/>
      <point x="74" y="512"/>
      <point x="35" y="514" type="curve"/>
      <point x="35" y="443" type="line"/>
      <point x="107" y="444"/>
      <point x="160" y="425"/>
      <point x="204" y="370" type="curve" smooth="yes"/>
      <point x="417" y="107" type="line" smooth="yes"/>
      <point x="456" y="59"/>
      <point x="468" y="31"/>
    </contour>
    <contour>
      <point x="20" y="0" type="line"/>
      <point x="70" y="2"/>
      <point x="116" y="3"/>
      <point x="171" y="3" type="curve" smooth="yes"/>
      <point x="242" y="3"/>
      <point x="291" y="2"/>
      <point x="308" y="0" type="curve"/>
      <point x="308" y="71" type="line"/>
      <point x="250" y="71"/>
      <point x="230" y="102"/>
      <point x="263" y="140" type="curve" smooth="yes"/>
      <point x="344" y="232" type="line"/>
      <point x="300" y="279" type="line"/>
      <point x="189" y="153" type="line" smooth="yes"/>
      <point x="131" y="88"/>
      <point x="96" y="71"/>
      <point x="20" y="71" type="curve"/>
    </contour>
    <contour>
      <point x="384" y="247" type="line"/>
      <point x="479" y="361" type="line" smooth="yes"/>
      <point x="530" y="423"/>
      <point x="570" y="443"/>
      <point x="641" y="443" type="curve"/>
      <point x="641" y="514" type="line"/>
      <point x="593" y="512"/>
      <point x="549" y="511"/>
      <point x="506" y="511" type="curve" smooth="yes"/>
      <point x="461" y="511"/>
      <point x="419" y="512"/>
      <point x="381" y="514" type="curve"/>
      <point x="381" y="443" type="line"/>
      <point x="436" y="443"/>
      <point x="447" y="424"/>
      <point x="417" y="388" type="curve" smooth="yes"/>
      <point x="339" y="294" type="line"/>
    </contour>
  </outline>
</glyph>
<glyph name="y" format="2">
  <advance width="664"/>
  <unicode hex="0079"/>
  <anchor x="-134" y="256" name="#entry"/>
  <anchor x="448" y="0" name="bottom"/>
  <anchor x="341" y="257" name="center"/>
  <anchor x="341" y="512" name="top"/>
  <outline>
    <contour>
      <point x="310" y="-8" type="line"/>
      <point x="377" y="-8" type="line"/>
      <point x="495" y="312" type="line"/>
      <point x="534" y="406"/>
      <point x="559" y="432"/>
      <point x="623" y="439" type="curve"/>
      <point x="644" y="442" type="line"/>
      <point x="644" y="512" type="line"/>
      <point x="599" y="510"/>
      <point x="547" y="509"/>
      <point x="495" y="509" type="curve"/>
      <point x="458" y="509"/>
      <point x="415" y="510"/>
      <point x="371" y="512" type="curve"/>
      <point x="371" y="442" type="line"/>
      <point x="386" y="440" type="line"/>
      <point x="440" y="434"/>
      <point x="457" y="406"/>
      <point x="415" y="303" type="curve"/>
      <point x="342" y="99" type="line"/>
      <point x="360" y="94" type="line"/>
      <point x="233" y="406" type="line"/>
      <point x="220" y="439"/>
      <point x="208" y="474"/>
      <point x="210" y="512" type="curve"/>
      <point x="188" y="510"/>
      <point x="165" y="509"/>
      <point x="133" y="509" type="curve"/>
      <point x="84" y="509"/>
      <point x="53" y="511"/>
      <point x="20" y="512" type="curve"/>
      <point x="20" y="441" type="line"/>
      <point x="88" y="442"/>
      <point x="134" y="421"/>
      <point x="155" y="370" type="curve"/>
    </contour>
    <contour>
      <point x="204" y="-239" type="curve" smooth="yes"/>
      <point x="263" y="-239"/>
      <point x="297" y="-211"/>
      <point x="324" y="-142" type="curve" smooth="yes"/>
      <point x="380" y="1" type="line"/>
      <point x="320" y="37" type="line"/>
      <point x="251" y="-140" type="line" smooth="yes"/>
      <point x="244" y="-159"/>
      <point x="227" y="-174"/>
      <point x="211" y="-174" type="curve" smooth="yes"/>
      <point x="199" y="-174"/>
      <point x="191" y="-166"/>
      <point x="191" y="-155" type="curve" smooth="yes"/>
      <point x="191" y="-139"/>
      <point x="207" y="-129"/>
      <point x="207" y="-103" type="curve" smooth="yes"/>
      <point x="207" y="-74"/>
      <point x="187" y="-57"/>
      <point x="154" y="-57" type="curve" smooth="yes"/>
      <point x="111" y="-57"/>
      <point x="82" y="-86"/>
      <point x="82" y="-131" type="curve" smooth="yes"/>
      <point x="82" y="-194"/>
      <point x="132" y="-239"/>
    </contour>
  </outline>
</glyph>
<glyph name="z" format="2">
  <advance width="578"/>
  <unicode hex="007A"/>
  <anchor x="284" y="0" name="bottom"/>
  <anchor x="288" y="269" name="center"/>
  <anchor x="288" y="512" name="top"/>
  <outline>
    <contour>
      <point x="80" y="0" type="line"/>
      <point x="128" y="2"/>
      <point x="182" y="3"/>
      <point x="232" y="3" type="curve" smooth="yes"/>
      <point x="342" y="3" type="line"/>
      <point x="356" y="3" type="line"/>
      <point x="403" y="3"/>
      <point x="451" y="2"/>
      <point x="498" y="0" type="curve"/>
      <point x="499" y="68"/>
      <point x="503" y="126"/>
      <point x="512" y="182" type="curve"/>
      <point x="439" y="182" type="line"/>
      <point x="415" y="90"/>
      <point x="387" y="70"/>
      <point x="342" y="70" type="curve"/>
      <point x="176" y="70" type="line"/>
      <point x="491" y="442" type="line"/>
      <point x="491" y="512" type="line"/>
      <point x="443" y="510"/>
      <point x="389" y="509"/>
      <point x="339" y="509" type="curve" smooth="yes"/>
      <point x="239" y="509" type="line"/>
      <point x="225" y="509" type="line"/>
      <point x="178" y="509"/>
      <point x="130" y="510"/>
      <point x="83" y="512" type="curve"/>
      <point x="82" y="444"/>
      <point x="78" y="386"/>
      <point x="69" y="330" type="curve"/>
      <point x="142" y="330" type="line"/>
      <point x="166" y="422"/>
      <point x="194" y="442"/>
      <point x="239" y="442" type="curve"/>
      <point x="395" y="442" type="line"/>
      <point x="80" y="70" type="line"/>
    </contour>
  </outline>
</glyph>
<glyph name="braceleft" format="2">
  <advance width="313"/>
  <unicode hex="007B"/>
  <outline>
    <contour>
      <point x="278" y="-191" type="curve"/>
      <point x="278" y="-122" type="line"/>
      <point x="207" y="-119"/>
      <point x="202" y="-115"/>
      <point x="198" y="47" type="curve" smooth="yes"/>
      <point x="194" y="207"/>
      <point x="172" y="274"/>
      <point x="115" y="299" type="curve"/>
      <point x="174" y="327"/>
      <point x="193" y="384"/>
      <point x="198" y="551" type="curve" smooth="yes"/>
      <point x="203" y="705"/>
      <point x="208" y="713"/>
      <point x="278" y="713" type="curve"/>
      <point x="278" y="782" type="line"/>
      <point x="148" y="782"/>
      <point x="118" y="742"/>
      <point x="108" y="551" type="curve" smooth="yes"/>
      <point x="97" y="337"/>
      <point x="92" y="333"/>
      <point x="32" y="333" type="curve" smooth="yes"/>
      <point x="27" y="333" type="line"/>
      <point x="27" y="265" type="line"/>
      <point x="32" y="265" type="line" smooth="yes"/>
      <point x="91" y="265"/>
      <point x="97" y="262"/>
      <point x="108" y="47" type="curve" smooth="yes"/>
      <point x="118" y="-154"/>
      <point x="145" y="-191"/>
    </contour>
  </outline>
</glyph>
<glyph name="asciitilde" format="2">
  <advance width="650"/>
  <unicode hex="007E"/>
  <anchor x="325" y="262" name="_center"/>
  <outline>
    <contour>
      <point x="438" y="192" type="curve" smooth="yes"/>
      <point x="511" y="192"/>
      <point x="559" y="229"/>
      <point x="576" y="298" type="curve"/>
      <point x="510" y="331" type="line"/>
      <point x="497" y="290"/>
      <point x="475" y="272"/>
      <point x="437" y="272" type="curve" smooth="yes"/>
      <point x="365" y="272"/>
      <point x="306" y="335"/>
      <point x="212" y="335" type="curve" smooth="yes"/>
      <point x="139" y="335"/>
      <point x="91" y="298"/>
      <point x="74" y="229" type="curve"/>
      <point x="140" y="196" type="line"/>
      <point x="153" y="237"/>
      <point x="175" y="255"/>
      <point x="213" y="255" type="curve" smooth="yes"/>
      <point x="285" y="255"/>
      <point x="344" y="192"/>
    </contour>
  </outline>
</glyph>
<glyph name="sterling" format="2">
  <advance width="616"/>
  <unicode hex="00A3"/>
  <outline>
    <contour>
      <point x="32" y="310" type="line"/>
      <point x="397" y="310" type="line"/>
      <point x="397" y="380" type="line"/>
      <point x="32" y="380" type="line"/>
    </contour>
    <contour>
      <point x="124" y="83" type="curve"/>
      <point x="202" y="92" type="line"/>
      <point x="226" y="179"/>
      <point x="232" y="242"/>
      <point x="232" y="317" type="curve" smooth="yes"/>
      <point x="232" y="505" type="line" smooth="yes"/>
      <point x="232" y="598"/>
      <point x="280" y="654"/>
      <point x="359" y="654" type="curve" smooth="yes"/>
      <point x="388" y="654"/>
      <point x="403" y="646"/>
      <point x="403" y="631" type="curve" smooth="yes"/>
      <point x="403" y="610"/>
      <point x="373" y="593"/>
      <point x="373" y="556" type="curve" smooth="yes"/>
      <point x="373" y="522"/>
      <point x="399" y="498"/>
      <point x="438" y="498" type="curve" smooth="yes"/>
      <point x="487" y="498"/>
      <point x="518" y="534"/>
      <point x="518" y="589" type="curve" smooth="yes"/>
      <point x="518" y="669"/>
      <point x="452" y="722"/>
      <point x="351" y="722" type="curve" smooth="yes"/>
      <point x="219" y="722"/>
      <point x="139" y="631"/>
      <point x="139" y="479" type="curve" smooth="yes"/>
      <point x="139" y="258" type="line" smooth="yes"/>
      <point x="139" y="163"/>
      <point x="138" y="131"/>
    </contour>
    <contour>
      <point x="86" y="-14" type="curve" smooth="yes"/>
      <point x="124" y="-14"/>
      <point x="157" y="11"/>
      <point x="192" y="66" type="curve"/>
      <point x="147" y="42" type="line"/>
      <point x="181" y="33"/>
      <point x="289" y="-14"/>
      <point x="388" y="-14" type="curve" smooth="yes"/>
      <point x="508" y="-14"/>
      <point x="584" y="42"/>
      <point x="584" y="131" type="curve" smooth="yes"/>
      <point x="584" y="183"/>
      <point x="558" y="214"/>
      <point x="514" y="214" type="curve" smooth="yes"/>
      <point x="477" y="214"/>
      <point x="454" y="192"/>
      <point x="454" y="156" type="curve" smooth="yes"/>
      <point x="454" y="119"/>
      <point x="479" y="98"/>
      <point x="479" y="70" type="curve" smooth="yes"/>
      <point x="479" y="53"/>
      <point x="469" y="46"/>
      <point x="442" y="46" type="curve" smooth="yes"/>
      <point x="368" y="46"/>
      <point x="277" y="113"/>
      <point x="164" y="113" type="curve" smooth="yes"/>
      <point x="79" y="113"/>
      <point x="32" y="86"/>
      <point x="32" y="37" type="curve" smooth="yes"/>
      <point x="32" y="6"/>
      <point x="51" y="-14"/>
    </contour>
  </outline>
</glyph>
<glyph name="currency" format="2">
  <advance width="535"/>
  <unicode hex="00A4"/>
  <outline>
    <contour>
      <point x="103" y="33" type="line"/>
      <point x="153" y="83" type="line"/>
      <point x="186" y="61"/>
      <point x="225" y="49"/>
      <point x="267" y="49" type="curve" smooth="yes"/>
      <point x="309" y="49"/>
      <point x="347" y="61"/>
      <point x="380" y="83" type="curve"/>
      <point x="431" y="32" type="line"/>
      <point x="492" y="93" type="line"/>
      <point x="441" y="144" type="line"/>
      <point x="463" y="177"/>
      <point x="475" y="215"/>
      <point x="475" y="257" type="curve" smooth="yes"/>
      <point x="475" y="299"/>
      <point x="463" y="337"/>
      <point x="441" y="370" type="curve"/>
      <point x="493" y="422" type="line"/>
      <point x="432" y="483" type="line"/>
      <point x="380" y="431" type="line"/>
      <point x="347" y="453"/>
      <point x="309" y="465"/>
      <point x="267" y="465" type="curve" smooth="yes"/>
      <point x="226" y="465"/>
      <point x="187" y="453"/>
      <point x="154" y="432" type="curve"/>
      <point x="103" y="483" type="line"/>
      <point x="42" y="422" type="line"/>
      <point x="93" y="371" type="line"/>
      <point x="71" y="338"/>
      <point x="58" y="299"/>
      <point x="58" y="257" type="curve" smooth="yes"/>
      <point x="58" y="215"/>
      <point x="70" y="177"/>
      <point x="92" y="144" type="curve"/>
      <point x="42" y="94" type="line"/>
    </contour>
    <contour>
      <point x="267" y="119" type="curve" smooth="yes"/>
      <point x="192" y="119"/>
      <point x="133" y="182"/>
      <point x="133" y="257" type="curve" smooth="yes"/>
      <point x="133" y="333"/>
      <point x="192" y="396"/>
      <point x="267" y="396" type="curve" smooth="yes"/>
      <point x="343" y="396"/>
      <point x="403" y="333"/>
      <point x="403" y="257" type="curve" smooth="yes"/>
      <point x="403" y="182"/>
      <point x="343" y="119"/>
    </contour>
  </outline>
</glyph>
<glyph name="brokenbar" format="2">
  <advance width="222"/>
  <unicode hex="00A6"/>
  <outline>
    <contour>
      <point x="66" y="-231" type="line"/>
      <point x="156" y="-231" type="line"/>
      <point x="156" y="326" type="line"/>
      <point x="66" y="326" type="line"/>
    </contour>
    <contour>
      <point x="66" y="384" type="line"/>
      <point x="156" y="384" type="line"/>
      <point x="156" y="858" type="line"/>
      <point x="66" y="858" type="line"/>
    </contour>
  </outline>
</glyph>
<glyph name="section" format="2">
  <advance width="508"/>
  <unicode hex="00A7"/>
  <outline>
    <contour>
      <point x="359" y="25" type="line"/>
      <point x="434" y="74"/>
      <point x="468" y="131"/>
      <point x="468" y="204" type="curve" smooth="yes"/>
      <point x="468" y="277"/>
      <point x="432" y="332"/>
      <point x="322" y="416" type="curve" smooth="yes"/>
      <point x="203" y="507"/>
      <point x="191" y="541"/>
      <point x="191" y="582" type="curve" smooth="yes"/>
      <point x="191" y="629"/>
      <point x="225" y="654"/>
      <point x="279" y="654" type="curve" smooth="yes"/>
      <point x="307" y="654"/>
      <point x="321" y="646"/>
      <point x="321" y="631" type="curve" smooth="yes"/>
      <point x="321" y="610"/>
      <point x="291" y="593"/>
      <point x="291" y="556" type="curve" smooth="yes"/>
      <point x="291" y="522"/>
      <point x="317" y="498"/>
      <point x="356" y="498" type="curve" smooth="yes"/>
      <point x="405" y="498"/>
      <point x="436" y="534"/>
      <point x="436" y="589" type="curve" smooth="yes"/>
      <point x="436" y="669"/>
      <point x="370" y="722"/>
      <point x="271" y="722" type="curve" smooth="yes"/>
      <point x="162" y="722"/>
      <point x="95" y="659"/>
      <point x="95" y="575" type="curve" smooth="yes"/>
      <point x="95" y="504"/>
      <point x="127" y="443"/>
      <point x="246" y="356" type="curve" smooth="yes"/>
      <point x="346" y="282"/>
      <point x="379" y="237"/>
      <point x="379" y="183" type="curve" smooth="yes"/>
      <point x="379" y="139"/>
      <point x="348" y="93"/>
      <point x="310" y="65" type="curve"/>
    </contour>
    <contour>
      <point x="238" y="-239" type="curve" smooth="yes"/>
      <point x="347" y="-239"/>
      <point x="414" y="-175"/>
      <point x="414" y="-91" type="curve" smooth="yes"/>
      <point x="414" y="-20"/>
      <point x="382" y="41"/>
      <point x="263" y="128" type="curve" smooth="yes"/>
      <point x="163" y="202"/>
      <point x="130" y="247"/>
      <point x="130" y="301" type="curve" smooth="yes"/>
      <point x="130" y="345"/>
      <point x="161" y="391"/>
      <point x="199" y="419" type="curve"/>
      <point x="150" y="459" type="line"/>
      <point x="75" y="410"/>
      <point x="41" y="353"/>
      <point x="41" y="280" type="curve" smooth="yes"/>
      <point x="41" y="207"/>
      <point x="77" y="152"/>
      <point x="187" y="68" type="curve" smooth="yes"/>
      <point x="306" y="-23"/>
      <point x="318" y="-57"/>
      <point x="318" y="-98" type="curve" smooth="yes"/>
      <point x="318" y="-145"/>
      <point x="284" y="-171"/>
      <point x="230" y="-171" type="curve" smooth="yes"/>
      <point x="202" y="-171"/>
      <point x="188" y="-163"/>
      <point x="188" y="-148" type="curve" smooth="yes"/>
      <point x="188" y="-127"/>
      <point x="218" y="-110"/>
      <point x="218" y="-73" type="curve" smooth="yes"/>
      <point x="218" y="-39"/>
      <point x="192" y="-15"/>
      <point x="153" y="-15" type="curve" smooth="yes"/>
      <point x="104" y="-15"/>
      <point x="73" y="-51"/>
      <point x="73" y="-106" type="curve" smooth="yes"/>
      <point x="73" y="-186"/>
      <point x="139" y="-239"/>
    </contour>
  </outline>
</glyph>
<glyph name="copyright" format="2">
  <advance width="894"/>
  <unicode hex="00A9"/>
  <outline>
    <contour>
      <point x="447" y="-14" type="curve" smooth="yes"/>
      <point x="679" y="-14"/>
      <point x="845" y="152"/>
      <point x="845" y="384" type="curve" smooth="yes"/>
      <point x="845" y="616"/>
      <point x="679" y="782"/>
      <point x="447" y="782" type="curve" smooth="yes"/>
      <point x="215" y="782"/>
      <point x="49" y="616"/>
      <point x="49" y="384" type="curve" smooth="yes"/>
      <point x="49" y="152"/>
      <point x="215" y="-14"/>
    </contour>
    <contour>
      <point x="454" y="143" type="curve" smooth="yes"/>
      <point x="543" y="143"/>
      <point x="614" y="196"/>
      <point x="640" y="282" type="curve"/>
      <point x="571" y="309" type="line"/>
      <point x="551" y="258"/>
      <point x="517" y="228"/>
      <point x="462" y="228" type="curve" smooth="yes"/>
      <point x="387" y="228"/>
      <point x="332" y="287"/>
      <point x="332" y="392" type="curve" smooth="yes"/>
      <point x="332" y="496"/>
      <point x="387" y="558"/>
      <point x="475" y="558" type="curve" smooth="yes"/>
      <point x="500" y="558"/>
      <point x="518" y="552"/>
      <point x="518" y="535" type="curve" smooth="yes"/>
      <point x="518" y="514"/>
      <point x="488" y="497"/>
      <point x="488" y="460" type="curve" smooth="yes"/>
      <point x="488" y="426"/>
      <point x="514" y="402"/>
      <point x="553" y="402" type="curve" smooth="yes"/>
      <point x="600" y="402"/>
      <point x="633" y="437"/>
      <point x="633" y="489" type="curve" smooth="yes"/>
      <point x="633" y="566"/>
      <point x="559" y="626"/>
      <point x="464" y="626" type="curve" smooth="yes"/>
      <point x="332" y="626"/>
      <point x="235" y="523"/>
      <point x="235" y="379" type="curve" smooth="yes"/>
      <point x="235" y="240"/>
      <point x="325" y="143"/>
    </contour>
    <contour>
      <point x="447" y="68" type="curve" smooth="yes"/>
      <point x="267" y="68"/>
      <point x="139" y="200"/>
      <point x="139" y="384" type="curve" smooth="yes"/>
      <point x="139" y="568"/>
      <point x="267" y="700"/>
      <point x="447" y="700" type="curve" smooth="yes"/>
      <point x="627" y="700"/>
      <point x="755" y="568"/>
      <point x="755" y="384" type="curve" smooth="yes"/>
      <point x="755" y="200"/>
      <point x="627" y="68"/>
    </contour>
  </outline>
</glyph>
<glyph name="ordfeminine" format="2">
  <advance width="428"/>
  <unicode hex="00AA"/>
  <outline>
    <contour>
      <point x="156" y="360" type="curve" smooth="yes"/>
      <point x="204" y="360"/>
      <point x="244" y="378"/>
      <point x="272" y="412" type="curve"/>
      <point x="284" y="375"/>
      <point x="305" y="360"/>
      <point x="343" y="360" type="curve" smooth="yes"/>
      <point x="369" y="360"/>
      <point x="392" y="368"/>
      <point x="417" y="385" type="curve"/>
      <point x="397" y="437" type="line"/>
      <point x="386" y="434"/>
      <point x="380" y="433"/>
      <point x="373" y="433" type="curve" smooth="yes"/>
      <point x="355" y="433"/>
      <point x="347" y="443"/>
      <point x="347" y="465" type="curve" smooth="yes"/>
      <point x="347" y="604" type="line" smooth="yes"/>
      <point x="347" y="688"/>
      <point x="309" y="723"/>
      <point x="218" y="723" type="curve" smooth="yes"/>
      <point x="125" y="723"/>
      <point x="66" y="682"/>
      <point x="66" y="621" type="curve" smooth="yes"/>
      <point x="66" y="593"/>
      <point x="82" y="577"/>
      <point x="108" y="577" type="curve" smooth="yes"/>
      <point x="132" y="577"/>
      <point x="153" y="592"/>
      <point x="153" y="611" type="curve" smooth="yes"/>
      <point x="153" y="622"/>
      <point x="148" y="631"/>
      <point x="148" y="637" type="curve" smooth="yes"/>
      <point x="148" y="650"/>
      <point x="173" y="659"/>
      <point x="207" y="659" type="curve" smooth="yes"/>
      <point x="245" y="659"/>
      <point x="267" y="644"/>
      <point x="267" y="618" type="curve" smooth="yes"/>
      <point x="267" y="595" type="line" smooth="yes"/>
      <point x="267" y="557"/>
      <point x="50" y="575"/>
      <point x="50" y="450" type="curve" smooth="yes"/>
      <point x="50" y="395"/>
      <point x="91" y="360"/>
    </contour>
    <contour>
      <point x="170" y="422" type="curve" smooth="yes"/>
      <point x="146" y="422"/>
      <point x="131" y="435"/>
      <point x="131" y="454" type="curve" smooth="yes"/>
      <point x="131" y="507"/>
      <point x="241" y="506"/>
      <point x="267" y="541" type="curve"/>
      <point x="267" y="469" type="line"/>
      <point x="238" y="438"/>
      <point x="205" y="422"/>
    </contour>
  </outline>
</glyph>
<glyph name="logicalnot" format="2">
  <advance width="647"/>
  <unicode hex="00AC"/>
  <outline>
    <contour>
      <point x="488" y="50" type="line"/>
      <point x="574" y="50" type="line"/>
      <point x="574" y="305" type="line"/>
      <point x="73" y="305" type="line"/>
      <point x="73" y="225" type="line"/>
      <point x="488" y="225" type="line"/>
    </contour>
  </outline>
</glyph>
<glyph name="registered" format="2">
  <advance width="701"/>
  <unicode hex="00AE"/>
  <outline>
    <contour>
      <point x="351" y="210" type="curve" smooth="yes"/>
      <point x="513" y="210"/>
      <point x="644" y="341"/>
      <point x="644" y="503" type="curve" smooth="yes"/>
      <point x="644" y="665"/>
      <point x="513" y="796"/>
      <point x="351" y="796" type="curve" smooth="yes"/>
      <point x="189" y="796"/>
      <point x="58" y="665"/>
      <point x="58" y="503" type="curve" smooth="yes"/>
      <point x="58" y="341"/>
      <point x="189" y="210"/>
    </contour>
    <contour>
      <point x="351" y="259" type="curve" smooth="yes"/>
      <point x="219" y="259"/>
      <point x="112" y="369"/>
      <point x="112" y="503" type="curve" smooth="yes"/>
      <point x="112" y="637"/>
      <point x="219" y="747"/>
      <point x="351" y="747" type="curve" smooth="yes"/>
      <point x="483" y="747"/>
      <point x="590" y="637"/>
      <point x="590" y="503" type="curve" smooth="yes"/>
      <point x="590" y="369"/>
      <point x="483" y="259"/>
    </contour>
    <contour>
      <point x="208" y="347" type="line"/>
      <point x="232" y="347"/>
      <point x="256" y="348"/>
      <point x="280" y="348" type="curve" smooth="yes"/>
      <point x="303" y="348"/>
      <point x="325" y="347"/>
      <point x="361" y="347" type="curve"/>
      <point x="361" y="382" type="line"/>
      <point x="312" y="384"/>
      <point x="308" y="389"/>
      <point x="308" y="419" type="curve" smooth="yes"/>
      <point x="308" y="636" type="line"/>
      <point x="347" y="636" type="line" smooth="yes"/>
      <point x="391" y="636"/>
      <point x="413" y="619"/>
      <point x="413" y="585" type="curve" smooth="yes"/>
      <point x="413" y="546"/>
      <point x="392" y="526"/>
      <point x="352" y="526" type="curve" smooth="yes"/>
      <point x="279" y="526" type="line"/>
      <point x="279" y="490" type="line"/>
      <point x="349" y="490" type="line" smooth="yes"/>
      <point x="429" y="490"/>
      <point x="474" y="531"/>
      <point x="474" y="587" type="curve" smooth="yes"/>
      <point x="474" y="641"/>
      <point x="433" y="671"/>
      <point x="362" y="671" type="curve" smooth="yes"/>
      <point x="349" y="671"/>
      <point x="313" y="670"/>
      <point x="276" y="670" type="curve" smooth="yes"/>
      <point x="233" y="670"/>
      <point x="226" y="670"/>
      <point x="208" y="671" type="curve"/>
      <point x="208" y="636" type="line"/>
      <point x="247" y="634"/>
      <point x="251" y="629"/>
      <point x="251" y="598" type="curve" smooth="yes"/>
      <point x="251" y="419" type="line" smooth="yes"/>
      <point x="251" y="389"/>
      <point x="247" y="384"/>
      <point x="208" y="382" type="curve"/>
    </contour>
    <contour>
      <point x="466" y="339" type="curve" smooth="yes"/>
      <point x="489" y="339"/>
      <point x="508" y="349"/>
      <point x="518" y="364" type="curve"/>
      <point x="497" y="389" type="line"/>
      <point x="493" y="385"/>
      <point x="490" y="382"/>
      <point x="484" y="382" type="curve" smooth="yes"/>
      <point x="478" y="382"/>
      <point x="474" y="385"/>
      <point x="471" y="397" type="curve" smooth="yes"/>
      <point x="460" y="440" type="line" smooth="yes"/>
      <point x="449" y="484"/>
      <point x="430" y="497"/>
      <point x="373" y="502" type="curve"/>
      <point x="344" y="509" type="line"/>
      <point x="346" y="490" type="line"/>
      <point x="375" y="489"/>
      <point x="390" y="479"/>
      <point x="400" y="436" type="curve" smooth="yes"/>
      <point x="411" y="390" type="line" smooth="yes"/>
      <point x="419" y="356"/>
      <point x="435" y="339"/>
    </contour>
  </outline>
</glyph>
<glyph name="degree" format="2">
  <advance width="333"/>
  <unicode hex="00B0"/>
  <outline>
    <contour>
      <point x="166" y="503" type="curve" smooth="yes"/>
      <point x="257" y="503"/>
      <point x="324" y="570"/>
      <point x="324" y="660" type="curve" smooth="yes"/>
      <point x="324" y="749"/>
      <point x="257" y="816"/>
      <point x="166" y="816" type="curve" smooth="yes"/>
      <point x="76" y="816"/>
      <point x="9" y="749"/>
      <point x="9" y="660" type="curve" smooth="yes"/>
      <point x="9" y="570"/>
      <point x="76" y="503"/>
    </contour>
    <contour>
      <point x="166" y="570" type="curve" smooth="yes"/>
      <point x="118" y="570"/>
      <point x="84" y="607"/>
      <point x="84" y="659" type="curve" smooth="yes"/>
      <point x="84" y="709"/>
      <point x="120" y="749"/>
      <point x="166" y="749" type="curve" smooth="yes"/>
      <point x="212" y="749"/>
      <point x="249" y="709"/>
      <point x="249" y="659" type="curve" smooth="yes"/>
      <point x="249" y="608"/>
      <point x="214" y="570"/>
    </contour>
  </outline>
</glyph>
<glyph name="paragraph" format="2">
  <advance width="786"/>
  <unicode hex="00B6"/>
  <outline>
    <contour>
      <point x="321" y="-231" type="line"/>
      <point x="357" y="-229"/>
      <point x="426" y="-228"/>
      <point x="526" y="-228" type="curve" smooth="yes"/>
      <point x="614" y="-228"/>
      <point x="678" y="-229"/>
      <point x="716" y="-231" type="curve"/>
      <point x="716" y="-161" type="line"/>
      <point x="594" y="-158"/>
      <point x="575" y="-146"/>
      <point x="575" y="-75" type="curve" smooth="yes"/>
      <point x="575" y="552" type="line" smooth="yes"/>
      <point x="575" y="623"/>
      <point x="594" y="635"/>
      <point x="716" y="638" type="curve"/>
      <point x="716" y="708" type="line"/>
      <point x="642" y="706"/>
      <point x="529" y="709"/>
      <point x="449" y="709" type="curve" smooth="yes"/>
      <point x="215" y="709"/>
      <point x="83" y="605"/>
      <point x="83" y="431" type="curve" smooth="yes"/>
      <point x="83" y="277"/>
      <point x="187" y="147"/>
      <point x="482" y="147" type="curve"/>
      <point x="482" y="-75" type="line" smooth="yes"/>
      <point x="482" y="-146"/>
      <point x="460" y="-158"/>
      <point x="321" y="-161" type="curve"/>
    </contour>
    <contour>
      <point x="483" y="228" type="line"/>
      <point x="474" y="228"/>
      <point x="443" y="279"/>
      <point x="437" y="348" type="curve"/>
      <point x="355" y="290"/>
      <point x="312" y="269"/>
      <point x="296" y="270" type="curve"/>
      <point x="296" y="285"/>
      <point x="319" y="324"/>
      <point x="383" y="399" type="curve"/>
      <point x="264" y="401"/>
      <point x="196" y="418"/>
      <point x="192" y="431" type="curve"/>
      <point x="196" y="442"/>
      <point x="264" y="462"/>
      <point x="383" y="464" type="curve"/>
      <point x="319" y="539"/>
      <point x="295" y="578"/>
      <point x="296" y="594" type="curve"/>
      <point x="312" y="594"/>
      <point x="354" y="574"/>
      <point x="437" y="515" type="curve"/>
      <point x="443" y="581"/>
      <point x="474" y="636"/>
      <point x="483" y="636" type="curve"/>
    </contour>
  </outline>
</glyph>
<glyph name="ordmasculine" format="2">
  <advance width="454"/>
  <unicode hex="00BA"/>
  <outline>
    <contour>
      <point x="227" y="360" type="curve" smooth="yes"/>
      <point x="315" y="360"/>
      <point x="404" y="422"/>
      <point x="404" y="541" type="curve" smooth="yes"/>
      <point x="404" y="660"/>
      <point x="315" y="722"/>
      <point x="227" y="722" type="curve" smooth="yes"/>
      <point x="139" y="722"/>
      <point x="50" y="660"/>
      <point x="50" y="541" type="curve" smooth="yes"/>
      <point x="50" y="422"/>
      <point x="139" y="360"/>
    </contour>
    <contour>
      <point x="227" y="428" type="curve" smooth="yes"/>
      <point x="176" y="428"/>
      <point x="133" y="461"/>
      <point x="133" y="541" type="curve" smooth="yes"/>
      <point x="133" y="621"/>
      <point x="176" y="654"/>
      <point x="227" y="654" type="curve" smooth="yes"/>
      <point x="278" y="654"/>
      <point x="321" y="621"/>
      <point x="321" y="541" type="curve" smooth="yes"/>
      <point x="321" y="461"/>
      <point x="278" y="428"/>
    </contour>
  </outline>
</glyph>
<glyph name="AE" format="2">
  <advance width="944"/>
  <unicode hex="00C6"/>
  <anchor x="442" y="0" name="bottom"/>
  <anchor x="457" y="708" name="top"/>
  <anchor x="457" y="688" name="top_low_1"/>
  <anchor x="457" y="668" name="top_low_2"/>
  <anchor x="457" y="648" name="top_low_3"/>
  <outline>
    <contour>
      <point x="-10" y="0" type="line"/>
      <point x="16" y="2"/>
      <point x="66" y="3"/>
      <point x="135" y="3" type="curve" smooth="yes"/>
      <point x="159" y="3"/>
      <point x="189" y="2"/>
      <point x="271" y="0" type="curve"/>
      <point x="271" y="70" type="line"/>
      <point x="188" y="70"/>
      <point x="169" y="116"/>
      <point x="218" y="199" type="curve" smooth="yes"/>
      <point x="555" y="772" type="line"/>
      <point x="481" y="772" type="line"/>
      <point x="135" y="185" type="line" smooth="yes"/>
      <point x="85" y="100"/>
      <point x="47" y="70"/>
      <point x="-10" y="70" type="curve"/>
    </contour>
    <contour>
      <point x="255" y="321" type="line"/>
      <point x="624" y="321" type="line"/>
      <point x="624" y="391" type="line"/>
      <point x="296" y="391" type="line"/>
    </contour>
    <contour>
      <point x="490" y="3" type="curve"/>
      <point x="496" y="3" type="line"/>
      <point x="632" y="3" type="line"/>
      <point x="721" y="3"/>
      <point x="787" y="2"/>
      <point x="836" y="0" type="curve"/>
      <point x="837" y="92"/>
      <point x="842" y="174"/>
      <point x="852" y="250" type="curve"/>
      <point x="779" y="250" type="line"/>
      <point x="744" y="104"/>
      <point x="717" y="73"/>
      <point x="620" y="73" type="curve"/>
      <point x="612" y="73" type="line" smooth="yes"/>
      <point x="552" y="73"/>
      <point x="541" y="85"/>
      <point x="541" y="156" type="curve" smooth="yes"/>
      <point x="541" y="635" type="line"/>
      <point x="571" y="635" type="line"/>
      <point x="681" y="635"/>
      <point x="712" y="613"/>
      <point x="733" y="508" type="curve"/>
      <point x="806" y="508" type="line"/>
      <point x="800" y="569"/>
      <point x="797" y="634"/>
      <point x="796" y="708" type="curve"/>
      <point x="746" y="706"/>
      <point x="680" y="705"/>
      <point x="589" y="705" type="curve"/>
      <point x="496" y="705" type="line"/>
      <point x="484" y="705" type="line"/>
      <point x="424" y="705"/>
      <point x="344" y="707"/>
      <point x="308" y="708" type="curve"/>
      <point x="308" y="638" type="line"/>
      <point x="353" y="634" type="line"/>
      <point x="429" y="627"/>
      <point x="448" y="611"/>
      <point x="448" y="552" type="curve"/>
      <point x="448" y="156" type="line"/>
      <point x="448" y="97"/>
      <point x="434" y="82"/>
      <point x="377" y="74" type="curve"/>
      <point x="350" y="70" type="line"/>
      <point x="350" y="0" type="line"/>
      <point x="379" y="1"/>
      <point x="443" y="3"/>
    </contour>
    <contour>
      <point x="639" y="214" type="curve"/>
      <point x="709" y="214" type="line"/>
      <point x="704" y="290"/>
      <point x="704" y="323"/>
      <point x="704" y="356" type="curve" smooth="yes"/>
      <point x="704" y="389"/>
      <point x="704" y="422"/>
      <point x="709" y="498" type="curve"/>
      <point x="639" y="498" type="line"/>
      <point x="633" y="433"/>
      <point x="616" y="391"/>
      <point x="558" y="391" type="curve"/>
      <point x="558" y="321" type="line"/>
      <point x="616" y="321"/>
      <point x="633" y="279"/>
    </contour>
  </outline>
</glyph>
<glyph name="multiply" format="2">
  <advance width="510"/>
  <unicode hex="00D7"/>
  <outline>
    <contour>
      <point x="100" y="53" type="line"/>
      <point x="256" y="209" type="line"/>
      <point x="411" y="54" type="line"/>
      <point x="469" y="111" type="line"/>
      <point x="313" y="267" type="line"/>
      <point x="469" y="421" type="line"/>
      <point x="411" y="478" type="line"/>
      <point x="257" y="323" type="line"/>
      <point x="99" y="481" type="line"/>
      <point x="41" y="423" type="line"/>
      <point x="199" y="265" type="line"/>
      <point x="42" y="110" type="line"/>
    </contour>
  </outline>
</glyph>
<glyph name="germandbls" format="2">
  <advance width="703"/>
  <unicode hex="00DF"/>
  <outline>
    <contour>
      <point x="446" y="-14" type="curve" smooth="yes"/>
      <point x="561" y="-14"/>
      <point x="641" y="77"/>
      <point x="641" y="208" type="curve" smooth="yes"/>
      <point x="641" y="310"/>
      <point x="593" y="394"/>
      <point x="509" y="441" type="curve"/>
      <point x="549" y="491"/>
      <point x="570" y="549"/>
      <point x="570" y="610" type="curve" smooth="yes"/>
      <point x="570" y="717"/>
      <point x="498" y="782"/>
      <point x="380" y="782" type="curve" smooth="yes"/>
      <point x="246" y="782"/>
      <point x="176" y="698"/>
      <point x="176" y="538" type="curve" smooth="yes"/>
      <point x="176" y="162" type="line"/>
      <point x="176" y="101"/>
      <point x="154" y="80"/>
      <point x="95" y="75" type="curve"/>
      <point x="40" y="70" type="line"/>
      <point x="40" y="0" type="line"/>
      <point x="58" y="1"/>
      <point x="83" y="2"/>
      <point x="108" y="2" type="curve"/>
      <point x="175" y="2"/>
      <point x="226" y="-3"/>
      <point x="266" y="-12" type="curve"/>
      <point x="266" y="0" type="line"/>
      <point x="266" y="564" type="line" smooth="yes"/>
      <point x="266" y="665"/>
      <point x="304" y="717"/>
      <point x="378" y="717" type="curve" smooth="yes"/>
      <point x="445" y="717"/>
      <point x="480" y="676"/>
      <point x="480" y="597" type="curve" smooth="yes"/>
      <point x="480" y="545"/>
      <point x="465" y="497"/>
      <point x="438" y="462" type="curve"/>
      <point x="421" y="464"/>
      <point x="405" y="468"/>
      <point x="393" y="468" type="curve" smooth="yes"/>
      <point x="367" y="468"/>
      <point x="348" y="451"/>
      <point x="348" y="427" type="curve" smooth="yes"/>
      <point x="348" y="404"/>
      <point x="366" y="386"/>
      <point x="389" y="386" type="curve" smooth="yes"/>
      <point x="402" y="386"/>
      <point x="412" y="391"/>
      <point x="436" y="399" type="curve"/>
      <point x="508" y="367"/>
      <point x="551" y="293"/>
      <point x="551" y="199" type="curve" smooth="yes"/>
      <point x="551" y="108"/>
      <point x="510" y="51"/>
      <point x="443" y="51" type="curve" smooth="yes"/>
      <point x="427" y="51"/>
      <point x="421" y="54"/>
      <point x="421" y="63" type="curve" smooth="yes"/>
      <point x="421" y="79"/>
      <point x="443" y="94"/>
      <point x="443" y="125" type="curve" smooth="yes"/>
      <point x="443" y="155"/>
      <point x="422" y="174"/>
      <point x="388" y="174" type="curve" smooth="yes"/>
      <point x="344" y="174"/>
      <point x="315" y="142"/>
      <point x="315" y="94" type="curve" smooth="yes"/>
      <point x="315" y="29"/>
      <point x="367" y="-14"/>
    </contour>
  </outline>
</glyph>
<glyph name="ae" format="2">
  <advance width="872"/>
  <unicode hex="00E6"/>
  <anchor x="441" y="0" name="bottom"/>
  <anchor x="650" y="0" name="ogonek"/>
  <anchor x="435" y="512" name="top"/>
  <outline>
    <contour>
      <point x="592" y="-14" type="curve" smooth="yes"/>
      <point x="680" y="-14"/>
      <point x="755" y="39"/>
      <point x="782" y="125" type="curve"/>
      <point x="716" y="158" type="line"/>
      <point x="689" y="98"/>
      <point x="648" y="71"/>
      <point x="596" y="71" type="curve" smooth="yes"/>
      <point x="514" y="71"/>
      <point x="464" y="143"/>
      <point x="464" y="259" type="curve" smooth="yes"/>
      <point x="464" y="278"/>
      <point x="465" y="293"/>
      <point x="466" y="304" type="curve"/>
      <point x="463" y="308" type="line"/>
      <point x="472" y="416"/>
      <point x="527" y="460"/>
      <point x="588" y="460" type="curve" smooth="yes"/>
      <point x="657" y="460"/>
      <point x="687" y="401"/>
      <point x="684" y="325" type="curve"/>
      <point x="426" y="325" type="line"/>
      <point x="427" y="256" type="line"/>
      <point x="780" y="256" type="line"/>
      <point x="787" y="462"/>
      <point x="704" y="529"/>
      <point x="599" y="529" type="curve" smooth="yes"/>
      <point x="456" y="529"/>
      <point x="374" y="416"/>
      <point x="374" y="258" type="curve" smooth="yes"/>
      <point x="374" y="93"/>
      <point x="464" y="-14"/>
    </contour>
    <contour>
      <point x="249" y="69" type="curve" smooth="yes"/>
      <point x="203" y="69"/>
      <point x="174" y="95"/>
      <point x="174" y="135" type="curve" smooth="yes"/>
      <point x="174" y="228"/>
      <point x="326" y="225"/>
      <point x="374" y="257" type="curve"/>
      <point x="374" y="256" type="line"/>
      <point x="399" y="169" type="line"/>
      <point x="357" y="95"/>
      <point x="302" y="69"/>
    </contour>
    <contour>
      <point x="231" y="-14" type="curve" smooth="yes"/>
      <point x="319" y="-14"/>
      <point x="386" y="30"/>
      <point x="433" y="108" type="curve"/>
      <point x="461" y="411" type="line"/>
      <point x="461" y="497"/>
      <point x="390" y="529"/>
      <point x="304" y="529" type="curve" smooth="yes"/>
      <point x="184" y="529"/>
      <point x="93" y="471"/>
      <point x="93" y="395" type="curve" smooth="yes"/>
      <point x="93" y="352"/>
      <point x="119" y="323"/>
      <point x="158" y="323" type="curve" smooth="yes"/>
      <point x="188" y="323"/>
      <point x="208" y="340"/>
      <point x="208" y="367" type="curve" smooth="yes"/>
      <point x="208" y="393"/>
      <point x="188" y="411"/>
      <point x="188" y="427" type="curve" smooth="yes"/>
      <point x="188" y="446"/>
      <point x="222" y="459"/>
      <point x="272" y="459" type="curve" smooth="yes"/>
      <point x="345" y="459"/>
      <point x="381" y="432"/>
      <point x="381" y="378" type="curve" smooth="yes"/>
      <point x="381" y="347" type="line" smooth="yes"/>
      <point x="381" y="270"/>
      <point x="80" y="316"/>
      <point x="80" y="125" type="curve" smooth="yes"/>
      <point x="80" y="42"/>
      <point x="141" y="-14"/>
    </contour>
  </outline>
</glyph>
<glyph name="eth" format="2">
  <advance width="588"/>
  <unicode hex="00F0"/>
  <outline>
    <contour>
      <point x="306" y="-14" type="curve" smooth="yes"/>
      <point x="452" y="-14"/>
      <point x="532" y="90"/>
      <point x="532" y="277" type="curve" smooth="yes"/>
      <point x="532" y="522"/>
      <point x="394" y="725"/>
      <point x="175" y="782" type="curve"/>
      <point x="149" y="724" type="line"/>
      <point x="340" y="657"/>
      <point x="437" y="502"/>
      <point x="437" y="280" type="curve" smooth="yes"/>
      <point x="437" y="130"/>
      <point x="393" y="56"/>
      <point x="305" y="56" type="curve" smooth="yes"/>
      <point x="223" y="56"/>
      <point x="177" y="122"/>
      <point x="177" y="238" type="curve" smooth="yes"/>
      <point x="177" y="356"/>
      <point x="225" y="421"/>
      <point x="314" y="421" type="curve" smooth="yes"/>
      <point x="380" y="421"/>
      <point x="426" y="381"/>
      <point x="440" y="311" type="curve"/>
      <point x="440" y="401" type="line"/>
      <point x="424" y="462"/>
      <point x="376" y="494"/>
      <point x="301" y="494" type="curve" smooth="yes"/>
      <point x="167" y="494"/>
      <point x="80" y="393"/>
      <point x="80" y="238" type="curve" smooth="yes"/>
      <point x="80" y="83"/>
      <point x="167" y="-14"/>
    </contour>
    <contour>
      <point x="166" y="541" type="line"/>
      <point x="351" y="631" type="line"/>
      <point x="314" y="685" type="line"/>
      <point x="137" y="599" type="line"/>
    </contour>
    <contour>
      <point x="351" y="631" type="line"/>
      <point x="513" y="710" type="line"/>
      <point x="484" y="768" type="line"/>
      <point x="314" y="685" type="line"/>
    </contour>
  </outline>
</glyph>
<glyph name="divide" format="2">
  <advance width="647"/>
  <unicode hex="00F7"/>
  <outline>
    <contour>
      <point x="323" y="25" type="curve" smooth="yes"/>
      <point x="360" y="25"/>
      <point x="390" y="55"/>
      <point x="390" y="92" type="curve" smooth="yes"/>
      <point x="390" y="128"/>
      <point x="360" y="158"/>
      <point x="323" y="158" type="curve" smooth="yes"/>
      <point x="287" y="158"/>
      <point x="257" y="128"/>
      <point x="257" y="92" type="curve" smooth="yes"/>
      <point x="257" y="55"/>
      <point x="287" y="25"/>
    </contour>
    <contour>
      <point x="323" y="374" type="curve" smooth="yes"/>
      <point x="360" y="374"/>
      <point x="390" y="403"/>
      <point x="390" y="440" type="curve" smooth="yes"/>
      <point x="390" y="476"/>
      <point x="360" y="506"/>
      <point x="323" y="506" type="curve" smooth="yes"/>
      <point x="287" y="506"/>
      <point x="257" y="476"/>
      <point x="257" y="440" type="curve" smooth="yes"/>
      <point x="257" y="403"/>
      <point x="287" y="374"/>
    </contour>
    <component base="minus"/>
  </outline>
</glyph>
<glyph name="Aogonek" format="2">
  <advance width="817"/>
  <unicode hex="0104"/>
  <anchor x="390" y="354" name="center"/>
  <anchor x="390" y="708" name="top"/>
  <anchor x="390" y="688" name="top_low_1"/>
  <anchor x="390" y="668" name="top_low_2"/>
  <anchor x="390" y="648" name="top_low_3"/>
  <outline>
    <contour>
      <point x="245" y="209" type="curve"/>
      <point x="396" y="609" type="line"/>
      <point x="369" y="594" type="line"/>
      <point x="554" y="109" type="line"/>
      <point x="572" y="59"/>
      <point x="578" y="37"/>
      <point x="507" y="-22" type="curve"/>
      <point x="441" y="-76"/>
      <point x="417" y="-118"/>
      <point x="417" y="-159" type="curve"/>
      <point x="417" y="-207"/>
      <point x="455" y="-239"/>
      <point x="514" y="-239" type="curve"/>
      <point x="552" y="-239"/>
      <point x="595" y="-225"/>
      <point x="621" y="-203" type="curve"/>
      <point x="596" y="-148" type="line"/>
      <point x="584" y="-158"/>
      <point x="566" y="-164"/>
      <point x="547" y="-164" type="curve"/>
      <point x="523" y="-164"/>
      <point x="511" y="-154"/>
      <point x="511" y="-133" type="curve"/>
      <point x="511" y="-64"/>
      <point x="612" y="9"/>
      <point x="784" y="0" type="curve"/>
      <point x="784" y="70" type="line"/>
      <point x="698" y="70"/>
      <point x="658" y="96"/>
      <point x="629" y="170" type="curve"/>
      <point x="425" y="708" type="line"/>
      <point x="359" y="708" type="line"/>
      <point x="164" y="199" type="line"/>
      <point x="129" y="105"/>
      <point x="100" y="80"/>
      <point x="20" y="72" type="curve"/>
      <point x="1" y="70" type="line"/>
      <point x="1" y="0" type="line"/>
      <point x="48" y="2"/>
      <point x="102" y="3"/>
      <point x="156" y="3" type="curve"/>
      <point x="209" y="3"/>
      <point x="271" y="2"/>
      <point x="334" y="0" type="curve"/>
      <point x="334" y="70" type="line"/>
      <point x="307" y="73" type="line"/>
      <point x="232" y="81"/>
      <point x="213" y="123"/>
    </contour>
    <contour>
      <point x="205" y="223" type="line"/>
      <point x="566" y="223" type="line"/>
      <point x="541" y="293" type="line"/>
      <point x="233" y="293" type="line"/>
    </contour>
  </outline>
</glyph>
<glyph name="idotless" format="2">
  <advance width="432"/>
  <unicode hex="0131"/>
  <anchor x="176" y="256" name="#entry"/>
  <anchor x="266" y="256" name="#exit"/>
  <anchor x="-162" y="0" name="%entry"/>
  <anchor x="176" y="0" name="%exit"/>
  <anchor x="0" y="0" name="^entry"/>
  <anchor x="427" y="0" name="^exit"/>
  <anchor x="221" y="0" name="bottom"/>
  <anchor x="221" y="257" name="center"/>
  <anchor x="361" y="0" name="ogonek"/>
  <anchor x="176" y="256" name="stem"/>
  <anchor x="221" y="512" name="top"/>
  <anchor x="221" y="492" name="top_low_1"/>
  <anchor x="221" y="472" name="top_low_2"/>
  <anchor x="221" y="452" name="top_low_3"/>
  <anchor x="266" y="514" name="topright"/>
  <outline>
    <contour>
      <point x="176" y="256" type="line"/>
      <point x="266" y="256" type="line"/>
      <point x="266" y="514" type="line"/>
      <point x="266" y="526" type="line"/>
      <point x="226" y="517"/>
      <point x="175" y="512"/>
      <point x="108" y="512" type="curve"/>
      <point x="83" y="512"/>
      <point x="58" y="513"/>
      <point x="40" y="514" type="curve"/>
      <point x="40" y="444" type="line"/>
      <point x="95" y="439" type="line"/>
      <point x="154" y="434"/>
      <point x="176" y="413"/>
      <point x="176" y="352" type="curve"/>
    </contour>
    <contour>
      <point x="221" y="3" type="curve"/>
      <point x="221" y="3" type="line"/>
      <point x="221" y="3" type="line"/>
      <point x="301" y="3"/>
      <point x="349" y="1"/>
      <point x="402" y="0" type="curve"/>
      <point x="402" y="70" type="line"/>
      <point x="347" y="75" type="line"/>
      <point x="288" y="80"/>
      <point x="266" y="101"/>
      <point x="266" y="162" type="curve"/>
      <point x="266" y="256" type="line"/>
      <point x="176" y="256" type="line"/>
      <point x="176" y="162" type="line"/>
      <point x="176" y="101"/>
      <point x="154" y="80"/>
      <point x="95" y="75" type="curve"/>
      <point x="40" y="70" type="line"/>
      <point x="40" y="0" type="line"/>
      <point x="93" y="1"/>
      <point x="141" y="3"/>
    </contour>
  </outline>
</glyph>
<glyph name="OE" format="2">
  <advance width="1018"/>
  <unicode hex="0152"/>
  <anchor x="503" y="0" name="bottom"/>
  <anchor x="494" y="708" name="top"/>
  <anchor x="494" y="688" name="top_low_1"/>
  <anchor x="494" y="668" name="top_low_2"/>
  <anchor x="494" y="648" name="top_low_3"/>
  <outline>
    <contour>
      <point x="401" y="-14" type="curve" smooth="yes"/>
      <point x="469" y="-14"/>
      <point x="503" y="3"/>
      <point x="572" y="3" type="curve" smooth="yes"/>
      <point x="603" y="3"/>
      <point x="633" y="3"/>
      <point x="651" y="3" type="curve" smooth="yes"/>
      <point x="674" y="3" type="line"/>
      <point x="777" y="3"/>
      <point x="853" y="2"/>
      <point x="910" y="0" type="curve"/>
      <point x="911" y="92"/>
      <point x="916" y="174"/>
      <point x="926" y="250" type="curve"/>
      <point x="853" y="250" type="line"/>
      <point x="829" y="104"/>
      <point x="802" y="73"/>
      <point x="708" y="73" type="curve"/>
      <point x="696" y="73" type="line" smooth="yes"/>
      <point x="626" y="73"/>
      <point x="615" y="85"/>
      <point x="615" y="156" type="curve" smooth="yes"/>
      <point x="615" y="635" type="line"/>
      <point x="683" y="635" type="line"/>
      <point x="793" y="635"/>
      <point x="824" y="613"/>
      <point x="841" y="508" type="curve"/>
      <point x="914" y="508" type="line"/>
      <point x="908" y="569"/>
      <point x="905" y="634"/>
      <point x="904" y="708" type="curve"/>
      <point x="851" y="706"/>
      <point x="781" y="705"/>
      <point x="685" y="706" type="curve"/>
      <point x="568" y="706" type="line" smooth="yes"/>
      <point x="487" y="706"/>
      <point x="465" y="722"/>
      <point x="404" y="722" type="curve" smooth="yes"/>
      <point x="211" y="722"/>
      <point x="83" y="571"/>
      <point x="83" y="345" type="curve" smooth="yes"/>
      <point x="83" y="125"/>
      <point x="206" y="-14"/>
    </contour>
    <contour>
      <point x="399" y="54" type="curve" smooth="yes"/>
      <point x="273" y="54"/>
      <point x="183" y="181"/>
      <point x="183" y="357" type="curve" smooth="yes"/>
      <point x="183" y="535"/>
      <point x="270" y="654"/>
      <point x="400" y="654" type="curve" smooth="yes"/>
      <point x="476" y="654"/>
      <point x="522" y="615"/>
      <point x="522" y="552" type="curve" smooth="yes"/>
      <point x="522" y="156" type="line" smooth="yes"/>
      <point x="522" y="95"/>
      <point x="472" y="54"/>
    </contour>
    <contour>
      <point x="585" y="321" type="line"/>
      <point x="708" y="321" type="line"/>
      <point x="708" y="391" type="line"/>
      <point x="585" y="391" type="line"/>
    </contour>
    <contour>
      <point x="713" y="214" type="curve"/>
      <point x="783" y="214" type="line"/>
      <point x="778" y="290"/>
      <point x="778" y="323"/>
      <point x="778" y="356" type="curve" smooth="yes"/>
      <point x="778" y="389"/>
      <point x="778" y="422"/>
      <point x="783" y="498" type="curve"/>
      <point x="713" y="498" type="line"/>
      <point x="707" y="433"/>
      <point x="690" y="391"/>
      <point x="632" y="391" type="curve"/>
      <point x="632" y="321" type="line"/>
      <point x="690" y="321"/>
      <point x="707" y="279"/>
    </contour>
  </outline>
</glyph>
<glyph name="oe" format="2">
  <advance width="912"/>
  <unicode hex="0153"/>
  <anchor x="453" y="0" name="bottom"/>
  <anchor x="460" y="512" name="top"/>
  <outline>
    <contour>
      <point x="289" y="-14" type="curve" smooth="yes"/>
      <point x="419" y="-14"/>
      <point x="494" y="85"/>
      <point x="494" y="257" type="curve" smooth="yes"/>
      <point x="494" y="429"/>
      <point x="419" y="528"/>
      <point x="289" y="528" type="curve" smooth="yes"/>
      <point x="158" y="528"/>
      <point x="80" y="428"/>
      <point x="80" y="258" type="curve" smooth="yes"/>
      <point x="80" y="87"/>
      <point x="158" y="-14"/>
    </contour>
    <contour>
      <point x="292" y="56" type="curve" smooth="yes"/>
      <point x="217" y="56"/>
      <point x="177" y="126"/>
      <point x="177" y="257" type="curve" smooth="yes"/>
      <point x="177" y="388"/>
      <point x="217" y="458"/>
      <point x="292" y="458" type="curve" smooth="yes"/>
      <point x="367" y="458"/>
      <point x="407" y="388"/>
      <point x="407" y="257" type="curve" smooth="yes"/>
      <point x="407" y="126"/>
      <point x="367" y="56"/>
    </contour>
    <contour>
      <point x="625" y="-14" type="curve" smooth="yes"/>
      <point x="720" y="-14"/>
      <point x="795" y="39"/>
      <point x="822" y="125" type="curve"/>
      <point x="756" y="158" type="line"/>
      <point x="729" y="98"/>
      <point x="688" y="71"/>
      <point x="636" y="71" type="curve" smooth="yes"/>
      <point x="554" y="71"/>
      <point x="504" y="143"/>
      <point x="504" y="259" type="curve" smooth="yes"/>
      <point x="504" y="278"/>
      <point x="505" y="293"/>
      <point x="506" y="304" type="curve"/>
      <point x="503" y="308" type="line"/>
      <point x="512" y="416"/>
      <point x="567" y="460"/>
      <point x="628" y="460" type="curve" smooth="yes"/>
      <point x="697" y="460"/>
      <point x="727" y="401"/>
      <point x="724" y="325" type="curve"/>
      <point x="466" y="325" type="line"/>
      <point x="467" y="256" type="line"/>
      <point x="820" y="256" type="line"/>
      <point x="827" y="462"/>
      <point x="744" y="529"/>
      <point x="632" y="529" type="curve" smooth="yes"/>
      <point x="495" y="529"/>
      <point x="417" y="416"/>
      <point x="417" y="258" type="curve" smooth="yes"/>
      <point x="417" y="93"/>
      <point x="503" y="-14"/>
    </contour>
  </outline>
</glyph>
<glyph name="bstroke" format="2">
  <advance width="684"/>
  <unicode hex="0180"/>
  <anchor x="258" y="256" name="#entry"/>
  <anchor x="258" y="256" name="#exit"/>
  <anchor x="373" y="255" name="center"/>
  <anchor x="321" y="512" name="top"/>
  <anchor x="168" y="512" name="top-left"/>
  <outline>
    <contour>
      <point x="411" y="491" type="curve" smooth="yes"/>
      <point x="316" y="491"/>
      <point x="244" y="430"/>
      <point x="230" y="340" type="curve"/>
      <point x="251" y="301" type="line"/>
      <point x="265" y="367"/>
      <point x="318" y="411"/>
      <point x="384" y="411" type="curve" smooth="yes"/>
      <point x="465" y="411"/>
      <point x="507" y="353"/>
      <point x="507" y="241" type="curve" smooth="yes"/>
      <point x="507" y="121"/>
      <point x="457" y="56"/>
      <point x="367" y="56" type="curve" smooth="yes"/>
      <point x="314" y="56"/>
      <point x="274" y="85"/>
      <point x="257" y="136" type="curve"/>
      <point x="234" y="66" type="line"/>
      <point x="262" y="12"/>
      <point x="313" y="-17"/>
      <point x="381" y="-17" type="curve" smooth="yes"/>
      <point x="517" y="-17"/>
      <point x="604" y="85"/>
      <point x="604" y="247" type="curve" smooth="yes"/>
      <point x="604" y="394"/>
      <point x="527" y="491"/>
    </contour>
    <component base="_LC-baseline-left-instroke"/>
    <component base="_LC-ascender-serifless" xOffset="-8"/>
    <component base="strokeshortcomb" xOffset="-13" yOffset="349"/>
  </outline>
</glyph>
<glyph name="Bhook" format="2">
  <advance width="840"/>
  <unicode hex="0181"/>
  <anchor x="509" y="0" name="bottom"/>
  <anchor x="488" y="0" name="currency"/>
  <anchor x="509" y="708" name="top"/>
  <outline>
    <contour>
      <point x="364" y="3" type="curve"/>
      <point x="368" y="3" type="line"/>
      <point x="452" y="3"/>
      <point x="507" y="0"/>
      <point x="534" y="0" type="curve" smooth="yes"/>
      <point x="682" y="0"/>
      <point x="775" y="78"/>
      <point x="775" y="202" type="curve" smooth="yes"/>
      <point x="775" y="297"/>
      <point x="720" y="361"/>
      <point x="621" y="381" type="curve"/>
      <point x="621" y="383" type="line"/>
      <point x="686" y="409"/>
      <point x="723" y="466"/>
      <point x="723" y="539" type="curve" smooth="yes"/>
      <point x="723" y="645"/>
      <point x="644" y="708"/>
      <point x="512" y="708" type="curve" smooth="yes"/>
      <point x="490" y="708"/>
      <point x="433" y="705"/>
      <point x="368" y="705" type="curve"/>
      <point x="366" y="705" type="line"/>
      <point x="319" y="705"/>
      <point x="282" y="708"/>
      <point x="241" y="708" type="curve"/>
      <point x="115" y="708"/>
      <point x="55" y="641"/>
      <point x="55" y="549" type="curve"/>
      <point x="55" y="497"/>
      <point x="81" y="466"/>
      <point x="125" y="466" type="curve"/>
      <point x="162" y="466"/>
      <point x="185" y="488"/>
      <point x="185" y="524" type="curve"/>
      <point x="185" y="561"/>
      <point x="160" y="582"/>
      <point x="160" y="610" type="curve"/>
      <point x="160" y="627"/>
      <point x="170" y="643"/>
      <point x="237" y="643" type="curve"/>
      <point x="299" y="643"/>
      <point x="320" y="628"/>
      <point x="320" y="552" type="curve"/>
      <point x="320" y="156" type="line"/>
      <point x="320" y="97"/>
      <point x="304" y="83"/>
      <point x="234" y="77" type="curve"/>
      <point x="152" y="70" type="line"/>
      <point x="152" y="0" type="line"/>
      <point x="200" y="1"/>
      <point x="292" y="3"/>
    </contour>
    <contour>
      <point x="490" y="73" type="curve" smooth="yes"/>
      <point x="425" y="73"/>
      <point x="413" y="86"/>
      <point x="413" y="156" type="curve" smooth="yes"/>
      <point x="413" y="638" type="line"/>
      <point x="489" y="638" type="line" smooth="yes"/>
      <point x="584" y="638"/>
      <point x="627" y="603"/>
      <point x="627" y="526" type="curve" smooth="yes"/>
      <point x="627" y="444"/>
      <point x="577" y="402"/>
      <point x="480" y="402" type="curve" smooth="yes"/>
      <point x="394" y="402" type="line"/>
      <point x="394" y="333" type="line"/>
      <point x="497" y="333" type="line" smooth="yes"/>
      <point x="617" y="333"/>
      <point x="675" y="292"/>
      <point x="675" y="208" type="curve" smooth="yes"/>
      <point x="675" y="118"/>
      <point x="613" y="73"/>
    </contour>
  </outline>
</glyph>
<glyph name="Chook" format="2">
  <advance width="773"/>
  <unicode hex="0187"/>
  <anchor x="394" y="0" name="bottom"/>
  <anchor x="386" y="0" name="currency"/>
  <anchor x="182" y="354" name="middlestroke"/>
  <anchor x="370" y="708" name="top"/>
  <outline>
    <contour>
      <point x="369" y="-14" type="curve" smooth="yes"/>
      <point x="492" y="-14"/>
      <point x="537" y="59"/>
      <point x="566" y="59" type="curve" smooth="yes"/>
      <point x="579" y="59"/>
      <point x="586" y="42"/>
      <point x="590" y="-4" type="curve"/>
      <point x="663" y="-4" type="line"/>
      <point x="660" y="52"/>
      <point x="659" y="122"/>
      <point x="659" y="260" type="curve"/>
      <point x="586" y="260" type="line"/>
      <point x="570" y="141"/>
      <point x="488" y="54"/>
      <point x="381" y="54" type="curve" smooth="yes"/>
      <point x="260" y="54"/>
      <point x="183" y="172"/>
      <point x="183" y="355" type="curve" smooth="yes"/>
      <point x="183" y="539"/>
      <point x="260" y="654"/>
      <point x="383" y="654" type="curve" smooth="yes"/>
      <point x="488" y="654"/>
      <point x="568" y="573"/>
      <point x="586" y="448" type="curve"/>
      <point x="659" y="448" type="line"/>
      <point x="653" y="508"/>
      <point x="647" y="567"/>
      <point x="632" y="628" type="curve"/>
      <point x="560" y="628"/>
      <point x="517" y="722"/>
      <point x="380" y="722" type="curve" smooth="yes"/>
      <point x="206" y="722"/>
      <point x="83" y="565"/>
      <point x="83" y="344" type="curve" smooth="yes"/>
      <point x="83" y="129"/>
      <point x="197" y="-14"/>
    </contour>
    <contour>
      <point x="599" y="448" type="curve"/>
      <point x="659" y="448" type="line"/>
      <point x="659" y="639"/>
      <point x="602" y="692"/>
      <point x="602" y="791" type="curve" smooth="yes"/>
      <point x="602" y="830"/>
      <point x="612" y="846"/>
      <point x="637" y="846" type="curve" smooth="yes"/>
      <point x="669" y="846"/>
      <point x="680" y="821"/>
      <point x="715" y="821" type="curve" smooth="yes"/>
      <point x="750" y="821"/>
      <point x="772" y="845"/>
      <point x="772" y="883" type="curve" smooth="yes"/>
      <point x="772" y="928"/>
      <point x="741" y="951"/>
      <point x="679" y="951" type="curve" smooth="yes"/>
      <point x="583" y="951"/>
      <point x="532" y="895"/>
      <point x="532" y="790" type="curve" smooth="yes"/>
      <point x="532" y="669"/>
      <point x="599" y="609"/>
    </contour>
  </outline>
</glyph>
<glyph name="Dhook" format="2">
  <advance width="948"/>
  <unicode hex="018A"/>
  <anchor x="539" y="0" name="bottom"/>
  <anchor x="367" y="356" name="center"/>
  <anchor x="555" y="708" name="top"/>
  <outline>
    <contour>
      <point x="495" y="0" type="curve"/>
      <point x="503" y="0" type="line" smooth="yes"/>
      <point x="730" y="0"/>
      <point x="865" y="137"/>
      <point x="865" y="369" type="curve" smooth="yes"/>
      <point x="865" y="591"/>
      <point x="742" y="708"/>
      <point x="507" y="708" type="curve" smooth="yes"/>
      <point x="476" y="708"/>
      <point x="423" y="705"/>
      <point x="367" y="705" type="curve"/>
      <point x="366" y="705" type="line"/>
      <point x="319" y="705"/>
      <point x="282" y="708"/>
      <point x="241" y="708" type="curve"/>
      <point x="115" y="708"/>
      <point x="55" y="641"/>
      <point x="55" y="549" type="curve"/>
      <point x="55" y="497"/>
      <point x="81" y="466"/>
      <point x="125" y="466" type="curve"/>
      <point x="162" y="466"/>
      <point x="185" y="488"/>
      <point x="185" y="524" type="curve"/>
      <point x="185" y="561"/>
      <point x="160" y="582"/>
      <point x="160" y="610" type="curve"/>
      <point x="160" y="627"/>
      <point x="170" y="643"/>
      <point x="237" y="643" type="curve"/>
      <point x="299" y="643"/>
      <point x="320" y="628"/>
      <point x="320" y="552" type="curve"/>
      <point x="320" y="156" type="line"/>
      <point x="320" y="102"/>
      <point x="301" y="83"/>
      <point x="225" y="77" type="curve"/>
      <point x="149" y="70" type="line"/>
      <point x="149" y="0" type="line"/>
      <point x="200" y="1"/>
      <point x="297" y="3"/>
      <point x="361" y="3" type="curve"/>
      <point x="417" y="3"/>
      <point x="466" y="0"/>
    </contour>
    <contour>
      <point x="492" y="68" type="curve" smooth="yes"/>
      <point x="425" y="68"/>
      <point x="413" y="81"/>
      <point x="413" y="154" type="curve" smooth="yes"/>
      <point x="413" y="640" type="line"/>
      <point x="493" y="640" type="line" smooth="yes"/>
      <point x="685" y="640"/>
      <point x="765" y="555"/>
      <point x="765" y="354" type="curve" smooth="yes"/>
      <point x="765" y="158"/>
      <point x="679" y="68"/>
    </contour>
  </outline>
</glyph>
<glyph name="Schwa" format="2">
  <advance width="795"/>
  <unicode hex="018F"/>
  <anchor x="414" y="0" name="bottom"/>
  <anchor x="404" y="708" name="top"/>
  <anchor x="404" y="688" name="top_low_1"/>
  <anchor x="404" y="668" name="top_low_2"/>
  <anchor x="404" y="648" name="top_low_3"/>
  <outline>
    <contour>
      <point x="390" y="-14" type="curve" smooth="yes"/>
      <point x="591" y="-14"/>
      <point x="712" y="123"/>
      <point x="712" y="351" type="curve" smooth="yes"/>
      <point x="712" y="579"/>
      <point x="591" y="722"/>
      <point x="399" y="722" type="curve" smooth="yes"/>
      <point x="263" y="722"/>
      <point x="154" y="650"/>
      <point x="114" y="533" type="curve"/>
      <point x="183" y="506" type="line"/>
      <point x="224" y="600"/>
      <point x="284" y="643"/>
      <point x="376" y="643" type="curve" smooth="yes"/>
      <point x="525" y="643"/>
      <point x="612" y="533"/>
      <point x="612" y="347" type="curve" smooth="yes"/>
      <point x="612" y="167"/>
      <point x="530" y="55"/>
      <point x="398" y="55" type="curve" smooth="yes"/>
      <point x="270" y="55"/>
      <point x="175" y="150"/>
      <point x="183" y="271" type="curve"/>
      <point x="651" y="271" type="line"/>
      <point x="650" y="341" type="line"/>
      <point x="83" y="341" type="line"/>
      <point x="78" y="119"/>
      <point x="193" y="-14"/>
    </contour>
  </outline>
</glyph>
<glyph name="Eopen" format="2">
  <advance width="735"/>
  <unicode hex="0190"/>
  <anchor x="335" y="0" name="bottom"/>
  <anchor x="335" y="708" name="top"/>
  <outline>
    <contour>
      <point x="300" y="-14" type="curve" smooth="yes"/>
      <point x="411" y="-14"/>
      <point x="475" y="34"/>
      <point x="513" y="34" type="curve" smooth="yes"/>
      <point x="532" y="34"/>
      <point x="545" y="22"/>
      <point x="552" y="-4" type="curve"/>
      <point x="625" y="-4" type="line"/>
      <point x="620" y="60"/>
      <point x="618" y="134"/>
      <point x="618" y="246" type="curve"/>
      <point x="545" y="246" type="line"/>
      <point x="519" y="119"/>
      <point x="447" y="55"/>
      <point x="331" y="55" type="curve" smooth="yes"/>
      <point x="228" y="55"/>
      <point x="167" y="105"/>
      <point x="167" y="189" type="curve" smooth="yes"/>
      <point x="167" y="264"/>
      <point x="215" y="310"/>
      <point x="312" y="326" type="curve"/>
      <point x="333" y="317"/>
      <point x="354" y="313"/>
      <point x="374" y="313" type="curve" smooth="yes"/>
      <point x="408" y="313"/>
      <point x="427" y="327"/>
      <point x="427" y="354" type="curve" smooth="yes"/>
      <point x="427" y="381"/>
      <point x="408" y="395"/>
      <point x="374" y="395" type="curve" smooth="yes"/>
      <point x="354" y="395"/>
      <point x="333" y="391"/>
      <point x="312" y="382" type="curve"/>
      <point x="226" y="397"/>
      <point x="181" y="443"/>
      <point x="181" y="517" type="curve" smooth="yes"/>
      <point x="181" y="603"/>
      <point x="241" y="653"/>
      <point x="342" y="653" type="curve" smooth="yes"/>
      <point x="455" y="653"/>
      <point x="521" y="591"/>
      <point x="545" y="462" type="curve"/>
      <point x="618" y="462" type="line"/>
      <point x="618" y="574"/>
      <point x="620" y="648"/>
      <point x="625" y="712" type="curve"/>
      <point x="552" y="712" type="line"/>
      <point x="545" y="686"/>
      <point x="532" y="674"/>
      <point x="513" y="674" type="curve" smooth="yes"/>
      <point x="475" y="674"/>
      <point x="421" y="722"/>
      <point x="310" y="722" type="curve" smooth="yes"/>
      <point x="173" y="722"/>
      <point x="79" y="645"/>
      <point x="79" y="533" type="curve" smooth="yes"/>
      <point x="79" y="454"/>
      <point x="128" y="384"/>
      <point x="204" y="355" type="curve"/>
      <point x="204" y="353" type="line"/>
      <point x="118" y="324"/>
      <point x="65" y="255"/>
      <point x="65" y="173" type="curve" smooth="yes"/>
      <point x="65" y="62"/>
      <point x="160" y="-14"/>
    </contour>
  </outline>
</glyph>
<glyph name="Fhook" format="2">
  <advance width="696"/>
  <unicode hex="0191"/>
  <anchor x="317" y="0" name="bottom"/>
  <anchor x="274" y="150" name="center"/>
  <anchor x="210" y="250" name="stem"/>
  <anchor x="382" y="708" name="top"/>
  <anchor x="382" y="688" name="top_low_1"/>
  <anchor x="382" y="668" name="top_low_2"/>
  <anchor x="382" y="648" name="top_low_3"/>
  <outline>
    <contour>
      <point x="210" y="250" type="line"/>
      <point x="303" y="250" type="line"/>
      <point x="303" y="635" type="line"/>
      <point x="375" y="635" type="line"/>
      <point x="485" y="635"/>
      <point x="516" y="613"/>
      <point x="545" y="508" type="curve"/>
      <point x="618" y="508" type="line"/>
      <point x="612" y="569"/>
      <point x="609" y="634"/>
      <point x="608" y="708" type="curve"/>
      <point x="564" y="706"/>
      <point x="505" y="705"/>
      <point x="426" y="705" type="curve"/>
      <point x="258" y="705" type="line"/>
      <point x="246" y="705" type="line"/>
      <point x="186" y="705"/>
      <point x="106" y="707"/>
      <point x="70" y="708" type="curve"/>
      <point x="70" y="638" type="line"/>
      <point x="115" y="634" type="line"/>
      <point x="191" y="627"/>
      <point x="210" y="611"/>
      <point x="210" y="552" type="curve"/>
    </contour>
    <contour>
      <point x="275" y="271" type="line"/>
      <point x="445" y="271" type="line"/>
      <point x="445" y="341" type="line"/>
      <point x="275" y="341" type="line"/>
    </contour>
    <contour>
      <point x="431" y="124" type="curve"/>
      <point x="501" y="124" type="line"/>
      <point x="496" y="221"/>
      <point x="496" y="264"/>
      <point x="496" y="306" type="curve" smooth="yes"/>
      <point x="496" y="348"/>
      <point x="496" y="391"/>
      <point x="501" y="488" type="curve"/>
      <point x="431" y="488" type="line"/>
      <point x="425" y="399"/>
      <point x="408" y="341"/>
      <point x="350" y="341" type="curve"/>
      <point x="350" y="271" type="line"/>
      <point x="408" y="271"/>
      <point x="425" y="213"/>
    </contour>
    <component base="_UC-J-descender-stump" xOffset="13"/>
  </outline>
</glyph>
<glyph name="Ghook" format="2">
  <advance width="822"/>
  <unicode hex="0193"/>
  <anchor x="406" y="0" name="bottom"/>
  <anchor x="394" y="0" name="currency"/>
  <anchor x="380" y="708" name="top"/>
  <outline>
    <contour>
      <point x="371" y="-14" type="curve" smooth="yes"/>
      <point x="475" y="-14"/>
      <point x="538" y="37"/>
      <point x="566" y="37" type="curve" smooth="yes"/>
      <point x="578" y="37"/>
      <point x="584" y="30"/>
      <point x="589" y="10" type="curve"/>
      <point x="659" y="10" type="line"/>
      <point x="659" y="198" type="line"/>
      <point x="659" y="257"/>
      <point x="669" y="272"/>
      <point x="714" y="281" type="curve"/>
      <point x="729" y="284" type="line"/>
      <point x="729" y="354" type="line"/>
      <point x="705" y="353"/>
      <point x="651" y="351"/>
      <point x="612" y="351" type="curve"/>
      <point x="613" y="351" type="line"/>
      <point x="602" y="351" type="line"/>
      <point x="542" y="351"/>
      <point x="462" y="353"/>
      <point x="426" y="354" type="curve"/>
      <point x="426" y="284" type="line"/>
      <point x="471" y="280" type="line"/>
      <point x="547" y="273"/>
      <point x="566" y="257"/>
      <point x="566" y="198" type="curve"/>
      <point x="566" y="174" type="line" smooth="yes"/>
      <point x="566" y="107"/>
      <point x="490" y="54"/>
      <point x="393" y="54" type="curve" smooth="yes"/>
      <point x="260" y="54"/>
      <point x="183" y="164"/>
      <point x="183" y="353" type="curve" smooth="yes"/>
      <point x="183" y="539"/>
      <point x="259" y="654"/>
      <point x="383" y="654" type="curve" smooth="yes"/>
      <point x="488" y="654"/>
      <point x="568" y="573"/>
      <point x="586" y="448" type="curve"/>
      <point x="659" y="448" type="line"/>
      <point x="653" y="508"/>
      <point x="647" y="567"/>
      <point x="632" y="628" type="curve"/>
      <point x="560" y="628"/>
      <point x="517" y="722"/>
      <point x="380" y="722" type="curve" smooth="yes"/>
      <point x="206" y="722"/>
      <point x="83" y="565"/>
      <point x="83" y="344" type="curve" smooth="yes"/>
      <point x="83" y="128"/>
      <point x="198" y="-14"/>
    </contour>
    <contour>
      <point x="599" y="448" type="curve"/>
      <point x="659" y="448" type="line"/>
      <point x="659" y="639"/>
      <point x="602" y="692"/>
      <point x="602" y="791" type="curve" smooth="yes"/>
      <point x="602" y="830"/>
      <point x="612" y="846"/>
      <point x="637" y="846" type="curve" smooth="yes"/>
      <point x="669" y="846"/>
      <point x="680" y="821"/>
      <point x="715" y="821" type="curve" smooth="yes"/>
      <point x="750" y="821"/>
      <point x="772" y="845"/>
      <point x="772" y="883" type="curve" smooth="yes"/>
      <point x="772" y="928"/>
      <point x="741" y="951"/>
      <point x="679" y="951" type="curve" smooth="yes"/>
      <point x="583" y="951"/>
      <point x="532" y="895"/>
      <point x="532" y="790" type="curve" smooth="yes"/>
      <point x="532" y="669"/>
      <point x="599" y="609"/>
    </contour>
  </outline>
</glyph>
<glyph name="Khook" format="2">
  <advance width="950"/>
  <unicode hex="0198"/>
  <anchor x="449" y="0" name="bottom"/>
  <anchor x="257" y="514" name="center"/>
  <anchor x="422" y="708" name="top"/>
  <outline>
    <contour>
      <point x="620" y="0" type="curve"/>
      <point x="661" y="2"/>
      <point x="682" y="3"/>
      <point x="706" y="3" type="curve" smooth="yes"/>
      <point x="735" y="3"/>
      <point x="756" y="2"/>
      <point x="813" y="0" type="curve"/>
      <point x="813" y="70" type="line"/>
      <point x="736" y="74"/>
      <point x="709" y="90"/>
      <point x="676" y="147" type="curve" smooth="yes"/>
      <point x="602" y="277" type="line" smooth="yes"/>
      <point x="559" y="353"/>
      <point x="528" y="377"/>
      <point x="459" y="391" type="curve"/>
      <point x="475" y="351" type="line"/>
      <point x="673" y="587" type="line"/>
      <point x="715" y="638"/>
      <point x="736" y="657"/>
      <point x="772" y="657" type="curve"/>
      <point x="790" y="657"/>
      <point x="801" y="651"/>
      <point x="801" y="637" type="curve"/>
      <point x="801" y="620"/>
      <point x="781" y="606"/>
      <point x="781" y="582" type="curve"/>
      <point x="781" y="554"/>
      <point x="801" y="536"/>
      <point x="832" y="536" type="curve"/>
      <point x="876" y="536"/>
      <point x="906" y="567"/>
      <point x="906" y="612" type="curve"/>
      <point x="906" y="680"/>
      <point x="864" y="722"/>
      <point x="796" y="722" type="curve"/>
      <point x="712" y="722"/>
      <point x="672" y="696"/>
      <point x="581" y="587" type="curve"/>
      <point x="463" y="446" type="line" smooth="yes"/>
      <point x="426" y="402"/>
      <point x="404" y="391"/>
      <point x="355" y="391" type="curve" smooth="yes"/>
      <point x="269" y="391" type="line"/>
      <point x="269" y="321" type="line"/>
      <point x="355" y="321" type="line" smooth="yes"/>
      <point x="450" y="321"/>
      <point x="483" y="303"/>
      <point x="524" y="231" type="curve" smooth="yes"/>
      <point x="593" y="108" type="line" smooth="yes"/>
      <point x="614" y="71"/>
      <point x="622" y="36"/>
    </contour>
    <contour>
      <point x="246" y="3" type="curve"/>
      <point x="256" y="3" type="line"/>
      <point x="267" y="3" type="line"/>
      <point x="327" y="3"/>
      <point x="407" y="1"/>
      <point x="443" y="0" type="curve"/>
      <point x="443" y="70" type="line"/>
      <point x="398" y="74" type="line"/>
      <point x="322" y="81"/>
      <point x="303" y="97"/>
      <point x="303" y="156" type="curve"/>
      <point x="303" y="708" type="line"/>
      <point x="287" y="706"/>
      <point x="272" y="705"/>
      <point x="256" y="705" type="curve"/>
      <point x="246" y="705" type="line"/>
      <point x="186" y="705"/>
      <point x="106" y="707"/>
      <point x="70" y="708" type="curve"/>
      <point x="70" y="638" type="line"/>
      <point x="115" y="634" type="line"/>
      <point x="191" y="627"/>
      <point x="210" y="611"/>
      <point x="210" y="552" type="curve"/>
      <point x="210" y="156" type="line"/>
      <point x="210" y="97"/>
      <point x="191" y="81"/>
      <point x="115" y="74" type="curve"/>
      <point x="70" y="70" type="line"/>
      <point x="70" y="0" type="line"/>
      <point x="106" y="1"/>
      <point x="186" y="3"/>
    </contour>
  </outline>
</glyph>
<glyph name="khook" format="2">
  <advance width="740"/>
  <unicode hex="0199"/>
  <anchor x="266" y="256" name="#entry"/>
  <anchor x="266" y="256" name="#exit"/>
  <anchor x="712" y="512" name="2ndTittle"/>
  <anchor x="492" y="0" name="^exit"/>
  <anchor x="176" y="512" name="bar"/>
  <anchor x="222" y="512" name="center"/>
  <anchor x="176" y="256" name="stem"/>
  <anchor x="362" y="773" name="top"/>
  <outline>
    <contour>
      <point x="176" y="256" type="line"/>
      <point x="266" y="256" type="line"/>
      <point x="266" y="547" type="line"/>
      <point x="266" y="662"/>
      <point x="307" y="717"/>
      <point x="392" y="717" type="curve"/>
      <point x="420" y="717"/>
      <point x="431" y="711"/>
      <point x="431" y="697" type="curve"/>
      <point x="431" y="680"/>
      <point x="411" y="666"/>
      <point x="411" y="642" type="curve"/>
      <point x="411" y="614"/>
      <point x="431" y="596"/>
      <point x="462" y="596" type="curve"/>
      <point x="506" y="596"/>
      <point x="536" y="627"/>
      <point x="536" y="672" type="curve"/>
      <point x="536" y="740"/>
      <point x="479" y="782"/>
      <point x="386" y="782" type="curve"/>
      <point x="250" y="782"/>
      <point x="176" y="694"/>
      <point x="176" y="524" type="curve"/>
    </contour>
    <component base="_LC-baseline-normal-narrow"/>
    <component base="_LC-k-legs" xOffset="210"/>
  </outline>
</glyph>
<glyph name="lambdastroke-latin" format="2">
  <advance width="666"/>
  <unicode hex="019B"/>
  <anchor x="335" y="0" name="bottom"/>
  <anchor x="335" y="245" name="center"/>
  <anchor x="335" y="773" name="top"/>
  <outline>
    <contour>
      <point x="233" y="106" type="curve"/>
      <point x="359" y="418" type="line"/>
      <point x="341" y="413" type="line"/>
      <point x="417" y="209" type="line"/>
      <point x="459" y="106"/>
      <point x="442" y="78"/>
      <point x="388" y="72" type="curve"/>
      <point x="373" y="70" type="line"/>
      <point x="373" y="0" type="line"/>
      <point x="417" y="2"/>
      <point x="460" y="3"/>
      <point x="497" y="3" type="curve"/>
      <point x="549" y="3"/>
      <point x="601" y="2"/>
      <point x="646" y="0" type="curve"/>
      <point x="646" y="70" type="line"/>
      <point x="625" y="73" type="line"/>
      <point x="561" y="80"/>
      <point x="536" y="106"/>
      <point x="497" y="200" type="curve"/>
      <point x="376" y="520" type="line"/>
      <point x="309" y="520" type="line"/>
      <point x="155" y="142" type="line"/>
      <point x="134" y="91"/>
      <point x="88" y="70"/>
      <point x="20" y="71" type="curve"/>
      <point x="20" y="0" type="line"/>
      <point x="53" y="1"/>
      <point x="84" y="3"/>
      <point x="133" y="3" type="curve"/>
      <point x="165" y="3"/>
      <point x="188" y="2"/>
      <point x="210" y="0" type="curve"/>
      <point x="208" y="38"/>
      <point x="220" y="73"/>
    </contour>
    <contour>
      <point x="154" y="445" type="line"/>
      <point x="339" y="535" type="line"/>
      <point x="302" y="589" type="line"/>
      <point x="125" y="503" type="line"/>
    </contour>
    <contour>
      <point x="316" y="483" type="line"/>
      <point x="376" y="519" type="line"/>
      <point x="310" y="685" type="line" smooth="yes"/>
      <point x="283" y="754"/>
      <point x="249" y="782"/>
      <point x="184" y="782" type="curve" smooth="yes"/>
      <point x="118" y="782"/>
      <point x="68" y="740"/>
      <point x="68" y="681" type="curve" smooth="yes"/>
      <point x="68" y="638"/>
      <point x="94" y="610"/>
      <point x="133" y="610" type="curve" smooth="yes"/>
      <point x="165" y="610"/>
      <point x="184" y="626"/>
      <point x="184" y="652" type="curve" smooth="yes"/>
      <point x="184" y="675"/>
      <point x="175" y="684"/>
      <point x="175" y="698" type="curve" smooth="yes"/>
      <point x="175" y="709"/>
      <point x="184" y="717"/>
      <point x="197" y="717" type="curve" smooth="yes"/>
      <point x="216" y="717"/>
      <point x="228" y="705"/>
      <point x="240" y="674" type="curve" smooth="yes"/>
    </contour>
    <contour>
      <point x="339" y="535" type="line"/>
      <point x="501" y="614" type="line"/>
      <point x="472" y="672" type="line"/>
      <point x="302" y="589" type="line"/>
    </contour>
  </outline>
</glyph>
